<svg width="16" height="16" viewBox="0 0 16 16" fill="none" xmlns="http://www.w3.org/2000/svg">
<path d="M6 10L10 6" stroke="#3C3C3C" stroke-width="2" stroke-linecap="round" stroke-linejoin="round"/>
<path d="M6.33333 6.66667C6.51743 6.66667 6.66667 6.51743 6.66667 6.33333C6.66667 6.14924 6.51743 6 6.33333 6C6.14924 6 6 6.14924 6 6.33333C6 6.51743 6.14924 6.66667 6.33333 6.66667Z" fill="#3C3C3C" stroke="#3C3C3C" stroke-width="2" stroke-linecap="round" stroke-linejoin="round"/>
<path d="M9.66634 10C9.85044 10 9.99967 9.85077 9.99967 9.66668C9.99967 9.48258 9.85044 9.33334 9.66634 9.33334C9.48225 9.33334 9.33301 9.48258 9.33301 9.66668C9.33301 9.85077 9.48225 10 9.66634 10Z" fill="#3C3C3C" stroke="#3C3C3C" stroke-width="2" stroke-linecap="round" stroke-linejoin="round"/>
<path d="M3.33315 4.8C3.33315 4.41102 3.48768 4.03797 3.76273 3.76291C4.03778 3.48786 4.41083 3.33334 4.79982 3.33334H5.46649C5.85375 3.33311 6.22521 3.17974 6.49982 2.90667L6.96649 2.44C7.10278 2.30294 7.26483 2.19416 7.44331 2.11994C7.62179 2.04572 7.81319 2.00751 8.00649 2.00751C8.19978 2.00751 8.39118 2.04572 8.56966 2.11994C8.74814 2.19416 8.91019 2.30294 9.04649 2.44L9.51315 2.90667C9.78776 3.17974 10.1592 3.33311 10.5465 3.33334H11.2132C11.6021 3.33334 11.9752 3.48786 12.2502 3.76291C12.5253 4.03797 12.6798 4.41102 12.6798 4.8V5.46667C12.68 5.85393 12.8334 6.2254 13.1065 6.5L13.5732 6.96667C13.7102 7.10297 13.819 7.26502 13.8932 7.4435C13.9674 7.62198 14.0056 7.81337 14.0056 8.00667C14.0056 8.19997 13.9674 8.39136 13.8932 8.56984C13.819 8.74832 13.7102 8.91037 13.5732 9.04667L13.1065 9.51334C12.8334 9.78794 12.68 10.1594 12.6798 10.5467V11.2133C12.6798 11.6023 12.5253 11.9754 12.2502 12.2504C11.9752 12.5255 11.6021 12.68 11.2132 12.68H10.5465C10.1592 12.6802 9.78776 12.8336 9.51315 13.1067L9.04649 13.5733C8.91019 13.7104 8.74814 13.8192 8.56966 13.8934C8.39118 13.9676 8.19978 14.0058 8.00649 14.0058C7.81319 14.0058 7.62179 13.9676 7.44331 13.8934C7.26483 13.8192 7.10278 13.7104 6.96649 13.5733L6.49982 13.1067C6.22521 12.8336 5.85375 12.6802 5.46649 12.68H4.79982C4.41083 12.68 4.03778 12.5255 3.76273 12.2504C3.48768 11.9754 3.33315 11.6023 3.33315 11.2133V10.5467C3.33293 10.1594 3.17955 9.78794 2.90649 9.51334L2.43982 9.04667C2.30275 8.91037 2.19398 8.74832 2.11976 8.56984C2.04553 8.39136 2.00732 8.19997 2.00732 8.00667C2.00732 7.81337 2.04553 7.62198 2.11976 7.4435C2.19398 7.26502 2.30275 7.10297 2.43982 6.96667L2.90649 6.5C3.17955 6.2254 3.33293 5.85393 3.33315 5.46667V4.8" stroke="#3C3C3C" stroke-width="2" stroke-linecap="round" stroke-linejoin="round"/>
</svg>
