<svg width="23" height="22" viewBox="0 0 23 22" fill="none" xmlns="http://www.w3.org/2000/svg">
<g opacity="0.6" clip-path="url(#clip0_1_128)">
<path d="M19.741 10.4175L19.741 18.7848C19.741 19.0221 19.6425 19.2496 19.4672 19.4174C19.2919 19.5851 19.0542 19.6793 18.8063 19.6793H3.85115C3.60325 19.6793 3.36551 19.5851 3.19022 19.4174C3.01493 19.2496 2.91645 19.0221 2.91645 18.7848L2.91645 10.4175C2.31293 9.7645 1.9804 8.92245 1.98175 8.05064L1.98175 2.68355C1.98175 2.44631 2.08023 2.21878 2.25552 2.05103C2.43081 1.88328 2.66855 1.78903 2.91645 1.78903H19.741C19.9889 1.78903 20.2266 1.88328 20.4019 2.05103C20.5772 2.21878 20.6757 2.44631 20.6757 2.68355V8.05064C20.6757 8.95768 20.3224 9.786 19.741 10.4175ZM17.8716 11.516C17.2032 11.6803 16.5003 11.6647 15.8405 11.4709C15.1807 11.2771 14.5898 10.9125 14.1328 10.4175C13.7823 10.7987 13.3509 11.1039 12.8674 11.3127C12.3838 11.5216 11.8592 11.6293 11.3287 11.6287C10.7982 11.6293 10.2737 11.5216 9.7901 11.3127C9.30655 11.1039 8.87512 10.7987 8.52463 10.4175C8.06879 10.9139 7.4779 11.2795 6.81777 11.4734C6.15764 11.6674 5.45421 11.6821 4.78585 11.516V17.8903H17.8716V11.516ZM13.1981 8.05064C13.1981 7.8134 13.2966 7.58588 13.4719 7.41812C13.6472 7.25037 13.8849 7.15613 14.1328 7.15613C14.3807 7.15613 14.6185 7.25037 14.7937 7.41812C14.969 7.58588 15.0675 7.8134 15.0675 8.05064C15.0675 8.52512 15.2645 8.98017 15.615 9.31568C15.9656 9.65119 16.4411 9.83967 16.9369 9.83967C17.4327 9.83967 17.9082 9.65119 18.2588 9.31568C18.6093 8.98017 18.8063 8.52512 18.8063 8.05064V3.57806H3.85115L3.85115 8.05064C3.85115 8.52512 4.0481 8.98017 4.39868 9.31568C4.74926 9.65119 5.22475 9.83967 5.72054 9.83967C6.21634 9.83967 6.69183 9.65119 7.0424 9.31568C7.39298 8.98017 7.58994 8.52512 7.58994 8.05064C7.58994 7.8134 7.68841 7.58588 7.8637 7.41812C8.03899 7.25037 8.27674 7.15613 8.52463 7.15613C8.77253 7.15613 9.01028 7.25037 9.18556 7.41812C9.36085 7.58588 9.45933 7.8134 9.45933 8.05064C9.45933 8.52512 9.65629 8.98017 10.0069 9.31568C10.3574 9.65119 10.8329 9.83967 11.3287 9.83967C11.8245 9.83967 12.3 9.65119 12.6506 9.31568C13.0012 8.98017 13.1981 8.52512 13.1981 8.05064Z" fill="#1E2742"/>
</g>
<defs>
<clipPath id="clip0_1_128">
<rect width="22.4327" height="21.4684" fill="white" transform="translate(0.112366)"/>
</clipPath>
</defs>
</svg>
