<svg width="32" height="39" viewBox="0 0 32 39" fill="none" xmlns="http://www.w3.org/2000/svg">
<path d="M6.5 9.75C6.5 8.85241 6.86559 7.98894 7.52062 7.35028C8.17608 6.71121 9.06772 6.35 10 6.35H22C22.9323 6.35 23.8239 6.71121 24.4794 7.35028C25.1344 7.98894 25.5 8.85241 25.5 9.75V11.7C25.5 12.5976 25.1344 13.4611 24.4794 14.0997C23.8239 14.7388 22.9323 15.1 22 15.1H10C9.06772 15.1 8.17608 14.7388 7.52062 14.0997C6.86559 13.4611 6.5 12.5976 6.5 11.7V9.75ZM3.67608 35.4335L4.01685 35.084L3.67608 35.4335C4.42714 36.1658 5.44316 36.575 6.5 36.575H25.5C26.5568 36.575 27.5729 36.1658 28.3239 35.4335C29.0754 34.7008 29.5 33.7043 29.5 32.6625V6.3375C29.5 4.1658 27.6961 2.425 25.5 2.425H6.5C4.30387 2.425 2.5 4.1658 2.5 6.3375V32.6625C2.5 33.7043 2.92458 34.7008 3.67608 35.4335ZM10 8.275C9.6062 8.275 9.22606 8.42741 8.94384 8.70257C8.66119 8.97816 8.5 9.35466 8.5 9.75V11.7C8.5 12.0953 8.66119 12.4718 8.94384 12.7474C9.22606 13.0226 9.6062 13.175 10 13.175H22C22.3938 13.175 22.7739 13.0226 23.0562 12.7474C23.3388 12.4718 23.5 12.0953 23.5 11.7V9.75C23.5 9.35467 23.3388 8.97816 23.0562 8.70257C22.7739 8.42741 22.3938 8.275 22 8.275H10ZM9.91872 23.3031C9.54456 23.6679 9.03446 23.875 8.5 23.875C7.96554 23.875 7.45544 23.6679 7.08128 23.3031C6.70756 22.9387 6.5 22.4472 6.5 21.9375C6.5 21.4278 6.70756 20.9363 7.08128 20.5719C7.45544 20.2071 7.96554 20 8.5 20C9.03446 20 9.54456 20.2071 9.91872 20.5719C10.2924 20.9363 10.5 21.4278 10.5 21.9375C10.5 22.4472 10.2924 22.9387 9.91872 23.3031ZM10.5 29.7375C10.5 30.2472 10.2924 30.7387 9.91872 31.1031C9.54456 31.4679 9.03446 31.675 8.5 31.675C7.96554 31.675 7.45544 31.4679 7.08128 31.1031C6.70756 30.7387 6.5 30.2472 6.5 29.7375C6.5 29.2278 6.70756 28.7363 7.08128 28.3719C7.45544 28.0071 7.96554 27.8 8.5 27.8C9.03446 27.8 9.54456 28.0071 9.91872 28.3719C10.2924 28.7363 10.5 29.2278 10.5 29.7375ZM24.9187 23.3031C24.5446 23.6679 24.0345 23.875 23.5 23.875C22.9655 23.875 22.4554 23.6679 22.0813 23.3031C21.7076 22.9387 21.5 22.4472 21.5 21.9375C21.5 21.4278 21.7076 20.9363 22.0813 20.5719C22.4554 20.2071 22.9655 20 23.5 20C24.0345 20 24.5446 20.2071 24.9187 20.5719C25.2924 20.9363 25.5 21.4278 25.5 21.9375C25.5 22.4472 25.2924 22.9387 24.9187 23.3031ZM25.5 29.7375C25.5 30.2472 25.2924 30.7387 24.9187 31.1031C24.5446 31.4679 24.0345 31.675 23.5 31.675C22.9655 31.675 22.4554 31.4679 22.0813 31.1031C21.7076 30.7387 21.5 30.2472 21.5 29.7375C21.5 29.2278 21.7076 28.7363 22.0813 28.3719C22.4554 28.0071 22.9655 27.8 23.5 27.8C24.0345 27.8 24.5446 28.0071 24.9187 28.3719C25.2924 28.7363 25.5 29.2278 25.5 29.7375ZM17.4187 23.3031C17.0446 23.6679 16.5345 23.875 16 23.875C15.4655 23.875 14.9554 23.6679 14.5813 23.3031C14.2076 22.9387 14 22.4472 14 21.9375C14 21.4278 14.2076 20.9363 14.5813 20.5719C14.9554 20.2071 15.4655 20 16 20C16.5345 20 17.0446 20.2071 17.4187 20.5719C17.7924 20.9363 18 21.4278 18 21.9375C18 22.4472 17.7924 22.9387 17.4187 23.3031ZM18 29.7375C18 30.2472 17.7924 30.7387 17.4187 31.1031C17.0446 31.4679 16.5345 31.675 16 31.675C15.4655 31.675 14.9554 31.4679 14.5813 31.1031C14.2076 30.7387 14 30.2472 14 29.7375C14 29.2278 14.2076 28.7363 14.5813 28.3719C14.9554 28.0071 15.4655 27.8 16 27.8C16.5345 27.8 17.0446 28.0071 17.4187 28.3719C17.7924 28.7363 18 29.2278 18 29.7375ZM2.25286 2.21421C3.37716 1.11802 4.90467 0.5 6.5 0.5H25.5C27.0953 0.5 28.6228 1.11802 29.7471 2.21421C30.871 3.30999 31.5 4.79344 31.5 6.3375V32.6625C31.5 33.4273 31.3455 34.1849 31.045 34.8922C30.7445 35.5996 30.3037 36.2431 29.7471 36.7858C29.1905 37.3285 28.5291 37.7596 27.8002 38.054C27.0713 38.3483 26.2897 38.5 25.5 38.5H6.5C5.71034 38.5 4.92869 38.3483 4.19979 38.054C3.47092 37.7596 2.80946 37.3285 2.25286 36.7858C1.69628 36.2431 1.25548 35.5996 0.954976 34.8922C0.654487 34.1849 0.5 33.4273 0.5 32.6625V6.3375C0.5 4.79344 1.12898 3.30999 2.25286 2.21421Z" fill="white" stroke="white"/>
</svg>
