<svg width="39" height="49" viewBox="0 0 39 49" fill="none" xmlns="http://www.w3.org/2000/svg">
<path fill-rule="evenodd" clip-rule="evenodd" d="M32.2774 10.876L31.3565 6.94215C31.5407 6.80331 31.6789 6.61818 31.817 6.47934C35.0401 3.19339 37.941 2.63802 37.941 2.63802C39.5525 7.68264 37.5266 13.6066 37.5266 13.6066C36.4675 14.162 35.1783 15.319 34.7178 15.8281C35.2704 15.4116 36.5136 14.7636 37.2963 14.4397C36.5596 16.6612 28.2715 30.4992 25.6009 27.8149C24.1735 26.2876 25.693 19.2066 27.719 14.0231C28.1794 15.2727 28.778 16.476 28.778 17.4017C28.9622 16.8926 28.6859 14.4859 28.3636 12.4496C29.1924 10.4595 30.1133 8.83967 30.804 8.09917C31.3565 8.19173 32.2774 10.876 32.2774 10.876ZM33.9351 11.6165C33.0142 14.8562 22.8843 36.0992 21.8253 35.405C24.0815 31.6099 30.804 17.4017 33.9351 11.6165Z" fill="#CEB380"/>
<path fill-rule="evenodd" clip-rule="evenodd" d="M5.11097 31.0083C7.68948 31.6099 18.6021 30.1289 19.2007 31.7488C19.7072 33.1372 16.6682 33.4612 13.6753 34.0628C12.0637 34.3868 11.281 35.1273 11.327 35.4512C11.5573 36.7934 19.8914 35.2198 21.1806 35.3587C18.1877 35.9603 15.7934 36.562 12.6163 36.562C11.1889 36.562 6.53836 36.6545 9.99173 34.2017C14.0897 31.2397 1.19716 34.0628 0.414394 30.638C0.0460348 28.7868 7.59739 26.3802 9.43919 25.3157C8.88665 26.0099 7.41321 26.8893 6.53836 27.2595C5.70955 27.676 3.9138 28.6017 5.43328 29.5736C6.12396 30.0364 4.46634 30.8694 5.11097 31.0083Z" fill="#CEB380"/>
</svg>
