<svg width="57" height="54" viewBox="0 0 57 54" fill="none" xmlns="http://www.w3.org/2000/svg">
<path d="M42.8626 38.3696H19.221C16.3837 38.3696 14.0769 36.0485 14.0769 33.1968V18.7036C14.0769 15.8519 16.3855 13.5308 19.221 13.5308H21.4579C21.7644 13.5308 22.0154 13.7817 22.0154 14.09C22.0154 14.4001 21.7662 14.6492 21.4579 14.6492H19.221C16.9985 14.6492 15.19 16.4685 15.19 18.7036V33.1968C15.19 35.4319 16.9985 37.2512 19.221 37.2512H42.8626C45.0851 37.2512 46.8937 35.4319 46.8937 33.1968V25.6688C46.8937 25.3587 47.1428 25.1096 47.4511 25.1096C47.7576 25.1096 48.0085 25.3605 48.0085 25.6688V33.1968C48.0067 36.0485 45.6999 38.3696 42.8626 38.3696Z" fill="#FF859B"/>
<path d="M42.8628 34.1414H32.2214C31.9149 34.1414 31.6639 33.8905 31.6639 33.5822C31.6639 33.2721 31.9131 33.0229 32.2214 33.0229H42.6889V30.8273C42.6889 30.5172 42.9381 30.268 43.2463 30.268C43.5546 30.268 43.8038 30.519 43.8038 30.8273V33.1986C43.802 33.7076 43.3718 34.1414 42.8628 34.1414Z" fill="#FF859B"/>
<path d="M2.89607 32.8437C2.51967 32.8437 2.1397 32.7559 1.78839 32.5748C0.967482 32.1536 0.456665 31.3184 0.456665 30.3917V21.5069C0.456665 20.5802 0.967482 19.7432 1.78839 19.3238C2.60931 18.9043 3.58255 18.9796 4.32639 19.5263L10.4026 23.9696C11.0407 24.4356 11.4063 25.158 11.4063 25.9502C11.4063 26.7424 11.0407 27.4648 10.4026 27.9326L4.32639 32.3759C3.9016 32.686 3.40153 32.8437 2.89607 32.8437ZM2.89787 20.1734C2.69354 20.1734 2.48744 20.2217 2.29386 20.3221C1.84039 20.5533 1.57152 20.9979 1.57152 21.5087V30.3935C1.57152 30.9044 1.84218 31.3471 2.29386 31.5801C2.74554 31.8113 3.26173 31.7701 3.67219 31.4708L9.74835 27.0274C10.0943 26.7747 10.2932 26.3822 10.2932 25.952C10.2932 25.5218 10.0943 25.1293 9.74835 24.8766L3.67219 20.4333C3.43918 20.2594 3.17031 20.1734 2.89787 20.1734Z" fill="#FF859B"/>
<path d="M20.7211 53.6641C20.4289 53.6641 20.1349 53.5942 19.8643 53.4526C19.2423 53.1281 18.8552 52.4936 18.8552 51.7946C18.8552 51.7355 18.8588 51.6799 18.8641 51.6207C18.9627 50.6206 19.2584 49.6957 19.7442 48.8569L24.0567 41.3719C24.2108 41.1048 24.5532 41.0134 24.8166 41.1676C25.0819 41.3217 25.1733 41.6659 25.0192 41.9329L20.7067 49.4179C20.3016 50.1205 20.0543 50.8912 19.9718 51.7139C19.97 51.7426 19.9664 51.7677 19.9664 51.7928C19.9664 52.076 20.1188 52.3234 20.3733 52.456C20.4952 52.5187 20.8143 52.6406 21.153 52.4004C21.8144 51.9308 22.3575 51.3322 22.7715 50.6188L28.1021 41.3701C28.2562 41.103 28.5986 41.0116 28.8621 41.1658C29.1273 41.3199 29.2187 41.6641 29.0646 41.9311L23.734 51.1816C23.2393 52.0366 22.5869 52.7535 21.7947 53.3146C21.4757 53.5476 21.0993 53.6641 20.7211 53.6641Z" fill="#FF859B"/>
<path d="M41.359 53.6639C40.9808 53.6639 40.6044 53.5474 40.2818 53.318C39.4949 52.757 38.8264 52.0203 38.3478 51.1833L33.019 41.9346C32.8649 41.6675 32.9563 41.3252 33.2216 41.1692C33.4869 41.0151 33.8292 41.1065 33.9816 41.3736L39.3121 50.624C39.7136 51.3213 40.271 51.9379 40.9271 52.4057C41.264 52.6458 41.5848 52.524 41.7067 52.4612C41.9612 52.3286 42.1136 52.0812 42.1136 51.798C42.1136 51.773 42.1118 51.7515 42.11 51.7282C42.0329 50.918 41.7802 50.124 41.3787 49.4214L37.0663 41.9364C36.9121 41.6693 37.0035 41.327 37.2688 41.171C37.534 41.0169 37.8746 41.1083 38.0287 41.3754L42.3412 48.8603C42.8234 49.701 43.1263 50.6509 43.2177 51.6099C43.2249 51.6905 43.2285 51.7425 43.2285 51.798C43.2285 52.4971 42.8413 53.1316 42.2194 53.456C41.9451 53.594 41.6512 53.6639 41.359 53.6639Z" fill="#FF859B"/>
<path d="M31.2012 16.6406C26.8923 16.6406 23.3882 13.1168 23.3882 8.78458C23.3882 4.45239 26.8941 0.928558 31.2012 0.928558C33.5958 0.928558 35.8237 2.00936 37.3114 3.89316C37.5032 4.13513 37.462 4.48823 37.2218 4.68002C36.9816 4.8718 36.6303 4.83237 36.4403 4.5904C35.1642 2.97546 33.2553 2.0488 31.203 2.0488C27.5089 2.0488 24.503 5.07075 24.503 8.78636C24.503 12.502 27.5089 15.5239 31.203 15.5239C32.0992 15.5239 32.9631 15.3519 33.7715 15.0095C34.0546 14.8894 34.3809 15.0239 34.4992 15.3088C34.6193 15.5938 34.4848 15.9218 34.2016 16.0419C33.2535 16.4381 32.2462 16.6406 31.2012 16.6406Z" fill="#FF859B"/>
<path d="M46.5583 22.4156C41.2618 22.4156 36.9529 18.0834 36.9529 12.7564C36.9529 7.43125 41.2618 3.09726 46.5583 3.09726C51.8548 3.09726 56.1637 7.42945 56.1637 12.7564C56.1637 18.0816 51.8548 22.4156 46.5583 22.4156ZM46.5583 4.2175C41.8766 4.2175 38.066 8.04783 38.066 12.7564C38.066 17.465 41.8748 21.2953 46.5583 21.2953C51.2418 21.2953 55.0506 17.465 55.0506 12.7564C55.0506 8.04783 51.2418 4.2175 46.5583 4.2175Z" fill="#FF859B"/>
<path d="M46.5586 15.7677C44.9078 15.7677 43.5653 14.4162 43.5653 12.7565C43.5653 11.0967 44.9078 9.74527 46.5586 9.74527C48.2094 9.74527 49.5519 11.0967 49.5519 12.7565C49.5519 14.4162 48.2094 15.7677 46.5586 15.7677ZM46.5586 10.8655C45.5208 10.8655 44.6784 11.7133 44.6784 12.7565C44.6784 13.7996 45.5226 14.6474 46.5586 14.6474C47.5964 14.6474 48.4388 13.7996 48.4388 12.7565C48.4388 11.7133 47.5964 10.8655 46.5586 10.8655Z" fill="#FF859B"/>
</svg>
