<svg width="37" height="37" viewBox="0 0 37 37" fill="none" xmlns="http://www.w3.org/2000/svg">
<g clip-path="url(#clip0_173_273)">
<path d="M20.5898 0.305227C20.7494 0.304638 20.909 0.303866 21.0687 0.302924C21.5002 0.300955 21.9316 0.301711 22.3631 0.303089C22.8159 0.30419 23.2686 0.303167 23.7213 0.302488C24.5299 0.30165 25.3386 0.302993 26.1473 0.305202C26.879 0.307138 27.6106 0.306802 28.3423 0.304803C29.1941 0.302477 30.0459 0.301622 30.8977 0.302901C31.3479 0.303575 31.798 0.303672 32.2481 0.302234C32.6714 0.300977 33.0946 0.30186 33.5179 0.304357C33.6728 0.304927 33.8276 0.30477 33.9825 0.303809C35.5507 0.294982 35.5507 0.294982 36.2051 0.794925C36.6617 1.26105 36.8731 1.69633 36.8743 2.35685C36.8745 2.40326 36.8748 2.44966 36.8751 2.49747C36.8758 2.65273 36.8756 2.80797 36.8753 2.96322C36.8756 3.07576 36.876 3.18829 36.8764 3.30083C36.8775 3.6099 36.8776 3.91897 36.8775 4.22805C36.8777 4.56146 36.8786 4.89487 36.8794 5.22827C36.8811 5.9572 36.8817 6.68612 36.882 7.41505C36.8823 7.87024 36.8827 8.32543 36.8833 8.78061C36.8847 10.0411 36.8859 11.3015 36.8861 12.5619C36.8861 12.6426 36.8861 12.7232 36.8861 12.8063C36.8861 12.9698 36.8862 13.1333 36.8862 13.2968C36.8862 13.378 36.8862 13.4591 36.8862 13.5428C36.8862 13.6646 36.8862 13.6646 36.8863 13.789C36.8865 15.1058 36.8885 16.4226 36.8912 17.7395C36.8939 19.0916 36.8953 20.4438 36.8954 21.7959C36.8954 22.5551 36.896 23.3142 36.8981 24.0733C36.8999 24.7196 36.9004 25.366 36.8993 26.0123C36.8988 26.342 36.8989 26.6717 36.9005 27.0014C36.902 27.3035 36.9018 27.6055 36.9003 27.9075C36.9 28.0166 36.9004 28.1256 36.9014 28.2346C36.908 28.9708 36.8154 29.5246 36.3395 30.1074C36.264 30.1724 36.264 30.1724 36.187 30.2386C36.1375 30.2833 36.0879 30.3279 36.0368 30.3739C35.4982 30.7148 34.9534 30.7437 34.3301 30.7375C34.2461 30.7375 34.1622 30.7376 34.0757 30.7376C33.8 30.7374 33.5244 30.7358 33.2487 30.7341C33.0568 30.7337 32.8649 30.7333 32.6731 30.7331C32.2208 30.7325 31.7686 30.7307 31.3164 30.7285C30.8012 30.7261 30.286 30.7249 29.7708 30.7238C28.7118 30.7215 27.6528 30.7177 26.5938 30.7129C26.5721 30.7815 26.5504 30.8501 26.528 30.9208C26.4505 31.1428 26.3883 31.2466 26.2234 31.4084C26.165 31.468 26.165 31.468 26.1054 31.5287C25.6371 31.886 25.075 32.049 24.5209 32.2243C24.3971 32.264 24.3971 32.264 24.2707 32.3046C24.0459 32.3767 23.8209 32.4484 23.5958 32.5198C23.4053 32.5804 23.215 32.6413 23.0247 32.7023C21.5244 33.1825 20.0221 33.6566 18.5195 34.1296C17.3808 34.4883 16.2437 34.8515 15.1073 35.2176C14.8497 35.3006 14.592 35.3834 14.3343 35.466C14.1701 35.5187 14.0059 35.5714 13.8417 35.6241C13.763 35.6494 13.6843 35.6747 13.6032 35.7007C13.1921 35.8328 12.7816 35.9663 12.3717 36.1019C12.1574 36.1726 11.9429 36.2423 11.7283 36.3118C11.5924 36.3562 11.457 36.4021 11.3217 36.448C10.5771 36.6877 9.84327 36.7743 9.1162 36.4354C8.3219 35.9964 8.10276 35.2112 7.8445 34.3917C7.81464 34.2987 7.78473 34.2057 7.75476 34.1127C7.67443 33.8628 7.59496 33.6127 7.51566 33.3626C7.43145 33.0974 7.34645 32.8325 7.26156 32.5676C7.05607 31.9256 6.85209 31.2832 6.64845 30.6406C6.61895 30.5476 6.58946 30.4546 6.55997 30.3616C6.32076 29.607 6.08221 28.8523 5.84453 28.0972C5.42153 26.7535 4.99461 25.411 4.56629 24.069C4.53257 23.9633 4.49884 23.8576 4.46511 23.7519C4.39754 23.5401 4.32996 23.3284 4.26238 23.1166C4.24564 23.0641 4.2289 23.0117 4.21166 22.9577C4.17782 22.8516 4.14397 22.7456 4.11013 22.6395C3.67514 21.2765 3.24139 19.9131 2.80778 18.5497C2.76104 18.4027 2.7143 18.2558 2.66756 18.1088C2.63638 18.0108 2.6052 17.9127 2.57402 17.8147C2.34295 17.0882 2.11157 16.3617 1.88001 15.6353C1.77722 15.3128 1.67447 14.9903 1.57173 14.6678C1.49051 14.4129 1.40927 14.1579 1.32794 13.9031C1.15299 13.3547 0.978658 12.8062 0.805323 12.2574C0.749526 12.081 0.693515 11.9047 0.637305 11.7285C0.555448 11.4716 0.47439 11.2145 0.393517 10.9573C0.356926 10.8433 0.356927 10.8433 0.319597 10.727C0.0982318 10.0174 -0.0179958 9.3487 0.284554 8.64026C0.709001 7.95297 1.268 7.64279 2.02345 7.41626C2.11647 7.38694 2.20945 7.35745 2.30238 7.32782C2.51787 7.25948 2.73366 7.19225 2.9497 7.12568C3.36711 6.99689 3.78349 6.8649 4.19988 6.73284C4.70699 6.57215 5.21415 6.41168 5.72159 6.25204C7.00565 5.84806 8.28831 5.43983 9.57033 5.02941C9.95905 4.90499 10.3479 4.78083 10.7367 4.65683C10.9008 4.6045 11.0649 4.55217 11.2289 4.49984C11.337 4.46537 11.4451 4.43089 11.5532 4.39643C12.1564 4.20406 12.7592 4.0108 13.3614 3.81533C13.7485 3.68968 14.136 3.56514 14.5237 3.44102C14.679 3.39101 14.8343 3.34057 14.9894 3.28964C16.706 2.72621 16.706 2.72621 17.416 2.96289C17.4179 2.89219 17.4198 2.82148 17.4217 2.74864C17.4515 2.05845 17.5217 1.42438 18.0176 0.896276C18.7938 0.24676 19.6311 0.29928 20.5898 0.305227ZM18.4006 1.55823C18.3658 1.60006 18.331 1.64188 18.2951 1.68498C18.1198 1.93849 18.1294 2.17246 18.1288 2.4706C18.1284 2.56482 18.128 2.65904 18.1277 2.75612C18.1276 2.86131 18.1276 2.9665 18.1276 3.07168C18.1273 3.18294 18.1269 3.2942 18.1266 3.40546C18.1257 3.712 18.1253 4.01855 18.125 4.3251C18.1246 4.65541 18.1237 4.98571 18.123 5.31601C18.1212 6.1141 18.1201 6.91218 18.1192 7.71026C18.1189 7.93562 18.1186 8.16097 18.1183 8.38632C18.1165 9.78524 18.1149 11.1842 18.114 12.5831C18.1138 12.9072 18.1136 13.2313 18.1134 13.5554C18.1133 13.6359 18.1133 13.7165 18.1132 13.7995C18.1123 15.1047 18.1099 16.41 18.1069 17.7152C18.1038 19.0548 18.1021 20.3944 18.1017 21.734C18.1015 22.4863 18.1006 23.2386 18.0983 23.9909C18.0962 24.6316 18.0954 25.2722 18.0963 25.9129C18.0966 26.2398 18.0964 26.5666 18.0946 26.8935C18.093 27.1929 18.0931 27.4922 18.0944 27.7915C18.0946 27.8997 18.0942 28.008 18.0931 28.1162C18.0876 28.7075 18.0893 29.1746 18.5 29.6289C18.9264 30.0443 19.3776 30.0839 19.944 30.0818C20.0409 30.0823 20.0409 30.0823 20.1397 30.0828C20.3557 30.0837 20.5718 30.0836 20.7878 30.0835C20.9428 30.0839 21.0979 30.0844 21.2529 30.085C21.6738 30.0862 22.0947 30.0866 22.5156 30.0867C22.7786 30.0868 23.0416 30.0871 23.3046 30.0875C24.2223 30.0888 25.1399 30.0894 26.0576 30.0893C26.9128 30.0892 27.768 30.0907 28.6232 30.093C29.3577 30.0949 30.0921 30.0957 30.8266 30.0956C31.2652 30.0955 31.7037 30.096 32.1423 30.0975C32.5548 30.0989 32.9672 30.0989 33.3797 30.0978C33.531 30.0977 33.6822 30.098 33.8335 30.0989C34.0402 30.1 34.2469 30.0993 34.4537 30.0982C34.5431 30.0994 34.5431 30.0993 34.6343 30.1005C35.1092 30.0949 35.4782 29.9565 35.8455 29.6523C35.8777 29.6133 35.9099 29.5743 35.9431 29.5341C35.9765 29.4956 36.0098 29.4571 36.0442 29.4175C36.2522 29.0656 36.2954 28.6886 36.2957 28.2869C36.2962 28.1939 36.2966 28.1008 36.297 28.005C36.2968 27.9026 36.2965 27.8003 36.2962 27.6979C36.2964 27.5885 36.2967 27.4791 36.297 27.3697C36.2978 27.0695 36.2976 26.7694 36.2973 26.4693C36.2971 26.1454 36.2978 25.8215 36.2983 25.4976C36.2992 24.8633 36.2994 24.229 36.2992 23.5947C36.2991 23.0791 36.2992 22.5635 36.2995 22.048C36.2996 21.9379 36.2996 21.9379 36.2996 21.8257C36.2997 21.6766 36.2998 21.5276 36.2999 21.3785C36.3007 19.9807 36.3005 18.5829 36.3001 17.1851C36.2997 15.9063 36.3005 14.6274 36.3019 13.3486C36.3033 12.0355 36.3039 10.7223 36.3036 9.40921C36.3035 8.672 36.3037 7.93479 36.3047 7.19757C36.3056 6.57002 36.3057 5.94248 36.3048 5.31493C36.3044 4.99477 36.3043 4.67462 36.3051 4.35446C36.3059 4.06128 36.3057 3.76812 36.3047 3.47494C36.3045 3.36898 36.3047 3.26301 36.3052 3.15705C36.3085 2.50887 36.2829 2.0244 35.9386 1.46338C35.5226 1.05864 35.0822 0.968994 34.5182 0.975016C34.4525 0.974565 34.3869 0.974114 34.3193 0.973649C34.1005 0.972501 33.8818 0.973408 33.6631 0.974319C33.5057 0.973927 33.3484 0.973412 33.1911 0.972784C32.7647 0.971468 32.3383 0.971976 31.9119 0.972893C31.4654 0.973626 31.0189 0.972946 30.5723 0.972493C29.8226 0.971967 29.0729 0.972659 28.3232 0.974037C27.4567 0.97561 26.5901 0.9751 25.7236 0.973509C24.9792 0.972197 24.2349 0.972012 23.4906 0.972768C23.0461 0.973219 22.6017 0.973279 22.1573 0.972324C21.7395 0.971489 21.3218 0.972069 20.904 0.973739C20.7508 0.974121 20.5975 0.974012 20.4443 0.973374C20.2349 0.972583 20.0257 0.973576 19.8164 0.975016C19.7558 0.974371 19.6953 0.973726 19.6329 0.973062C19.1173 0.979937 18.734 1.14661 18.4006 1.55823ZM15.6944 3.76967C15.6174 3.79418 15.5405 3.8187 15.4612 3.84395C15.2047 3.92587 14.9486 4.00896 14.6925 4.09204C14.5091 4.15086 14.3256 4.20961 14.1421 4.26826C13.7501 4.39366 13.3583 4.51959 12.9666 4.64582C12.3619 4.84064 11.7566 5.03366 11.1512 5.22628C10.9468 5.29134 10.7423 5.35641 10.5378 5.42148C10.4869 5.43769 10.436 5.4539 10.3835 5.4706C9.81029 5.65303 9.23728 5.83599 8.66426 6.01894C7.82666 6.28635 6.98895 6.55346 6.15116 6.82028C5.8072 6.92983 5.46324 7.03941 5.11929 7.14898C4.84485 7.23641 4.57041 7.32381 4.29596 7.41117C4.03992 7.49267 3.7839 7.57423 3.5279 7.65582C3.3906 7.69956 3.25328 7.74325 3.11596 7.78693C2.95072 7.83961 2.78555 7.89251 2.62046 7.94566C2.46063 7.99708 2.3006 8.04793 2.14042 8.09827C2.02489 8.13528 2.02489 8.13528 1.90702 8.17304C1.83896 8.19457 1.77091 8.2161 1.70079 8.23828C1.33012 8.3845 1.10089 8.62046 0.871712 8.93836C0.651572 9.62468 0.853446 10.266 1.07355 10.9259C1.10348 11.0185 1.13331 11.1112 1.16305 11.2038C1.2269 11.4021 1.29147 11.6001 1.35661 11.7979C1.46101 12.115 1.5638 12.4326 1.66635 12.7502C1.79175 13.1383 1.9175 13.5263 2.04373 13.9141C2.26433 14.592 2.48208 15.2707 2.69783 15.9501C2.7133 15.9988 2.72878 16.0475 2.74472 16.0977C2.82252 16.3428 2.90026 16.5878 2.97798 16.8329C3.1194 17.2787 3.26131 17.7244 3.40317 18.17C3.48226 18.4185 3.56132 18.667 3.64039 18.9155C3.672 19.0149 3.70362 19.1143 3.73524 19.2136C5.44251 24.5793 5.44251 24.5793 5.48994 24.7284C5.52155 24.8278 5.55316 24.9271 5.58478 25.0265C5.66387 25.275 5.74296 25.5236 5.82205 25.7722C5.96372 26.2174 6.10539 26.6627 6.2471 27.1079C6.32537 27.3539 6.40364 27.5998 6.4819 27.8457C6.49742 27.8945 6.51295 27.9433 6.52895 27.9935C6.74476 28.6717 6.96032 29.35 7.17569 30.0283C7.29628 30.4081 7.41694 30.7879 7.53762 31.1677C7.61946 31.4253 7.70127 31.6829 7.78298 31.9405C7.81397 32.0383 7.84497 32.136 7.87597 32.2337C7.89101 32.2811 7.90605 32.3286 7.92154 32.3774C8.02205 32.6941 8.12364 33.0105 8.22552 33.3268C8.32685 33.6419 8.42432 33.9577 8.51811 34.2752C8.5394 34.3448 8.56069 34.4144 8.58262 34.4861C8.62111 34.6119 8.65821 34.7382 8.69345 34.865C8.85066 35.368 9.15989 35.6625 9.60971 35.9281C10.2094 36.1749 10.8897 35.8873 11.4646 35.6964C11.5615 35.665 11.6585 35.6338 11.7556 35.6026C11.9634 35.5356 12.1711 35.468 12.3786 35.3998C12.7109 35.2907 13.0437 35.183 13.3766 35.0755C13.7831 34.9442 14.1896 34.8125 14.5959 34.6803C15.5661 34.3649 16.5381 34.0549 17.5104 33.7457C17.8689 33.6317 18.2272 33.5174 18.5855 33.403C19.6028 33.078 20.6206 32.7548 21.6395 32.4349C21.9727 32.3302 22.3058 32.2252 22.6389 32.1201C22.9555 32.0203 23.2723 31.9211 23.5892 31.8224C23.7841 31.7615 23.9788 31.7 24.1735 31.6384C24.3061 31.5967 24.4389 31.5556 24.5717 31.5146C25.1251 31.3386 25.5238 31.1955 25.8711 30.7129C24.4296 30.619 23.2774 30.8396 21.9236 31.3181C21.7377 31.3817 21.5514 31.4442 21.3651 31.5067C21.0778 31.6033 20.7906 31.7 20.5039 31.7982C19.6332 32.0963 18.7569 32.3749 17.8784 32.6492C17.4583 32.7804 17.0384 32.9124 16.6186 33.0446C16.5333 33.0714 16.448 33.0982 16.3602 33.1259C15.7083 33.3315 15.0577 33.5411 14.4074 33.7518C14.0782 33.8584 13.7488 33.9645 13.4194 34.0705C13.1007 34.1733 12.7823 34.2768 12.464 34.381C12.2661 34.4456 12.0679 34.5093 11.8696 34.5729C11.734 34.6166 11.5986 34.6614 11.4633 34.7061C10.4288 35.0359 10.4288 35.0359 9.91395 34.8185C9.48694 34.4647 9.35924 34.0644 9.19976 33.5504C9.17487 33.4725 9.14998 33.3945 9.12434 33.3141C9.04202 33.0555 8.96084 32.7966 8.87965 32.5376C8.82149 32.3541 8.76327 32.1707 8.70496 31.9873C8.5687 31.5581 8.43323 31.1287 8.29814 30.6992C8.14906 30.2252 7.99934 29.7515 7.84958 29.2777C7.69222 28.7798 7.53498 28.2818 7.37805 27.7837C6.93955 26.3923 6.49656 25.0024 6.05225 23.6128C6.02605 23.5309 6.02605 23.5309 5.99933 23.4473C5.8397 22.948 5.68006 22.4487 5.52039 21.9495C5.14603 20.7788 4.77249 19.6078 4.39918 18.4368C4.38299 18.386 4.36681 18.3352 4.35013 18.2829C4.12141 17.5655 3.89277 16.848 3.66418 16.1304C3.61214 15.9671 3.56011 15.8038 3.50807 15.6405C3.29657 14.9767 3.08515 14.3128 2.87381 13.649C2.80757 13.4409 2.74131 13.2329 2.67503 13.0248C2.58331 12.7369 2.49166 12.4489 2.40002 12.161C2.37337 12.0773 2.34671 11.9937 2.31926 11.9075C2.2444 11.6722 2.16999 11.4367 2.09571 11.2012C2.0687 11.1163 2.0417 11.0314 2.01387 10.944C1.98765 10.8606 1.96143 10.7772 1.93442 10.6912C1.91076 10.6164 1.88709 10.5415 1.86271 10.4644C1.7552 10.0758 1.76547 9.80508 1.89698 9.41712C2.22666 8.90571 3.04308 8.78078 3.59325 8.62728C3.75782 8.59961 3.75782 8.59961 3.97462 8.67188C3.97462 8.81496 3.97462 8.95805 3.97462 9.10547C3.91393 9.12619 3.91393 9.12619 3.85202 9.14732C3.6682 9.21068 3.48494 9.27549 3.30164 9.34034C3.20614 9.37289 3.20614 9.37289 3.1087 9.40611C3.04745 9.428 2.9862 9.44989 2.9231 9.47245C2.86671 9.49212 2.81032 9.5118 2.75222 9.53208C2.55394 9.63639 2.47775 9.69339 2.38477 9.90039C2.41767 10.1315 2.46269 10.3288 2.5293 10.5508C2.54969 10.6194 2.57007 10.688 2.59106 10.7587C2.66509 11.0006 2.74199 11.2415 2.8195 11.4823C2.84895 11.5746 2.87837 11.6668 2.90778 11.759C2.97094 11.957 3.03428 12.1549 3.09776 12.3527C3.19969 12.6704 3.30122 12.9882 3.4027 13.3061C3.54553 13.7532 3.68853 14.2004 3.83164 14.6475C4.03745 15.2905 4.24269 15.9338 4.44773 16.5771C4.46401 16.6281 4.48028 16.6792 4.49705 16.7318C4.5627 16.9378 4.62835 17.1437 4.69399 17.3497C4.80981 17.7131 4.92569 18.0765 5.04159 18.4399C5.52487 19.9552 6.00732 21.4707 6.48933 22.9864C6.82857 24.0531 7.16807 25.1198 7.50849 26.1861C7.55965 26.3464 7.61079 26.5067 7.66194 26.6669C7.81362 27.1422 7.96533 27.6175 8.11727 28.0926C8.43624 29.0904 8.75353 30.0886 9.06322 31.0892C9.10659 31.2293 9.15006 31.3693 9.19357 31.5093C9.32708 31.9391 9.45995 32.369 9.59136 32.7994C9.63807 32.95 9.68481 33.1006 9.73159 33.2512C9.76208 33.3527 9.76208 33.3527 9.79319 33.4562C9.93909 33.9457 9.93909 33.9457 10.2617 34.3262C10.7814 34.3352 11.2825 34.1272 11.772 33.9682C11.865 33.9384 11.9581 33.9086 12.0512 33.8789C12.2508 33.8151 12.4503 33.7509 12.6497 33.6865C12.9661 33.5843 13.2827 33.4827 13.5994 33.3813C13.9867 33.2573 14.374 33.133 14.7612 33.0085C15.8059 32.6728 16.8516 32.3404 17.8973 32.0081C18.1996 31.912 18.5018 31.8158 18.804 31.7196C19.7863 31.4069 20.7687 31.0949 21.752 30.7852C21.752 30.7613 21.752 30.7375 21.752 30.7129C21.6766 30.7118 21.6012 30.7108 21.5235 30.7097C21.241 30.7055 20.9586 30.6999 20.6762 30.6939C20.5545 30.6915 20.4327 30.6895 20.311 30.6879C18.7109 30.6656 18.7109 30.6656 18.1522 30.1619C18.1011 30.1177 18.0499 30.0736 17.9973 30.0281C17.5714 29.502 17.5173 28.9685 17.5165 28.3098C17.5153 28.2273 17.5141 28.1448 17.5129 28.0598C17.5094 27.7985 17.5079 27.5371 17.5064 27.2758C17.5043 27.0977 17.5022 26.9196 17.4999 26.7415C17.4945 26.3069 17.4908 25.8722 17.4883 25.4375C17.2712 25.5235 17.0595 25.6115 16.8514 25.7175C16.8021 25.7425 16.7527 25.7675 16.7018 25.7932C16.6513 25.8189 16.6009 25.8446 16.5488 25.8711C15.6549 26.3263 15.6549 26.3263 15.1035 26.3047C15.1274 26.1378 15.1512 25.9708 15.1758 25.7988C15.2344 25.7778 15.293 25.7567 15.3533 25.735C15.9011 25.5323 16.4089 25.3034 16.9102 25.0039C16.9689 24.9739 17.0275 24.9439 17.088 24.913C17.2633 24.8103 17.3712 24.7372 17.4883 24.5703C17.5359 24.2515 17.5224 23.9506 17.4883 23.6309C17.4257 23.689 17.3631 23.7471 17.2986 23.807C16.186 24.7536 14.7944 25.361 13.3124 25.3133C11.7718 25.1785 10.4165 24.6726 9.33131 23.5275C8.37128 22.3663 7.88129 21.0264 7.94923 19.5117C8.11616 19.4879 8.28309 19.464 8.45509 19.4395C8.46217 19.5225 8.46924 19.6055 8.47654 19.691C8.6251 21.2912 9.14471 22.5235 10.3334 23.619C11.2871 24.3926 12.5821 24.8044 13.8027 24.7148C15.206 24.519 16.3226 23.9651 17.2715 22.9082C17.3352 22.8416 17.3352 22.8416 17.4002 22.7736C17.5301 22.5755 17.5301 22.5755 17.4883 22.1133C16.7252 22.0179 15.962 21.9225 15.1758 21.8242C15.155 22.3657 15.155 22.3657 15.1347 22.9072C15.1172 23.3444 15.0856 23.7748 15.0313 24.209C14.688 24.2813 14.688 24.2813 14.5254 24.2813C14.5056 24.2391 14.4858 24.197 14.4654 24.1537C14.3829 23.9961 14.292 23.8627 14.1847 23.7212C14.147 23.6713 14.1093 23.6213 14.0705 23.5699C14.0117 23.4928 14.0117 23.4928 13.9518 23.4141C13.8935 23.3369 13.8935 23.3369 13.8339 23.2582C13.7613 23.1622 13.6885 23.0662 13.6156 22.9703C13.5088 22.8296 13.4028 22.6883 13.2969 22.5469C12.9738 22.576 12.806 22.803 12.5968 23.0256C11.668 23.9811 11.668 23.9811 11.2912 24.0046C11.2377 24.0005 11.1841 23.9964 11.1289 23.9922C11.1655 23.3668 11.2261 22.7529 11.3166 22.1333C11.3416 21.9304 11.3515 21.7392 11.3457 21.5352C10.8036 21.4421 10.2588 21.4366 9.71 21.4191C9.63449 21.4164 9.55899 21.4137 9.4812 21.411C9.41252 21.4088 9.34383 21.4066 9.27307 21.4043C9.10548 21.3906 9.10548 21.3906 8.96095 21.3184C8.91945 21.1335 8.91945 21.1335 8.96095 20.8848C9.15946 20.6832 9.39081 20.532 9.62489 20.3744C9.74957 20.288 9.87407 20.2014 9.99835 20.1144C10.0568 20.0736 10.1152 20.0328 10.1755 19.9907C10.3705 19.846 10.5318 19.6908 10.6953 19.5117C10.4531 19.2281 10.2069 18.95 9.94669 18.6826C9.90419 18.6385 9.86168 18.5943 9.81788 18.5487C9.73215 18.4598 9.64569 18.3716 9.5585 18.2842C9.25743 17.97 9.25743 17.97 9.21811 17.715C9.25001 17.5606 9.25001 17.5606 9.32227 17.4883C9.49214 17.4912 9.65882 17.499 9.82813 17.5109C9.90436 17.5159 9.90436 17.5159 9.98212 17.521C10.5597 17.5619 11.1326 17.6333 11.707 17.7051C11.7547 16.9181 11.8024 16.1311 11.8516 15.3203C11.9708 15.2965 12.09 15.2726 12.2129 15.2481C12.5375 15.506 12.7694 15.8587 13.0123 16.192C13.3432 16.6473 13.3432 16.6473 13.7305 17.0547C13.7812 17.0032 13.8318 16.9517 13.884 16.8986C14.2425 16.5361 14.6022 16.1813 14.9909 15.8507C15.08 15.7741 15.1649 15.6925 15.2481 15.6094C15.4739 15.6003 15.4739 15.6003 15.6816 15.6094C15.7456 15.8702 15.754 16.0736 15.7135 16.3385C15.7035 16.4071 15.6935 16.4757 15.6832 16.5464C15.6723 16.6173 15.6613 16.6881 15.65 16.7611C15.5535 17.3745 15.5535 17.3745 15.5371 17.9941C15.79 18.0517 16.0223 18.075 16.2815 18.0735C16.3521 18.0732 16.4226 18.073 16.4953 18.0728C16.5681 18.0722 16.6409 18.0716 16.716 18.0709C16.7901 18.0706 16.8643 18.0703 16.9408 18.0699C17.1233 18.0691 17.3058 18.0679 17.4883 18.0664C17.5663 17.305 17.5663 17.305 17.276 16.6256C17.1813 16.5247 17.0833 16.4268 16.9824 16.332C16.9336 16.2826 16.8848 16.2331 16.8345 16.1821C15.8803 15.268 14.6725 14.8507 13.3691 14.8145C11.9634 14.869 10.717 15.4548 9.75587 16.4766C9.2645 17.0816 8.94827 17.7048 8.67188 18.4277C8.5288 18.4277 8.38571 18.4277 8.23829 18.4277C8.0823 17.9328 8.37977 17.4901 8.59962 17.0547C8.75118 16.798 8.91913 16.5645 9.10548 16.332C9.15289 16.2719 9.20031 16.2119 9.24916 16.15C9.84716 15.4383 10.6183 14.9177 11.4902 14.5977C11.6038 14.5552 11.6038 14.5552 11.7197 14.5118C13.2075 14.0352 14.7672 14.2461 16.1401 14.9432C16.5577 15.1669 16.9142 15.4439 17.2715 15.7539C17.343 15.8016 17.4146 15.8493 17.4883 15.8984C17.5478 15.5691 17.5644 15.2866 17.4883 14.959C17.2209 14.6629 16.8986 14.4893 16.5488 14.3086C16.5056 14.2849 16.4623 14.2613 16.4177 14.2369C14.9719 13.4516 13.2871 13.2574 11.6991 13.7121C9.91228 14.2713 8.64645 15.4196 7.76715 17.0403C7.0542 18.4942 6.94209 20.219 7.46426 21.7517C7.83139 22.7464 8.3616 23.5374 9.10548 24.2813C9.15913 24.3349 9.21279 24.3886 9.26807 24.4438C10.0485 25.1784 10.9222 25.5512 11.9238 25.8711C12.0579 25.9161 12.1919 25.9612 12.3258 26.0066C12.4078 26.0334 12.4898 26.0603 12.5742 26.0879C12.5773 26.2083 12.5772 26.3288 12.5742 26.4492C12.502 26.5215 12.502 26.5215 12.3749 26.5254C11.071 26.4265 9.86084 25.7752 8.88868 24.9316C8.81416 24.875 8.73963 24.8184 8.66285 24.76C7.3709 23.5804 6.69657 21.8515 6.58973 20.135C6.50812 18.3247 7.08394 16.5298 8.31055 15.1758C8.363 15.1166 8.41545 15.0575 8.46948 14.9965C9.63525 13.7537 11.331 12.9923 13.0335 12.9183C14.6142 12.8818 16.0167 13.2159 17.3438 14.0918C17.3915 14.0918 17.4391 14.0918 17.4883 14.0918C17.5035 13.2493 17.515 12.4067 17.522 11.5641C17.5253 11.1726 17.5299 10.7811 17.5374 10.3897C17.6536 7.81743 17.6536 7.81743 16.8379 5.41993C16.706 5.28494 16.706 5.28494 16.5488 5.20313C15.9613 5.27904 15.3912 5.50117 14.828 5.68193C14.6482 5.73962 14.4683 5.79693 14.2883 5.85414C13.7771 6.01675 13.2661 6.18007 12.7552 6.34352C12.4416 6.44382 12.1278 6.54374 11.814 6.64343C11.6373 6.69968 11.4608 6.7564 11.2843 6.81312C11.1754 6.84774 11.0664 6.88234 10.9575 6.91691C10.8848 6.94051 10.8848 6.94051 10.8105 6.96458C10.5062 7.06046 10.2159 7.11702 9.9004 7.1543C9.9004 6.98737 9.9004 6.82043 9.9004 6.64844C11.3381 6.16007 12.7804 5.68648 14.2278 5.22765C14.3927 5.17528 14.5576 5.12266 14.7223 5.06978C14.9558 4.99495 15.1895 4.92107 15.4234 4.84745C15.528 4.81363 15.528 4.81363 15.6347 4.77914C16.0803 4.64038 16.4664 4.53877 16.9192 4.71082C17.127 4.8418 17.127 4.8418 17.4883 5.20313C17.4883 4.72618 17.4883 4.24922 17.4883 3.75782C16.8062 3.41676 16.3851 3.54289 15.6944 3.76967ZM12.3574 16.4766C12.3556 16.5262 12.3538 16.5758 12.3519 16.6268C12.3436 16.8508 12.3347 17.0747 12.3258 17.2986C12.323 17.3767 12.3201 17.4547 12.3172 17.5351C12.3142 17.6097 12.3111 17.6842 12.308 17.761C12.3054 17.8299 12.3027 17.8987 12.3 17.9697C12.2852 18.1387 12.2852 18.1387 12.2129 18.2832C11.6317 18.2953 11.0577 18.2577 10.4785 18.2109C10.61 18.5454 10.8775 18.7578 11.1361 18.9947C11.2942 19.1456 11.4105 19.2784 11.5013 19.4781C11.4902 19.6563 11.4902 19.6563 11.3449 19.8358C11.1137 20.0304 10.8789 20.2165 10.6366 20.397C10.4858 20.5096 10.3371 20.6235 10.1895 20.7402C10.1895 20.7641 10.1895 20.7879 10.1895 20.8125C10.2416 20.8165 10.2938 20.8205 10.3475 20.8246C10.5824 20.8428 10.8173 20.8615 11.0521 20.8803C11.1342 20.8865 11.2164 20.8928 11.301 20.8993C11.379 20.9056 11.457 20.9119 11.5374 20.9184C11.6097 20.924 11.6819 20.9297 11.7564 20.9356C11.9238 20.957 11.9238 20.957 11.9961 21.0293C11.9914 21.1846 11.9813 21.3397 11.969 21.4945C11.9618 21.5855 11.9547 21.6765 11.9473 21.7703C11.9186 22.1018 11.8874 22.4329 11.8516 22.7637C12.2438 22.5366 12.52 22.2355 12.8226 21.8999C13.0078 21.752 13.0078 21.752 13.2266 21.7076C13.5173 21.7676 13.5944 21.8829 13.7711 22.1178C13.8264 22.1899 13.8816 22.262 13.9385 22.3363C14.0627 22.5068 14.1865 22.6775 14.3086 22.8495C14.3563 22.9166 14.404 22.9836 14.4531 23.0527C14.477 23.0527 14.5008 23.0527 14.5254 23.0527C14.5268 23.001 14.5283 22.9492 14.5297 22.8958C14.5366 22.662 14.5445 22.4283 14.5525 22.1946C14.5559 22.0723 14.5559 22.0723 14.5593 21.9476C14.5621 21.8698 14.5649 21.792 14.5677 21.7119C14.57 21.64 14.5723 21.5681 14.5746 21.494C14.5977 21.3184 14.5977 21.3184 14.7422 21.1738C14.8789 21.1707 14.8789 21.1707 15.044 21.1913C15.1038 21.1983 15.1637 21.2053 15.2253 21.2125C15.288 21.2206 15.3506 21.2287 15.4152 21.2371C15.5383 21.2521 15.6615 21.267 15.7847 21.2817C15.8422 21.2885 15.8998 21.2954 15.959 21.3025C16.1323 21.3201 16.3025 21.3248 16.4766 21.3184C16.4184 21.2498 16.3603 21.1812 16.3004 21.1106C16.2617 21.0648 16.2229 21.0189 16.183 20.9717C16.0806 20.8553 15.9747 20.742 15.8668 20.6307C15.7774 20.5374 15.7774 20.5374 15.6862 20.4421C15.6289 20.3838 15.5716 20.3255 15.5126 20.2654C15.3926 20.0898 15.3926 20.0898 15.3869 19.9078C15.492 19.6661 15.6323 19.5598 15.8397 19.3988C15.9113 19.3429 15.9828 19.287 16.0565 19.2294C16.2649 19.0743 16.4728 18.9262 16.6934 18.7891C16.463 18.6355 16.392 18.6249 16.126 18.6172C16.0585 18.6147 15.9911 18.6122 15.9216 18.6097C15.8514 18.6078 15.7811 18.6059 15.7087 18.6039C15.5693 18.5996 15.4298 18.595 15.2904 18.5901C15.2286 18.5883 15.1668 18.5866 15.1031 18.5848C14.959 18.5723 14.959 18.5723 14.8867 18.5C14.8719 18.0838 14.9061 17.6839 14.959 17.2715C14.9659 17.2155 14.9728 17.1595 14.9799 17.1018C14.9967 16.9656 15.0139 16.8295 15.0313 16.6934C14.9627 16.7515 14.8941 16.8096 14.8235 16.8695C14.7777 16.9084 14.7318 16.9472 14.6846 16.9872C14.5686 17.0891 14.4552 17.194 14.3436 17.3006C14.2814 17.3595 14.2192 17.4185 14.155 17.4793C14.0967 17.5357 14.0384 17.5922 13.9783 17.6503C13.8027 17.7773 13.8027 17.7773 13.6277 17.829C13.3197 17.7436 13.1828 17.4988 12.9988 17.2489C12.9234 17.1497 12.848 17.0507 12.7724 16.9517C12.723 16.8852 12.723 16.8852 12.6727 16.8175C12.575 16.6943 12.4707 16.5854 12.3574 16.4766ZM17.1402 19.2114C17.085 19.2538 17.0298 19.2961 16.973 19.3398C16.915 19.3846 16.857 19.4294 16.7972 19.4756C16.7098 19.5428 16.7098 19.5428 16.6207 19.6114C16.4762 19.7225 16.3318 19.8339 16.1875 19.9453C16.3125 20.2139 16.4655 20.3804 16.6798 20.5867C16.8888 20.7908 17.0922 20.9919 17.276 21.219C17.3453 21.304 17.3453 21.304 17.416 21.3906C17.4399 21.3906 17.4637 21.3906 17.4883 21.3906C17.4883 20.6037 17.4883 19.8167 17.4883 19.0059C17.3515 19.0059 17.2439 19.1315 17.1402 19.2114Z" fill="#CFB17B"/>
<path d="M31.0742 10.5508C32.3695 11.5927 33.2173 13.0542 33.4361 14.708C33.5888 16.3838 33.2222 18.0206 32.1762 19.3717C31.063 20.6992 29.661 21.5783 27.9171 21.8062C27.8133 21.8141 27.7094 21.82 27.6054 21.8242C27.5406 21.8271 27.4758 21.83 27.409 21.833C25.7611 21.8698 24.2127 21.3361 22.9804 20.2344C22.9203 20.181 22.8601 20.1276 22.7981 20.0726C21.6614 19.0041 20.9525 17.4679 20.8701 15.91C20.8362 14.1368 21.3642 12.444 22.5983 11.1394C24.871 8.84444 28.5099 8.59967 31.0742 10.5508ZM27.4609 9.90039C27.4909 9.95247 27.5209 10.0045 27.5518 10.0582C27.8345 10.5508 28.1137 11.0452 28.3901 11.5413C28.8525 12.3706 29.3246 13.1934 29.8047 14.0125C30.0736 14.4712 30.3392 14.9318 30.6045 15.3926C31.119 16.2859 31.6378 17.1766 32.1582 18.0664C32.7348 17.4898 32.8104 16.2965 32.8357 15.5281C32.8103 14.1504 32.3386 12.8944 31.4355 11.8516C31.3924 11.7943 31.3493 11.737 31.3048 11.678C30.4503 10.665 29.111 10.0474 27.8087 9.92298C27.6928 9.91471 27.5769 9.9069 27.4609 9.90039ZM23.4863 11.2734C23.4148 11.3256 23.3432 11.3778 23.2695 11.4315C22.1821 12.3627 21.6301 13.8561 21.5106 15.2441C21.4844 16.2452 21.7237 17.1535 22.1133 18.0664C22.3292 17.8657 22.4753 17.6733 22.6163 17.4149C22.6558 17.3433 22.6953 17.2717 22.7359 17.1979C22.7988 17.0823 22.7988 17.0823 22.863 16.9644C22.954 16.7995 23.0451 16.6348 23.1363 16.4701C23.1594 16.4282 23.1826 16.3863 23.2065 16.3431C23.435 15.9307 23.6721 15.5236 23.9109 15.1171C24.3024 14.4495 24.6886 13.779 25.0718 13.1066C25.3428 12.631 25.6144 12.1559 25.8886 11.6822C25.9259 11.6177 25.9259 11.6177 25.9639 11.5519C26.0826 11.3469 26.2013 11.142 26.3203 10.9373C26.518 10.596 26.7132 10.2566 26.8828 9.90039C25.655 9.84317 24.3899 10.4911 23.4863 11.2734ZM27.0996 10.7676C27.0723 10.8166 27.0451 10.8657 27.017 10.9162C26.0396 12.6743 26.0396 12.6743 25.6174 13.3517C25.4791 13.5614 25.4791 13.5614 25.4375 13.8027C25.4942 13.7879 25.5509 13.7731 25.6094 13.7579C26.6742 13.4848 27.4752 13.4784 28.5449 13.7305C28.6652 13.7551 28.7856 13.7794 28.9062 13.8027C28.8098 13.548 28.6972 13.3147 28.5624 13.0781C28.5234 13.0094 28.4844 12.9406 28.4442 12.8698C28.3822 12.7615 28.3822 12.7615 28.3191 12.651C28.2771 12.5772 28.2351 12.5033 28.1918 12.4273C28.0689 12.2111 27.9456 11.9952 27.8222 11.7793C27.7587 11.6679 27.6952 11.5565 27.6317 11.4451C27.5028 11.2191 27.3736 10.9933 27.2441 10.7676C27.1964 10.7676 27.1487 10.7676 27.0996 10.7676ZM24.5025 15.3248C24.3423 15.5137 24.3423 15.5137 24.3445 15.6816C24.7255 16.3591 25.4358 16.8083 26.1601 17.0547C27.0757 17.3047 27.9562 17.2248 28.8114 16.7972C29.2686 16.53 29.8181 16.1256 29.9902 15.6094C29.3245 14.8131 28.6828 14.3496 27.6642 14.1099C26.4404 14.0011 25.3364 14.4183 24.5025 15.3248ZM23.9199 16.332C23.8098 16.4828 23.8098 16.4828 23.7003 16.6773C23.6374 16.7844 23.6374 16.7844 23.5732 16.8936C23.5296 16.9691 23.4861 17.0447 23.4411 17.1224C23.397 17.1977 23.3528 17.2729 23.3073 17.3504C23.0926 17.6552 23.0926 17.6552 22.9804 17.9941C25.7468 17.9941 28.5131 17.9941 31.3633 17.9941C31.0131 17.3507 31.0131 17.3507 30.6496 16.7159C30.5851 16.606 30.5851 16.606 30.5192 16.4938C30.4877 16.4404 30.4562 16.387 30.4238 16.332C30.1985 16.4362 30.0613 16.5518 29.8889 16.7301C29.0992 17.4676 28.0831 17.8241 27.0073 17.7951C25.9722 17.7016 25.047 17.3332 24.2812 16.6211C24.2426 16.5684 24.2039 16.5156 24.1641 16.4613C24.1312 16.4187 24.0983 16.376 24.0644 16.332C24.0167 16.332 23.969 16.332 23.9199 16.332ZM22.5468 18.6445C22.7198 18.9904 22.9329 19.2325 23.1972 19.5117C23.247 19.5643 23.2967 19.6168 23.348 19.6709C24.3733 20.6718 25.7589 21.1417 27.1718 21.1919C28.743 21.1723 30.1098 20.5374 31.2187 19.4395C31.6103 19.0911 31.6103 19.0911 31.7968 18.6445C28.7443 18.6445 25.6918 18.6445 22.5468 18.6445Z" fill="#CFB17B"/>
<path d="M20.4261 1.8422C20.4863 1.84175 20.5466 1.8413 20.6087 1.84083C20.8093 1.83968 21.0099 1.84059 21.2105 1.8415C21.3549 1.84111 21.4993 1.84059 21.6437 1.83997C22.0349 1.83865 22.426 1.83916 22.8172 1.84007C23.227 1.84081 23.6369 1.84013 24.0467 1.83967C24.7348 1.83915 25.423 1.83984 26.1112 1.84122C26.9062 1.84279 27.7012 1.84228 28.4963 1.84069C29.1795 1.83938 29.8627 1.83919 30.5459 1.83995C30.9537 1.8404 31.3615 1.84046 31.7693 1.83951C32.1527 1.83867 32.5361 1.83925 32.9195 1.84092C33.0601 1.8413 33.2006 1.84119 33.3411 1.84055C33.5333 1.83976 33.7254 1.84076 33.9176 1.8422C33.9729 1.84155 34.0282 1.84091 34.0852 1.84024C34.4789 1.84593 34.7954 1.94104 35.1211 2.16797C35.3983 2.49358 35.4524 2.81709 35.4434 3.23981C35.4434 3.29169 35.4433 3.34356 35.4432 3.397C35.4428 3.50565 35.4417 3.6143 35.4399 3.72293C35.4372 3.88961 35.4369 4.05618 35.4369 4.22288C35.4362 4.32878 35.4354 4.43469 35.4344 4.54059C35.4342 4.59042 35.4341 4.64025 35.4339 4.6916C35.4269 5.04181 35.4269 5.04181 35.2656 5.20312C35.0849 5.22119 35.0849 5.22119 34.9043 5.20312C34.6978 4.99663 34.7402 4.85083 34.7374 4.56205C34.7356 4.46141 34.7338 4.36078 34.7319 4.26014C34.7299 4.1014 34.7281 3.94266 34.7268 3.7839C34.7252 3.63074 34.7224 3.47764 34.7194 3.3245C34.7179 3.1868 34.7179 3.1868 34.7164 3.04632C34.7045 2.82754 34.7045 2.82754 34.6132 2.69746C34.3898 2.54716 34.1553 2.57151 33.8951 2.57354C33.8358 2.57315 33.7765 2.57276 33.7154 2.57236C33.516 2.57133 33.3167 2.57185 33.1173 2.57236C32.9746 2.57195 32.8319 2.57145 32.6893 2.57086C32.3012 2.56956 31.9132 2.56965 31.5251 2.57006C31.2015 2.57028 30.8779 2.56984 30.5542 2.5694C29.7909 2.56839 29.0276 2.5685 28.2643 2.56933C27.4761 2.57016 26.6879 2.56914 25.8997 2.5672C25.2236 2.5656 24.5476 2.56512 23.8715 2.56554C23.4674 2.56579 23.0633 2.56561 22.6593 2.56437C22.2793 2.56326 21.8995 2.56353 21.5195 2.5649C21.3799 2.56517 21.2403 2.56494 21.1007 2.56418C20.9105 2.56323 20.7203 2.56406 20.53 2.56534C20.4745 2.56465 20.419 2.56395 20.3618 2.56324C20.1176 2.56663 19.9699 2.58467 19.7665 2.72447C19.6338 2.92447 19.62 3.03394 19.6197 3.27283C19.6189 3.35024 19.6181 3.42766 19.6173 3.50741C19.6179 3.59196 19.6185 3.67652 19.6191 3.76363C19.6186 3.85296 19.618 3.94228 19.6175 4.03432C19.6166 4.22839 19.6162 4.42238 19.6167 4.61645C19.6175 4.92312 19.6162 5.22976 19.6147 5.53642C19.6125 6.02124 19.6117 6.50605 19.6114 6.99087C19.6109 7.85972 19.6088 8.72856 19.6052 9.5974C19.604 9.90244 19.6037 10.2075 19.6039 10.5125C19.604 10.7464 19.6031 10.9802 19.6024 11.214C19.6027 11.2989 19.603 11.3837 19.6033 11.4712C19.6027 11.5867 19.6027 11.5867 19.6021 11.7045C19.6021 11.7717 19.6021 11.8388 19.6021 11.908C19.584 12.0684 19.584 12.0684 19.4394 12.2129C19.2588 12.231 19.2588 12.231 19.0781 12.2129C18.8928 12.0276 18.9152 11.9584 18.9142 11.701C18.9133 11.5843 18.9133 11.5843 18.9124 11.4652C18.9124 11.3794 18.9125 11.2937 18.9126 11.2054C18.9121 11.1153 18.9116 11.0253 18.9111 10.9326C18.91 10.6852 18.9095 10.4377 18.9094 10.1903C18.9093 10.0356 18.909 9.88093 18.9086 9.72625C18.9073 9.18627 18.9067 8.64629 18.9068 8.10631C18.9069 7.60361 18.9053 7.10094 18.9031 6.59826C18.9012 6.16637 18.9004 5.73449 18.9005 5.3026C18.9005 5.04481 18.9001 4.78703 18.8986 4.52924C18.8969 4.24121 18.8976 3.95322 18.8985 3.66518C18.8972 3.53789 18.8972 3.53789 18.896 3.40802C18.8996 2.9393 18.9188 2.54239 19.2226 2.16797C19.6039 1.89801 19.9691 1.83687 20.4261 1.8422Z" fill="#CFB17B"/>
<path d="M35.085 9.23193C35.2656 9.25 35.2656 9.25 35.4102 9.39453C35.4284 9.53339 35.4284 9.53339 35.4285 9.7068C35.429 9.77277 35.4294 9.83874 35.4298 9.90672C35.4296 9.97967 35.4293 10.0526 35.429 10.1278C35.4293 10.2049 35.4295 10.2821 35.4298 10.3615C35.4306 10.6217 35.4303 10.8819 35.43 11.1421C35.4303 11.328 35.4307 11.5138 35.4311 11.6997C35.432 12.1532 35.4322 12.6067 35.432 13.0602C35.4319 13.4288 35.432 13.7974 35.4323 14.1661C35.4324 14.2447 35.4324 14.2447 35.4324 14.3249C35.4325 14.4313 35.4326 14.5378 35.4327 14.6442C35.4335 15.6434 35.4333 16.6427 35.4329 17.6419C35.4325 18.5561 35.4333 19.4704 35.4347 20.3846C35.4361 21.3229 35.4367 22.2612 35.4364 23.1994C35.4363 23.7264 35.4365 24.2533 35.4375 24.7803C35.4384 25.2759 35.4383 25.7715 35.4373 26.2672C35.4372 26.4492 35.4373 26.6313 35.4379 26.8134C35.4387 27.0617 35.4381 27.3099 35.4372 27.5582C35.4377 27.6305 35.4383 27.7028 35.4388 27.7773C35.4349 28.2814 35.3578 28.5935 34.9946 28.965C34.73 29.1431 34.5725 29.2012 34.2539 29.1953C34.0778 29.0553 34.0778 29.0553 33.9648 28.9063C34.0055 28.7391 34.0055 28.7391 34.1094 28.5449C34.3668 28.4185 34.3668 28.4185 34.6152 28.3281C34.7276 28.2158 34.6968 28.1092 34.6971 27.9528C34.6974 27.8871 34.6977 27.8213 34.698 27.7535C34.698 27.6805 34.698 27.6074 34.698 27.5321C34.6982 27.4551 34.6985 27.3781 34.6987 27.2988C34.6995 27.0387 34.6998 26.7786 34.7 26.5185C34.7005 26.3329 34.701 26.1473 34.7015 25.9617C34.7026 25.561 34.7034 25.1603 34.7041 24.7596C34.7051 24.1801 34.7066 23.6005 34.7083 23.021C34.7111 22.0806 34.7136 21.1403 34.7159 20.1999C34.716 20.1436 34.7162 20.0873 34.7163 20.0292C34.7182 19.2297 34.72 18.4301 34.7216 17.6305C34.7217 17.5742 34.7218 17.5179 34.722 17.4599C34.7221 17.4037 34.7222 17.3474 34.7223 17.2895C34.7242 16.3528 34.7267 15.4162 34.7297 14.4795C34.7315 13.9012 34.7328 13.3229 34.7335 12.7447C34.7341 12.3019 34.7354 11.8592 34.7371 11.4164C34.7376 11.2344 34.7379 11.0523 34.7379 10.8702C34.738 10.6226 34.7389 10.3751 34.7401 10.1275C34.7399 10.0546 34.7397 9.98164 34.7396 9.90651C34.74 9.84057 34.7405 9.77462 34.7411 9.70668C34.7412 9.62087 34.7412 9.62087 34.7414 9.53334C34.7718 9.30377 34.8631 9.25412 35.085 9.23193Z" fill="#CFB17B"/>
<path d="M19.0059 15.8984C19.1744 15.8954 19.3431 15.8955 19.5117 15.8984C19.6467 16.0335 19.5939 16.2616 19.5944 16.4416C19.5947 16.4914 19.595 16.5411 19.5952 16.5924C19.596 16.7605 19.5963 16.9285 19.5965 17.0966C19.597 17.2166 19.5975 17.3365 19.598 17.4565C19.5991 17.7155 19.5999 17.9745 19.6006 18.2335C19.6017 18.6428 19.6034 19.052 19.6053 19.4613C19.6104 20.6253 19.6147 21.7893 19.6184 22.9533C19.6205 23.5957 19.623 24.2381 19.6261 24.8805C19.6281 25.2876 19.6294 25.6946 19.6302 26.1017C19.6309 26.3548 19.6321 26.6079 19.6335 26.8609C19.6341 26.9785 19.6344 27.0961 19.6344 27.2137C19.6345 27.374 19.6354 27.5341 19.6366 27.6944C19.6371 27.829 19.6371 27.829 19.6375 27.9664C19.6398 28.1966 19.6398 28.1966 19.8008 28.4004C20.0256 28.4753 20.1979 28.4871 20.4339 28.4955C20.5148 28.4985 20.5956 28.5016 20.6788 28.5047C20.7632 28.5075 20.8475 28.5104 20.9344 28.5133C21.0196 28.5164 21.1048 28.5195 21.1926 28.5228C21.4031 28.5304 21.6137 28.5378 21.8242 28.5449C21.8719 28.6642 21.9196 28.7834 21.9687 28.9062C21.8747 29.0488 21.8747 29.0488 21.6797 29.1953C21.41 29.2389 21.1437 29.2323 20.8712 29.2269C20.7987 29.2274 20.7262 29.228 20.6515 29.2285C20.1727 29.2244 19.6284 29.2067 19.25 28.8762C18.9547 28.5368 18.9245 28.2724 18.9244 27.8366C18.9243 27.7864 18.9242 27.7361 18.9241 27.6844C18.9238 27.5156 18.924 27.3468 18.9242 27.1781C18.9241 27.0572 18.924 26.9364 18.9239 26.8156C18.9235 26.4871 18.9237 26.1586 18.9239 25.8302C18.9241 25.4869 18.9239 25.1436 18.9238 24.8003C18.9237 24.2239 18.9238 23.6474 18.9242 23.0709C18.9246 22.4037 18.9244 21.7366 18.924 21.0694C18.9237 20.4972 18.9237 19.925 18.9239 19.3529C18.924 19.0108 18.924 18.6688 18.9237 18.3268C18.9235 18.0054 18.9237 17.6839 18.9241 17.3625C18.9242 17.2443 18.9242 17.1261 18.924 17.0078C18.9238 16.847 18.9241 16.6861 18.9244 16.5253C18.9245 16.39 18.9245 16.39 18.9245 16.252C18.9336 16.043 18.9336 16.043 19.0059 15.8984Z" fill="#CFB17B"/>
<path d="M23.4141 28.5449C26.4427 28.5449 29.4714 28.5449 32.5918 28.5449C32.6641 28.9785 32.6641 28.9785 32.5918 29.123C32.3784 29.1942 32.2408 29.2044 32.0184 29.2045C31.9081 29.2048 31.9081 29.2048 31.7955 29.2051C31.7149 29.205 31.6342 29.2048 31.5511 29.2047C31.4662 29.2048 31.3812 29.2049 31.2937 29.205C31.0606 29.2053 30.8275 29.2052 30.5945 29.205C30.3506 29.2048 30.1068 29.205 29.863 29.2051C29.4536 29.2053 29.0441 29.2051 28.6347 29.2047C28.1611 29.2043 27.6876 29.2045 27.2141 29.2049C26.8077 29.2052 26.4013 29.2052 25.9949 29.2051C25.7521 29.2049 25.5093 29.2049 25.2665 29.2052C24.9959 29.2053 24.7253 29.2051 24.4547 29.2047C24.3741 29.2048 24.2934 29.205 24.2103 29.2051C24.1368 29.2049 24.0632 29.2047 23.9874 29.2045C23.9234 29.2045 23.8594 29.2044 23.7935 29.2044C23.6309 29.1953 23.6309 29.1953 23.4141 29.123C23.3328 28.7075 23.3328 28.7075 23.4141 28.5449Z" fill="#CFB17B"/>
<path d="M27.6055 14.4531C27.9292 14.6092 28.1245 14.8094 28.3282 15.1035C28.4526 15.4769 28.4478 15.8338 28.3191 16.2056C28.1304 16.4824 27.9088 16.6862 27.6055 16.8379C27.204 16.8746 26.8526 16.893 26.4854 16.7159C26.2007 16.4526 25.9684 16.2233 25.9287 15.8225C25.9211 15.4541 25.9462 15.2006 26.1602 14.8867C26.6146 14.4396 26.9817 14.3943 27.6055 14.4531ZM26.6977 15.2526C26.5623 15.5293 26.5844 15.6768 26.666 15.9707C26.7369 16.1199 26.7369 16.1199 26.8828 16.1875C27.2003 16.2345 27.3388 16.2218 27.6055 16.0385C27.7746 15.8329 27.7746 15.8329 27.75 15.5642C27.6772 15.2743 27.6772 15.2743 27.461 15.1035C27.0435 15.047 27.0435 15.047 26.6977 15.2526Z" fill="#CFB17B"/>
<path d="M30.8213 6.48132C30.9107 6.4925 30.9107 6.4925 31.002 6.50391C31.1465 6.7207 31.1465 6.7207 31.1294 6.88932C31.0235 7.25915 30.8662 7.60857 30.7174 7.96277C30.6845 8.04265 30.6515 8.12253 30.6176 8.20483C30.5858 8.28098 30.554 8.35714 30.5212 8.4356C30.4922 8.5052 30.4631 8.57481 30.4332 8.64652C30.3516 8.81641 30.3516 8.81641 30.207 8.96094C30.0264 8.979 30.0264 8.979 29.8457 8.96094C29.798 8.91324 29.7503 8.86555 29.7012 8.81641C29.7125 8.32408 29.9324 7.90009 30.1302 7.45691C30.1632 7.38113 30.1961 7.30535 30.23 7.22727C30.5432 6.51608 30.5432 6.51608 30.8213 6.48132Z" fill="#CFB17B"/>
<path d="M23.6038 6.49487C23.6604 6.49785 23.717 6.50083 23.7754 6.50391C24.0232 6.97573 24.2512 7.45159 24.4529 7.9447C24.4719 7.98993 24.4908 8.03517 24.5104 8.08177C24.6114 8.33403 24.6786 8.54432 24.6426 8.81641C24.4981 8.96094 24.4981 8.96094 24.3219 8.99255C24.2608 8.98212 24.1997 8.97169 24.1367 8.96094C23.8919 8.60519 23.7443 8.2022 23.5812 7.80469C23.5361 7.69793 23.5361 7.69793 23.4902 7.58902C23.4618 7.52009 23.4334 7.45115 23.4042 7.38013C23.3783 7.31771 23.3525 7.2553 23.3258 7.19099C23.2655 6.99672 23.2484 6.85054 23.2695 6.64844C23.4141 6.50391 23.4141 6.50391 23.6038 6.49487Z" fill="#CFB17B"/>
<path d="M21.9921 20.468C22.056 20.4863 22.1198 20.5046 22.1855 20.5234C22.2787 20.846 22.2787 20.846 22.1898 21.0109C22.1318 21.0715 22.1318 21.0715 22.0726 21.1332C22.0264 21.1815 21.9802 21.2299 21.9326 21.2797C21.873 21.3401 21.8134 21.4006 21.7519 21.4629C21.6705 21.5502 21.5893 21.6376 21.508 21.7251C21.4193 21.8185 21.3305 21.9117 21.2416 22.0049C21.199 22.0508 21.1564 22.0968 21.1125 22.1442C20.7975 22.4666 20.7975 22.4666 20.4966 22.5085C20.3066 22.4746 20.3066 22.4746 20.2344 22.4023C20.2009 22.1305 20.208 22.0066 20.3668 21.7791C20.7402 21.3998 20.7402 21.3998 20.8589 21.2837C20.9659 21.1785 21.0701 21.071 21.1744 20.9631C21.275 20.863 21.275 20.863 21.3776 20.7608C21.4389 20.6996 21.5002 20.6384 21.5634 20.5754C21.7519 20.4512 21.7519 20.4512 21.9921 20.468Z" fill="#CFB17B"/>
<path d="M30.067 22.1088C30.1721 22.111 30.1721 22.111 30.2793 22.1133C30.4054 22.3821 30.5302 22.6514 30.6532 22.9217C30.7092 23.0447 30.7657 23.1676 30.8221 23.2904C30.9957 23.6833 31.1318 23.9939 31.0742 24.4258C31.0019 24.498 31.0019 24.498 30.7942 24.5251C30.7197 24.5162 30.6451 24.5073 30.5683 24.498C30.3203 24.1458 30.1726 23.7377 30.0083 23.3418C29.9776 23.2706 29.947 23.1995 29.9154 23.1261C29.8868 23.0572 29.8582 22.9883 29.8288 22.9172C29.8025 22.8548 29.7763 22.7924 29.7492 22.7281C29.6936 22.5185 29.7116 22.3917 29.7734 22.1855C29.8457 22.1133 29.8457 22.1133 30.067 22.1088Z" fill="#CFB17B"/>
<path d="M32.3027 20.4512C32.8024 20.5043 33.0714 20.8832 33.4093 21.2235C33.5103 21.321 33.5103 21.321 33.6133 21.4204C33.6768 21.4839 33.7404 21.5474 33.8059 21.6128C33.8933 21.6995 33.8933 21.6995 33.9824 21.788C34.1383 22.0099 34.1407 22.1367 34.1094 22.4023C34.0371 22.4746 34.0371 22.4746 33.838 22.4983C33.5398 22.4682 33.4558 22.3801 33.2476 22.1686C33.1841 22.1047 33.1206 22.0408 33.0552 21.975C32.9902 21.9073 32.9252 21.8397 32.8583 21.77C32.7919 21.7035 32.7255 21.637 32.6571 21.5685C32.1068 21.0071 32.1068 21.0071 32.0859 20.7402C32.1898 20.5776 32.1898 20.5776 32.3027 20.4512Z" fill="#CFB17B"/>
<path d="M24.3174 22.0952C24.498 22.1133 24.498 22.1133 24.6426 22.2578C24.6266 22.7333 24.4316 23.1475 24.2496 23.5812C24.2201 23.6535 24.1906 23.7258 24.1603 23.8004C23.9394 24.334 23.9394 24.334 23.7754 24.498C23.5541 24.5116 23.5541 24.5116 23.3418 24.498C23.2695 24.4258 23.2695 24.4258 23.2554 24.2305C23.2704 23.9778 23.3244 23.8078 23.4225 23.5755C23.4545 23.4993 23.4864 23.4231 23.5193 23.3446C23.5532 23.2662 23.587 23.1877 23.6218 23.1069C23.6551 23.0274 23.6883 22.9478 23.7226 22.8659C24.0373 22.1232 24.0373 22.1232 24.3174 22.0952Z" fill="#CFB17B"/>
<path d="M20.4512 8.52734C20.752 8.60405 20.9288 8.76032 21.1456 8.97618C21.2061 9.03636 21.2665 9.09654 21.3288 9.15854C21.3909 9.22151 21.4531 9.28448 21.5171 9.34937C21.5804 9.41178 21.6436 9.47419 21.7088 9.5385C21.7689 9.59886 21.8289 9.65923 21.8908 9.72142C21.9731 9.80405 21.9731 9.80405 22.057 9.88836C22.1864 10.046 22.2451 10.1314 22.2578 10.334C22.2101 10.4055 22.1624 10.4771 22.1133 10.5508C21.8455 10.5934 21.7225 10.5804 21.4978 10.425C21.4395 10.3672 21.3812 10.3094 21.3212 10.2499C21.2574 10.1866 21.1936 10.1234 21.1278 10.0582C21.0625 9.99121 20.9972 9.92423 20.9299 9.85522C20.863 9.78992 20.796 9.72462 20.727 9.65734C20.6637 9.59353 20.6005 9.52972 20.5353 9.46397C20.4775 9.40569 20.4197 9.34741 20.3602 9.28737C20.2048 9.06266 20.1918 8.9397 20.2344 8.67188C20.3059 8.62418 20.3775 8.57648 20.4512 8.52734Z" fill="#CFB17B"/>
<path d="M34.0371 8.59961C34.1094 8.67188 34.1094 8.67188 34.1327 8.87079C34.1032 9.16769 34.0166 9.2541 33.8085 9.46398C33.7452 9.52779 33.682 9.5916 33.6168 9.65734C33.5498 9.72265 33.4828 9.78795 33.4138 9.85523C33.3485 9.92221 33.2832 9.98918 33.2159 10.0582C33.1521 10.1214 33.0883 10.1847 33.0226 10.2499C32.9643 10.3077 32.906 10.3654 32.846 10.425C32.6234 10.5789 32.4957 10.5819 32.2305 10.5508C32.1582 10.4785 32.1582 10.4785 32.1349 10.2796C32.1644 9.98271 32.251 9.8963 32.4591 9.68642C32.5224 9.62261 32.5856 9.5588 32.6508 9.49305C32.7513 9.3951 32.7513 9.3951 32.8538 9.29517C32.9191 9.22819 32.9844 9.16121 33.0517 9.0922C33.1474 8.99733 33.1474 8.99733 33.245 8.90053C33.3324 8.81385 33.3324 8.81385 33.4216 8.72541C33.6442 8.57149 33.7719 8.56851 34.0371 8.59961Z" fill="#CFB17B"/>
<path d="M27.0996 5.78125C27.2938 5.84448 27.2938 5.84448 27.4609 5.92578C27.4627 6.26409 27.464 6.60239 27.4649 6.94069C27.4653 7.05587 27.4658 7.17104 27.4664 7.28621C27.4672 7.45142 27.4677 7.61662 27.468 7.78182C27.4684 7.83361 27.4687 7.8854 27.4691 7.93876C27.4691 8.06272 27.4654 8.18667 27.4609 8.31055C27.3887 8.38281 27.3887 8.38281 27.1719 8.39185C26.9551 8.38281 26.9551 8.38281 26.8828 8.31055C26.8737 8.13531 26.8692 7.96224 26.8681 7.7869C26.8677 7.73442 26.8673 7.68193 26.8669 7.62785C26.8662 7.51662 26.8657 7.40539 26.8654 7.29415C26.8647 7.12363 26.8625 6.95317 26.8602 6.78267C26.8597 6.67478 26.8594 6.5669 26.8591 6.45902C26.8582 6.40783 26.8573 6.35664 26.8564 6.3039C26.857 6.15996 26.857 6.15996 26.8828 5.92578C26.9543 5.87809 27.0259 5.83039 27.0996 5.78125Z" fill="#CFB17B"/>
<path d="M8.38281 7.1543C8.43051 7.20199 8.4782 7.24969 8.52734 7.29883C8.50024 7.52466 8.50024 7.52466 8.45508 7.73242C8.17403 7.8317 7.89233 7.92903 7.61047 8.026C7.53078 8.05418 7.45109 8.08236 7.36898 8.11139C7.29189 8.13771 7.21481 8.16402 7.13538 8.19114C7.02923 8.22804 7.02923 8.22804 6.92093 8.26568C6.70506 8.31405 6.57043 8.29774 6.35938 8.23828C6.33553 8.09519 6.31168 7.95211 6.28711 7.80469C6.56482 7.54923 6.9011 7.46637 7.25366 7.35754C7.31421 7.33784 7.37476 7.31814 7.43715 7.29784C7.75749 7.19735 8.0433 7.11383 8.38281 7.1543Z" fill="#CFB17B"/>
<path d="M27.1719 22.6824C27.3886 22.6914 27.3886 22.6914 27.4609 22.7637C27.4682 22.9398 27.471 23.1137 27.4705 23.2899C27.4706 23.3425 27.4707 23.3952 27.4707 23.4494C27.4708 23.561 27.4706 23.6725 27.4703 23.784C27.4699 23.9553 27.4703 24.1266 27.4708 24.2979C27.4707 24.406 27.4707 24.5141 27.4705 24.6223C27.4707 24.6738 27.4708 24.7254 27.471 24.7785C27.4692 25.1401 27.4692 25.1401 27.3886 25.2207C27.1719 25.2297 27.1719 25.2297 26.9551 25.2207C26.8318 25.0975 26.8735 24.9428 26.8727 24.7785C26.8729 24.7269 26.873 24.6754 26.8732 24.6223C26.8731 24.5696 26.8731 24.5169 26.873 24.4627C26.8729 24.3511 26.8731 24.2396 26.8734 24.1281C26.8738 23.9568 26.8734 23.7855 26.8729 23.6142C26.873 23.5061 26.8731 23.398 26.8732 23.2899C26.873 23.2383 26.8729 23.1867 26.8727 23.1336C26.8749 22.6947 26.8749 22.6947 27.1719 22.6824Z" fill="#CFB17B"/>
<path d="M34.832 6.50391C34.999 6.50391 35.1659 6.50391 35.3379 6.50391C35.4786 6.78525 35.4267 7.13391 35.4282 7.44336C35.4297 7.51732 35.4312 7.59129 35.4327 7.6675C35.4331 7.73811 35.4335 7.80872 35.4339 7.88147C35.4349 7.97886 35.4349 7.97886 35.4359 8.07822C35.4274 8.13104 35.4189 8.18386 35.4101 8.23828C35.1934 8.38281 35.1934 8.38281 35.0037 8.36023C34.832 8.31055 34.832 8.31055 34.7598 8.23828C34.7526 8.12187 34.7503 8.00516 34.7502 7.88853C34.7501 7.81768 34.75 7.74684 34.7499 7.67385C34.7502 7.59928 34.7504 7.52471 34.7507 7.44788C34.7504 7.37358 34.7502 7.29929 34.7499 7.22275C34.75 7.15181 34.7501 7.08088 34.7502 7.00779C34.7502 6.9424 34.7503 6.87701 34.7504 6.80964C34.7598 6.64844 34.7598 6.64844 34.832 6.50391Z" fill="#CFB17B"/>
</g>
<defs>
<clipPath id="clip0_173_273">
<rect width="37" height="37" fill="white"/>
</clipPath>
</defs>
</svg>
