<svg width="37" height="36" viewBox="0 0 37 36" fill="none" xmlns="http://www.w3.org/2000/svg">
<path d="M24.1635 28.8085L24.1635 28.8083C24.1073 28.529 24.2857 28.2543 24.5675 28.1976C28.2383 27.4492 31.1179 24.5245 31.9 20.7442L31.9001 20.7439L32.2799 18.9251L32.2799 18.9251L32.4893 17.9227C33.3113 13.9879 34.1336 10.0524 34.9577 6.1187C31.0676 6.51246 27.1802 6.17949 23.3951 5.12664M24.1635 28.8085L34.99 5.96463C31.1027 6.36403 27.2179 6.03427 23.4353 4.98213C23.2654 4.93495 23.0944 4.88541 22.927 4.83587C20.6279 4.15377 18.4146 3.20853 16.3359 2.02336L16.3036 2.1776M24.1635 28.8085C24.2132 29.0538 24.4274 29.2236 24.6691 29.2236C24.7032 29.2236 24.7354 29.2204 24.7648 29.2163L24.7649 29.2167M24.1635 28.8085L24.7649 29.2167M23.3951 5.12664L23.4353 4.98222L23.3952 5.12666C23.3951 5.12665 23.3951 5.12665 23.3951 5.12664ZM23.3951 5.12664C23.2242 5.07918 23.0524 5.0294 22.8844 4.97971L22.8843 4.97967C20.5897 4.29889 18.3802 3.35725 16.3036 2.1776M16.3036 2.1776C16.2579 2.15164 16.2123 2.12557 16.1667 2.09938L15.0018 7.67258M16.3036 2.1776L15.1487 7.703L15.0018 7.67258M15.0018 7.67258L15.1486 7.70327L15.1486 7.70317M15.0018 7.67258C14.9605 7.87192 14.7659 8.00049 14.5677 7.95685C14.3696 7.91439 14.2434 7.71977 14.2847 7.52044L15.1486 7.70317M15.1486 7.70317C15.0907 7.98238 14.8172 8.16513 14.5359 8.10344M15.1486 7.70317L14.5359 8.10344M14.5359 8.10344C14.2567 8.04339 14.08 7.7693 14.1378 7.49002L14.1379 7.48974L15.44 1.26192L15.4401 1.26149C15.4748 1.09819 15.5841 0.961848 15.7369 0.893757L15.7382 0.893201L15.7382 0.893207C15.8905 0.826986 16.0653 0.836803 16.2099 0.92325L16.2101 0.923356C18.3907 2.2308 20.7357 3.26129 23.177 3.98547C23.3406 4.03374 23.506 4.08182 23.6711 4.12749L23.6713 4.12754C27.5588 5.20857 31.5539 5.50433 35.5481 5.00901L35.5487 5.00894C35.714 4.98911 35.8792 5.04874 35.9926 5.17389C36.1053 5.29703 36.1513 5.4675 36.1168 5.63092C35.3157 9.45808 34.5154 13.2861 33.7152 17.1135C33.5741 17.7886 33.433 18.4636 33.2919 19.1386C33.2919 19.1386 33.2919 19.1386 33.2919 19.1386L32.9121 20.9571L14.5359 8.10344ZM24.7649 29.2167L24.7745 29.2147M24.7649 29.2167L24.7745 29.2147M24.7745 29.2147C28.8539 28.3826 32.0475 25.1399 32.9121 20.9574L24.7745 29.2147ZM32.0469 20.7746L32.4267 18.9558L24.3105 28.7787C24.2704 28.5794 24.3978 28.3848 24.5971 28.3447C28.3291 27.5839 31.2531 24.6115 32.0469 20.7746Z" fill="#CFB17B" stroke="#CFB278" stroke-width="0.3"/>
<path d="M6.17959 32.7742L6.17961 32.7742C8.03941 34.2977 10.32 35.107 12.6994 35.107C13.0864 35.107 13.4781 35.0856 13.8696 35.0427C16.6723 34.816 19.2034 33.5054 20.9958 31.3541L20.9958 31.3541C22.8174 29.1663 23.6639 26.3615 23.383 23.4612L21.9051 7.87279C21.9051 7.87267 21.9051 7.87256 21.9051 7.87244C21.8901 7.70469 21.7951 7.55683 21.6511 7.47243L21.6511 7.47243L21.65 7.47178C21.5066 7.38939 21.3305 7.3786 21.1778 7.44897C15.0418 10.2398 8.05693 10.9088 1.50795 9.33378L1.50715 9.33359C1.34489 9.29551 1.17518 9.33697 1.04898 9.44657L1.04898 9.44656L1.04824 9.44721C0.923373 9.5571 0.859238 9.72092 0.874079 9.88584L0.874147 9.88655L2.35205 25.4758C2.62103 28.3796 3.97971 30.9717 6.17959 32.7742ZM3.37973 25.3786L3.3797 25.3782L1.96953 10.5018C8.30212 11.8704 14.9843 11.2298 20.9453 8.68226L22.3554 23.5594L22.3554 23.5598C22.61 26.1868 21.8452 28.7169 20.2038 30.688L20.2038 30.688C18.5898 32.6269 16.3106 33.8059 13.783 34.0087C13.7762 34.0091 13.7704 34.0097 13.7667 34.0102L13.7632 34.0106C11.2424 34.2928 8.78106 33.5673 6.83213 31.9701L6.8321 31.9701C4.84951 30.3462 3.62267 28.0067 3.37973 25.3786Z" fill="#CFB17B" stroke="#CFB278" stroke-width="0.3"/>
<path d="M13.0424 26.3211L13.0425 26.3211C14.3353 26.1975 15.5487 25.8702 16.5529 25.378L13.0424 26.3211ZM13.0424 26.3211C11.7497 26.4458 10.4956 26.3556 9.41754 26.0627C9.2237 26.0093 9.01763 26.0747 8.88844 26.2271C8.75897 26.3798 8.72909 26.5938 8.81189 26.7763C9.63492 28.5988 11.2385 29.739 12.9825 29.739C13.11 29.739 13.2375 29.7329 13.3649 29.7206C15.2521 29.54 16.7822 28.0534 17.2814 25.9655C17.3293 25.7696 17.2593 25.5655 17.1037 25.4396L17.1037 25.4396M13.0424 26.3211L17.1037 25.4396M17.1037 25.4396L17.1029 25.439M17.1037 25.4396L17.1029 25.439M17.1029 25.439C16.9474 25.315 16.7333 25.2895 16.5529 25.3779L17.1029 25.439ZM15.8949 26.7688C15.3299 27.8696 14.368 28.5842 13.2678 28.6895C12.1663 28.7949 11.0873 28.2759 10.3262 27.3021C11.2179 27.4273 12.1717 27.4457 13.1419 27.3522C14.1094 27.2597 15.0431 27.0617 15.8949 26.7688Z" fill="#CFB17B" stroke="#CFB278" stroke-width="0.3"/>
<path d="M5.87263 21.7516L5.87263 21.7516C5.59792 21.6733 5.43929 21.3874 5.51688 21.1115L5.87263 21.7516ZM5.87263 21.7516L5.87384 21.7519M5.87263 21.7516L5.87384 21.7519M5.87384 21.7519C5.91982 21.7646 5.96626 21.7715 6.01397 21.7715C6.23855 21.7715 6.44675 21.6223 6.50888 21.3924C6.73069 20.6075 7.42336 20.0274 8.23281 19.9496L8.23299 19.9496C9.04369 19.8707 9.8328 20.3095 10.1968 21.0386L10.1968 21.0386M5.87384 21.7519L10.1968 21.0386M10.1968 21.0386C10.3247 21.2943 10.6355 21.3977 10.8903 21.2695C11.1451 21.1412 11.2473 20.8293 11.1198 20.5742C10.5579 19.4493 9.38448 18.7957 8.13565 18.9173M10.1968 21.0386L8.13565 18.9173M8.13565 18.9173C6.90368 19.0354 5.85203 19.9174 5.51689 21.1114L8.13565 18.9173Z" fill="#CFB17B" stroke="#CFB278" stroke-width="0.3"/>
<path d="M14.207 20.953L14.207 20.953C13.9323 20.8748 13.7737 20.5887 13.8513 20.3128L13.8513 20.3128C14.1924 19.1012 15.2204 18.2392 16.47 18.1188L14.207 20.953ZM14.207 20.953L14.2082 20.9534M14.207 20.953L14.2082 20.9534M14.2082 20.9534C14.2542 20.9661 14.3007 20.9729 14.3484 20.9729C14.5735 20.9729 14.7813 20.8232 14.8445 20.5938L14.6999 20.554L14.8443 20.5946C15.0694 19.7954 15.7456 19.2301 16.5684 19.1511L16.5686 19.151C17.3781 19.0722 18.1672 19.5109 18.5312 20.24L18.5312 20.2401M14.2082 20.9534L18.5312 20.2401M18.5312 20.2401C18.6591 20.4958 18.9699 20.5992 19.2247 20.471C19.4795 20.3427 19.5817 20.0307 19.4542 19.7757M18.5312 20.2401L19.4542 19.7757M19.4542 19.7757C18.9005 18.6659 17.701 17.9996 16.4701 18.1188L19.4542 19.7757Z" fill="#CFB17B" stroke="#CFB278" stroke-width="0.3"/>
</svg>
