<svg width="77" height="103" viewBox="0 0 77 103" fill="none" xmlns="http://www.w3.org/2000/svg">
<path d="M8.93395 0.0392617C9.1528 0.0377793 9.37166 0.0362968 9.59715 0.0347694C10.2002 0.0308121 10.8033 0.0319522 11.4063 0.0339895C12.0585 0.0352968 12.7106 0.0318443 13.3627 0.02903C14.6386 0.0243064 15.9145 0.0240658 17.1903 0.0255101C18.2278 0.0266244 19.2653 0.0262231 20.3028 0.0247536C20.5247 0.0244446 20.5247 0.0244446 20.751 0.0241293C21.0515 0.0237077 21.352 0.0232842 21.6525 0.0228589C24.4679 0.0190837 27.2832 0.0205757 30.0986 0.0237357C32.6715 0.0264693 35.2443 0.0229079 37.8172 0.0163216C40.4622 0.00960196 43.1072 0.00696426 45.7522 0.00879383C47.2359 0.00975389 48.7196 0.00914881 50.2033 0.00432046C51.4663 0.000260925 52.7293 0.000102235 53.9924 0.00489051C54.6362 0.00722794 55.2799 0.00783733 55.9236 0.00361009C56.6231 -0.000925806 57.3224 0.00315522 58.0218 0.00801194C58.2231 0.005368 58.4244 0.00272406 58.6317 0C61.105 0.0352112 63.7034 0.879313 65.5 3.51636C67.6237 7.06628 66.9854 7.55036 66.9781 12.1646C66.979 12.7264 66.9803 13.2882 66.9817 13.85C66.9848 15.3696 66.9846 16.8891 66.9836 18.4087C66.983 19.6784 66.9841 20.9481 66.9852 22.2178C66.9876 25.2124 66.9873 28.207 66.9854 31.2015C66.9834 34.2904 66.9858 37.3791 66.9905 40.4679C66.9943 43.1223 66.9955 45.7766 66.9945 48.4309C66.9939 50.0153 66.9943 51.5996 66.9973 53.184C67 54.6725 66.9993 56.1609 66.996 57.6494C66.9954 58.1956 66.9959 58.7418 66.9977 59.2879C67 60.0335 66.998 60.7787 66.995 61.5242C66.9966 61.7403 66.9983 61.9564 67 62.179C66.9878 63.6149 66.7816 64.4204 66.2117 65.5295C65.5472 66.5283 65.0142 66.7159 64.1238 66.7682C63.2334 66.7159 62.7003 66.5283 62.0358 65.5295C61.3796 64.2412 61.2396 63.2394 61.253 61.6269C61.2516 61.2935 61.2516 61.2935 61.2501 60.9534C61.2478 60.2111 61.2505 59.4689 61.2531 58.7266C61.2524 58.1934 61.2514 57.6602 61.2502 57.127C61.2481 55.9798 61.2482 54.8326 61.2499 53.6853C61.2526 51.8703 61.2502 50.0553 61.2471 48.2402C61.2418 44.7138 61.2415 41.1875 61.2418 37.661C61.2421 33.1754 61.2403 28.6897 61.2334 24.2041C61.2308 22.4009 61.2308 20.5977 61.233 18.7945C61.2338 17.6711 61.2325 16.5477 61.2306 15.4242C61.2302 14.9046 61.2306 14.385 61.2321 13.8653C61.2339 13.1538 61.2326 12.4425 61.2305 11.731C61.2318 11.5273 61.2331 11.3236 61.2345 11.1137C61.2233 9.34207 61.0289 7.5577 60.2523 6.2267C59.0436 5.14031 57.8753 5.16689 56.5174 5.17431C56.3129 5.17325 56.1083 5.1722 55.8975 5.17112C55.3319 5.16877 54.7664 5.16889 54.2008 5.17006C53.5899 5.17074 52.9791 5.16826 52.3683 5.1662C51.1724 5.16269 49.9765 5.1622 48.7807 5.16284C47.8084 5.16333 46.8362 5.16285 45.864 5.16168C45.7255 5.16151 45.5871 5.16135 45.4444 5.16118C45.1631 5.16085 44.8818 5.16051 44.6005 5.16018C41.9634 5.15719 39.3263 5.15778 36.6891 5.15946C34.2779 5.16088 31.8667 5.15778 29.4555 5.15255C26.9782 5.14722 24.5009 5.14494 22.0237 5.14598C20.6335 5.1465 19.2432 5.14582 17.853 5.14193C16.6695 5.13865 15.4859 5.13826 14.3024 5.14159C13.6989 5.14321 13.0954 5.14352 12.4919 5.14022C11.8368 5.13734 11.1818 5.13956 10.5268 5.14306C10.2424 5.14001 10.2424 5.14001 9.95224 5.13691C8.68076 5.15116 7.42476 5.27374 6.4541 6.69122C5.76738 8.60328 5.78418 10.4516 5.78887 12.5998C5.7882 12.9234 5.78753 13.247 5.78685 13.5805C5.78537 14.4752 5.78544 15.3699 5.78618 16.2647C5.78661 17.2311 5.78504 18.1974 5.78374 19.1638C5.78152 21.0557 5.78121 22.9475 5.78162 24.8394C5.78193 26.3775 5.78162 27.9155 5.78088 29.4536C5.78078 29.6727 5.78068 29.8917 5.78057 30.1174C5.78036 30.5624 5.78015 31.0074 5.77994 31.4525C5.77805 35.6244 5.77842 39.7963 5.77948 43.9683C5.78038 47.7828 5.77842 51.5974 5.77511 55.412C5.77174 59.331 5.77031 63.2501 5.77096 67.1691C5.77129 69.3685 5.77086 71.5678 5.7684 73.7671C5.76633 75.6395 5.76608 77.5119 5.76819 79.3842C5.76921 80.339 5.76941 81.2937 5.76732 82.2485C5.7655 83.2848 5.7669 84.321 5.76911 85.3573C5.76783 85.6573 5.76655 85.9572 5.76522 86.2662C5.77424 88.2777 5.604 92.9807 6.5 94.5163C7.396 96.0519 8.75524 96.1646 9.89157 96.1534C10.1031 96.1546 10.1031 96.1546 10.3188 96.1559C10.7887 96.158 11.2586 96.1562 11.7285 96.1545C12.0664 96.1552 12.4043 96.1562 12.7422 96.1575C13.4686 96.1597 23.8958 96.154 24.6222 96.1534C25.7708 96.1526 26.9194 96.1566 28.0681 96.1614C31.3339 96.1743 34.5997 96.1809 37.8655 96.1827C39.6701 96.1837 41.4748 96.1887 43.2794 96.1979C44.4212 96.2034 45.563 96.2041 46.7049 96.2011C47.415 96.2004 48.1251 96.2042 48.8352 96.2094C49.1645 96.2108 49.4937 96.2104 49.823 96.208C50.2725 96.2049 50.7219 96.2086 51.1715 96.214C51.3016 96.2115 51.4318 96.2089 51.5659 96.2064C52.4554 96.227 52.9527 96.577 53.6407 97.4542C54.2008 98.1682 54.1677 98.1014 54.2008 99.51C53.6407 100.757 54.2008 99.51 53.6407 100.757C53.1534 101.843 52.151 102.017 51.1112 101.998C50.8904 102.001 50.8904 102.001 50.6652 102.003C50.1731 102.008 49.6811 102.004 49.1891 102.001C48.8357 102.002 48.4824 102.004 48.1291 102.007C47.1698 102.012 46.2107 102.01 45.2515 102.006C44.2465 102.004 43.2415 102.006 42.2364 102.008C40.5476 102.01 38.8587 102.007 37.1699 102.002C35.2206 101.996 33.2714 101.998 31.3221 102.004C29.6467 102.009 27.9712 102.01 26.2958 102.007C25.296 102.005 14.5954 102.011 13.5956 102.015C12.6544 102.018 11.7133 102.016 10.7721 102.009C10.4279 102.008 10.0837 102.008 9.73942 102.011C6.71103 102.03 3.78814 102.375 1.5 99.0163C-0.237448 96.112 0.0120833 91.7692 0.0248177 87.8772C0.0238806 87.5309 0.0229436 87.1847 0.0219781 86.828C0.0194767 85.8739 0.0201971 84.9199 0.021485 83.9658C0.0223113 82.9341 0.020129 81.9025 0.0183501 80.8708C0.0153643 78.8523 0.0152123 76.8339 0.0161252 74.8155C0.0168296 73.1742 0.0165755 71.5328 0.0156466 69.8915C0.0155164 69.6575 0.0153865 69.4236 0.0152523 69.1825C0.0149859 68.7071 0.014718 68.2317 0.0144492 67.7563C0.0120628 63.3024 0.013006 58.8485 0.0150034 54.3946C0.0167314 50.3243 0.0144806 46.254 0.0103173 42.1837C0.00606979 37.9993 0.00440243 33.8149 0.00555892 29.6305C0.00616578 27.2832 0.00578338 24.936 0.00273133 22.5888C0.000165266 20.5907 6.43809e-05 18.5925 0.00309109 16.5944C0.0045686 15.5759 0.00495405 14.5576 0.00228198 13.5392C-0.000585199 12.4326 0.00199444 11.3263 0.00506442 10.2198C0.00255753 9.74218 0.00255753 9.74218 0 9.25496C0.0222573 5.34212 -0.166899 5.35864 1.5 2.51636C3.33579 -0.232298 6.47375 0.0191158 8.93395 0.0392617Z" fill="#E1E1E1"/>
<path d="M64.5062 71.0989C65.2844 71.4602 65.8539 71.9747 66.1832 72.776C66.2752 73.4699 66.2613 74.1565 66.2487 74.8553C66.2478 75.0549 66.2468 75.2545 66.2459 75.4602C66.2421 76.0959 66.2337 76.7314 66.2252 77.3671C66.2218 77.7988 66.2187 78.2305 66.216 78.6622C66.2086 79.719 66.1974 80.7756 66.1832 81.8323C66.2944 81.8308 66.4057 81.8294 66.5203 81.8278C67.6792 81.813 68.8381 81.8029 69.9971 81.7955C70.4294 81.7921 70.8618 81.7875 71.2941 81.7817C71.9161 81.7736 72.5379 81.7698 73.1599 81.7668C73.3528 81.7634 73.5457 81.7599 73.7444 81.7563C74.8012 81.756 75.4464 81.7856 76.2453 82.5032C76.8538 83.1437 76.9681 83.6575 77 84.5157C76.9681 85.3739 76.8538 85.8877 76.2453 86.5282C75.3027 87.3749 74.3834 87.2865 73.1599 87.2646C72.9603 87.2636 72.7607 87.2627 72.5551 87.2617C71.9194 87.2579 71.2839 87.2495 70.6483 87.241C70.2166 87.2376 69.7849 87.2346 69.3532 87.2318C68.2965 87.2244 67.2399 87.2132 66.1832 87.1991C66.1847 87.3103 66.1862 87.4215 66.1877 87.5361C66.2026 88.6951 66.2127 89.854 66.2201 91.0131C66.2234 91.4455 66.228 91.8778 66.2338 92.3102C66.242 92.9322 66.2458 93.554 66.2487 94.1761C66.2522 94.369 66.2557 94.5619 66.2592 94.7606C66.2595 95.8174 66.23 96.4627 65.5124 97.2617C64.8719 97.8702 64.3582 97.9845 63.5 98.0164C62.6418 97.9845 62.1281 97.8702 61.4876 97.2617C60.641 96.319 60.7293 95.3997 60.7513 94.1761C60.7522 93.9765 60.7532 93.7769 60.7541 93.5712C60.7579 92.9355 60.7663 92.3 60.7748 91.6643C60.7782 91.2326 60.7813 90.8009 60.784 90.3692C60.7914 89.3124 60.8026 88.2557 60.8168 87.1991C60.6499 87.2013 60.4797 87.2036 60.4797 87.2036C60.4797 87.2036 58.1619 87.2285 57.0029 87.2359C56.5706 87.2393 56.1382 87.2439 55.7059 87.2497C55.0839 87.2578 54.4621 87.2616 53.8401 87.2646C53.5508 87.2698 53.5508 87.2698 53.2556 87.2751C52.1988 87.2754 51.5536 87.2458 50.7547 86.5282C50.1462 85.8877 50.0319 85.3739 50 84.5157C50.0319 83.6575 50.1462 83.1437 50.7547 82.5032C51.6973 81.6565 52.6166 81.7449 53.8401 81.7668C54.0397 81.7678 54.2393 81.7687 54.4449 81.7697C55.0806 81.7734 55.7161 81.7819 56.3517 81.7904C56.7834 81.7938 57.2151 81.7968 57.6468 81.7996C58.7035 81.807 59.7601 81.8182 60.8168 81.8323C60.8153 81.7211 60.8138 81.6099 60.8123 81.4953C60.7974 80.3363 60.7873 79.1774 60.7799 78.0183C60.7766 77.5859 60.772 77.1536 60.7662 76.7212C60.758 76.0992 60.7542 75.4773 60.7513 74.8553C60.7478 74.6624 60.7443 74.4695 60.7408 74.2708C60.7405 73.214 60.77 72.5687 61.4876 71.7697C62.3716 70.9299 63.3504 70.9433 64.5062 71.0989Z" fill="#E1E1E1"/>
<path d="M37.2637 36.5192C37.9334 36.9705 38.5553 37.4886 39.1833 37.9915C39.243 38.0376 39.3028 38.0837 39.3644 38.1312C39.5635 38.2919 39.5635 38.2919 39.722 38.4518C40.3224 39.0069 40.9694 38.9795 41.7527 38.9658C41.9844 38.9618 42.2158 38.9614 42.4475 38.962C42.8553 38.9623 43.263 38.9594 43.6707 38.9555C44.3246 38.9492 44.9783 38.9456 45.6322 38.9462C45.86 38.9456 46.0876 38.9423 46.3154 38.9388C46.4552 38.9384 46.5949 38.9382 46.7347 38.938C46.7976 38.9363 46.8606 38.9346 46.9255 38.9329C47.2597 38.9354 47.4139 38.9815 47.686 39.173C47.9027 39.4611 47.9221 39.5852 47.9063 39.936C47.9031 40.0382 47.8999 40.1404 47.8966 40.2457C47.8915 40.3556 47.8863 40.4655 47.881 40.5788C47.8775 40.7532 47.874 40.9276 47.8711 41.1021C47.8635 41.5307 47.852 41.959 47.8318 42.3872C47.7179 43.7086 47.7179 43.7086 48.1051 44.9253C48.4554 45.2816 48.8625 45.5203 49.3139 45.7426C49.5452 45.8601 49.7396 46.0056 49.9395 46.1669C49.9953 46.2094 50.051 46.252 50.1085 46.2958C50.1855 46.3549 50.1855 46.3549 50.2641 46.4152C50.321 46.4583 50.3779 46.5014 50.4365 46.5458C50.8402 46.8551 50.8402 46.8551 50.9413 47.0492C50.9509 47.2645 50.955 47.4773 50.9552 47.6926C50.9556 47.7597 50.956 47.8268 50.9564 47.896C50.9576 48.1221 50.9582 48.3482 50.9587 48.5743C50.9594 48.7359 50.9602 48.8976 50.961 49.0592C50.9633 49.591 50.9647 50.1228 50.966 50.6546C50.9665 50.8375 50.967 51.0204 50.9674 51.2033C50.9694 51.9638 50.9711 52.7243 50.9721 53.4849C50.9736 54.5759 50.9766 55.6669 50.9817 56.7579C50.9852 57.5244 50.987 58.291 50.9875 59.0575C50.9878 59.5156 50.9889 59.9737 50.9918 60.4319C50.9945 60.8628 50.9951 61.2937 50.994 61.7246C50.994 61.8828 50.9948 62.0411 50.9963 62.1993C50.9984 62.4152 50.9976 62.631 50.9962 62.847C50.9975 62.9097 50.9987 62.9724 51 63.037C50.9951 63.335 50.9428 63.5209 50.7865 63.779C50.3133 64.0627 49.8467 64.0156 49.2998 64.0102C49.176 64.0105 49.0522 64.011 48.9284 64.0117C48.5883 64.013 48.2482 64.0116 47.9081 64.0097C47.5413 64.0082 47.1745 64.0092 46.8077 64.0099C46.0892 64.0108 45.3707 64.0094 44.6522 64.0073C43.8158 64.0048 42.9794 64.0047 42.143 64.0047C40.651 64.0046 39.159 64.0024 37.6669 63.9991C36.2184 63.9959 34.7699 63.994 33.3213 63.9938C33.2321 63.9937 33.1429 63.9937 33.0509 63.9937C32.9619 63.9937 32.8728 63.9937 32.781 63.9937C32.6017 63.9936 32.4224 63.9936 32.243 63.9936C32.1546 63.9936 32.0662 63.9935 31.9751 63.9935C30.5956 63.9932 29.2161 63.9916 27.8367 63.9899C27.3363 63.9893 26.836 63.9889 26.3356 63.9886C25.5421 63.9882 24.7485 63.9872 23.955 63.985C23.5923 63.984 23.2296 63.9833 22.8669 63.9834C22.5351 63.9834 22.2033 63.9826 21.8715 63.9812C21.6941 63.9807 21.5167 63.981 21.3394 63.9813C21.2345 63.9807 21.1296 63.98 21.0216 63.9794C20.8856 63.9792 20.8856 63.9792 20.7468 63.9789C20.5017 63.9561 20.3546 63.9116 20.149 63.7835C20.0126 63.5216 20.045 63.2507 20.0448 62.9634C20.0444 62.8959 20.044 62.8285 20.0436 62.7589C20.0424 62.5316 20.0418 62.3043 20.0413 62.077C20.0406 61.9145 20.0398 61.752 20.039 61.5896C20.0367 61.0549 20.0353 60.5203 20.034 59.9857C20.0335 59.8018 20.033 59.618 20.0326 59.4341C20.0306 58.6696 20.0289 57.905 20.0279 57.1405C20.0264 56.0437 20.0234 54.9469 20.0183 53.8502C20.0148 53.0796 20.013 52.309 20.0125 51.5384C20.0122 51.0778 20.0111 50.6173 20.0082 50.1568C20.0055 49.7235 20.0049 49.2904 20.006 48.8572C20.006 48.6981 20.0052 48.539 20.0037 48.38C20.0016 48.1629 20.0024 47.946 20.0038 47.7289C20.0025 47.6658 20.0013 47.6028 20 47.5378C20.0055 47.2034 20.046 47.0639 20.2719 46.8036C20.3505 46.7416 20.4292 46.6796 20.5102 46.6157C20.5948 46.5439 20.6795 46.4722 20.7666 46.3982C20.8596 46.3223 20.9529 46.2467 21.0464 46.1713C21.1212 46.1107 21.1212 46.1107 21.1976 46.0488C21.6906 45.6519 22.1962 45.2708 22.7042 44.8917C22.8772 44.7629 22.8772 44.7629 23.0386 44.6215C23.0474 44.4583 23.0499 44.2949 23.05 44.1316C23.0503 44.0268 23.0507 43.9221 23.051 43.8141C23.0511 43.7 23.0512 43.5858 23.0513 43.4682C23.0524 43.2903 23.0538 43.1124 23.0552 42.9345C23.0586 42.4942 23.0614 42.0539 23.0612 41.6135C23.0611 41.3076 23.0633 41.0017 23.0668 40.6957C23.0682 40.5224 23.0673 40.3492 23.0663 40.1759C23.0678 40.0703 23.0693 39.9647 23.0708 39.8559C23.0711 39.763 23.0714 39.6701 23.0718 39.5743C23.1289 39.3324 23.1289 39.3324 23.3164 39.1283C23.6513 38.9473 23.8678 38.9466 24.2513 38.9534C24.3503 38.9543 24.3503 38.9543 24.4513 38.9553C24.5942 38.9568 24.7371 38.9591 24.8799 38.962C25.1072 38.9663 25.3342 38.968 25.5615 38.9688C26.2074 38.9714 26.8532 38.9769 27.4991 38.9888C27.8948 38.9959 28.2904 38.9983 28.6863 38.9977C28.836 38.9984 28.9858 39.0009 29.1355 39.0052C29.9749 39.0288 30.5526 38.9848 31.1988 38.4335C31.373 38.2744 31.5398 38.1107 31.7074 37.9451C31.8275 37.8485 31.9489 37.7532 32.0732 37.6616C32.1228 37.6243 32.1723 37.587 32.2234 37.5485C32.2948 37.4954 32.2948 37.4954 32.3677 37.4411C32.4205 37.4017 32.4733 37.3623 32.5278 37.3217C32.6756 37.2115 32.8236 37.1014 32.9716 36.9913C33.0414 36.9375 33.1113 36.8836 33.1832 36.8281C34.3985 35.9066 35.9136 35.723 37.2637 36.5192ZM33.4231 38.3082C33.3531 38.3638 33.2832 38.4194 33.2111 38.4767C32.9519 38.6834 32.9519 38.6834 32.7007 38.8989C32.7007 38.9275 32.7007 38.9561 32.7007 38.9856C34.5184 38.9856 36.3362 38.9856 38.209 38.9856C37.843 38.6342 37.4818 38.3244 37.0802 38.0156C36.9921 37.9462 36.9921 37.9462 36.9021 37.8755C36.4419 37.5206 36.0767 37.3141 35.4718 37.3056C35.392 37.3032 35.3123 37.3007 35.2302 37.2982C34.5046 37.4048 33.9674 37.8657 33.4231 38.3082ZM24.3931 40.2862C24.3931 43.1761 24.3931 46.066 24.3931 49.0435C25.8057 49.9934 25.8057 49.9934 27.2206 50.9401C27.3962 51.0573 27.5717 51.1745 27.7473 51.2917C27.8346 51.35 27.922 51.4083 28.012 51.4684C28.36 51.7007 28.708 51.9331 29.0558 52.1656C29.2272 52.28 29.3987 52.3942 29.5704 52.5082C30.0272 52.8119 30.4801 53.1196 30.9293 53.4336C31.0236 53.4988 31.118 53.5639 31.2152 53.6311C31.3969 53.7567 31.5776 53.8835 31.7573 54.0118C31.8796 54.0958 31.8796 54.0958 32.0044 54.1815C32.1115 54.2568 32.1115 54.2568 32.2208 54.3336C32.4313 54.4444 32.4313 54.4444 32.6686 54.3562C32.9006 54.2358 33.105 54.0998 33.3159 53.9478C34.0884 53.4176 34.9148 53.2149 35.8612 53.292C36.509 53.3993 37.0075 53.6103 37.542 53.9762C37.8398 54.1091 37.9864 54.0762 38.2993 53.9857C38.5113 53.8672 38.7045 53.7479 38.9032 53.6118C39.024 53.5318 39.145 53.452 39.2661 53.3723C39.3295 53.3305 39.3929 53.2886 39.4583 53.2455C39.7856 53.0331 40.1204 52.8322 40.4552 52.6309C41.319 52.1098 42.1784 51.5822 43.0372 51.0536C43.3893 50.8369 43.7417 50.6205 44.0944 50.4048C44.2491 50.3101 44.4038 50.2153 44.5585 50.1206C44.7526 50.0018 44.9467 49.883 45.141 49.7645C45.2292 49.7104 45.3174 49.6563 45.4083 49.6006C45.4852 49.5536 45.5621 49.5066 45.6413 49.4581C45.9383 49.2694 46.2268 49.0688 46.5166 48.87C46.5166 46.0374 46.5166 43.2047 46.5166 40.2862C39.2158 40.2862 31.9151 40.2862 24.3931 40.2862ZM22.3952 46.7891C22.3443 46.8305 22.2935 46.8718 22.2411 46.9144C22.1153 47.0168 21.9899 47.1197 21.8647 47.2226C22.2076 47.5598 22.5399 47.8307 22.9483 48.0897C23.0079 48.0897 23.0675 48.0897 23.1289 48.0897C23.1289 47.5174 23.1289 46.9452 23.1289 46.3556C22.8202 46.3556 22.6204 46.6035 22.3952 46.7891ZM47.8711 46.3556C47.8711 46.8992 47.8711 47.4429 47.8711 48.003C48.3322 47.7816 48.7216 47.5874 49.1353 47.3093C48.7786 46.9454 48.3922 46.6368 47.9614 46.3556C47.9316 46.3556 47.9018 46.3556 47.8711 46.3556ZM21.3229 48.5232C21.3229 52.9868 21.3229 57.4505 21.3229 62.0493C21.8371 61.7702 21.8371 61.7702 22.3183 61.4587C22.3817 61.4143 22.4451 61.3699 22.5104 61.3242C22.5767 61.2774 22.643 61.2305 22.7113 61.1823C22.8558 61.0811 23.0005 60.9799 23.1451 60.8788C23.2178 60.828 23.2906 60.7771 23.3655 60.7247C23.6908 60.4986 24.0192 60.2767 24.348 60.0551C24.8743 59.7 25.3966 59.3399 25.9169 58.9767C26.4747 58.5876 27.0392 58.2099 27.61 57.8387C28.2099 57.4485 28.7939 57.0435 29.3702 56.622C30.0127 56.1542 30.6782 55.7196 31.3462 55.2863C31.1035 55.0423 30.8578 54.8419 30.5684 54.6509C30.4457 54.5694 30.4457 54.5694 30.3204 54.4863C30.2324 54.4284 30.1444 54.3705 30.0538 54.3108C29.8651 54.1858 29.6763 54.0607 29.4876 53.9356C29.3912 53.8718 29.2947 53.808 29.1954 53.7423C28.7525 53.4491 28.3111 53.1538 27.8697 52.8585C27.6966 52.7429 27.5235 52.6273 27.3504 52.5117C27.0043 52.2805 26.6581 52.0493 26.312 51.818C26.2262 51.7608 26.1405 51.7035 26.0522 51.6445C25.8797 51.5293 25.7073 51.4141 25.5349 51.299C25.0923 51.0032 24.6495 50.7077 24.2065 50.4125C24.026 50.2921 23.8455 50.1718 23.6651 50.0514C23.5787 49.9939 23.4924 49.9363 23.4035 49.877C22.8536 49.5097 22.3064 49.1392 21.7649 48.7609C21.5633 48.5941 21.5633 48.5941 21.3229 48.5232ZM48.8475 48.9242C48.2384 49.3053 47.627 49.6827 47.0133 50.0568C46.0087 50.6697 45.0061 51.2856 44.0039 51.902C43.5322 52.192 43.0603 52.4819 42.5886 52.7718C42.4034 52.8856 42.2182 52.9994 42.033 53.1132C41.0894 53.6931 40.1459 54.2729 39.2023 54.8528C39.307 55.1544 39.3765 55.1929 39.6425 55.3672C39.7525 55.4401 39.7525 55.4401 39.8646 55.5144C39.944 55.5661 40.0235 55.6178 40.1053 55.671C40.2715 55.7809 40.4376 55.8907 40.6037 56.0006C40.6872 56.0555 40.7708 56.1105 40.8568 56.1671C41.2011 56.3944 41.5422 56.6259 41.8831 56.8578C42.0085 56.943 42.134 57.0281 42.2594 57.1132C42.3211 57.155 42.3827 57.1969 42.4462 57.24C42.7644 57.4559 43.0828 57.6717 43.4013 57.8875C43.5292 57.9742 43.6571 58.0609 43.785 58.1476C43.8483 58.1905 43.9117 58.2334 43.9769 58.2776C46.0877 59.7083 46.0877 59.7083 46.2797 59.8385C46.4071 59.9248 46.5344 60.011 46.6618 60.0973C46.9908 60.3202 47.3196 60.5434 47.6482 60.767C47.7157 60.813 47.7833 60.8589 47.8529 60.9062C47.9803 60.9929 48.1077 61.0796 48.2349 61.1664C48.6805 61.4691 49.1321 61.7583 49.5868 62.0493C49.5868 57.5857 49.5868 53.1221 49.5868 48.5232C49.3497 48.5232 49.0484 48.7977 48.8475 48.9242ZM32.8682 55.7601C32.4395 56.0623 32.0014 56.3499 31.5607 56.6356C30.9595 57.0266 30.3746 57.4328 29.7969 57.8548C29.3336 58.1919 28.8589 58.5096 28.3781 58.8232C27.9245 59.1199 27.4784 59.4255 27.0344 59.7354C26.4569 60.1382 25.8757 60.5352 25.2905 60.9276C25.1786 61.0026 25.1786 61.0026 25.0645 61.0791C24.7645 61.2804 24.4643 61.4815 24.164 61.6824C23.9467 61.8279 23.7297 61.9738 23.5127 62.1198C23.4133 62.1861 23.4133 62.1861 23.3119 62.2538C23.159 62.3568 23.0082 62.4629 22.858 62.5696C22.858 62.5982 22.858 62.6268 22.858 62.6563C31.1719 62.6563 39.4858 62.6563 48.0517 62.6563C47.662 62.2794 47.662 62.2794 47.2379 61.9735C47.1366 61.908 47.1366 61.908 47.0332 61.8412C46.9255 61.7726 46.9255 61.7726 46.8157 61.7025C46.2292 61.323 45.6491 60.9373 45.0774 60.5374C44.2821 59.9818 43.4767 59.4406 42.6701 58.9002C42.147 58.5491 41.6263 58.1947 41.1051 57.8409C40.9164 57.713 40.7275 57.5853 40.5385 57.4577C39.9447 57.0565 39.3526 56.6535 38.7655 56.2433C38.1865 55.8392 37.6052 55.4388 37.0125 55.0533C36.9587 55.0177 36.9049 54.9821 36.8495 54.9455C35.2985 53.9494 34.1547 54.8501 32.8682 55.7601Z" fill="#E1E1E1"/>
</svg>
