<svg width="37" height="41" viewBox="0 0 37 41" fill="none" xmlns="http://www.w3.org/2000/svg">
<path d="M17.7105 9.70036C17.4914 9.70036 17.2711 9.68303 17.0495 9.64838C15.9318 9.4726 14.9489 8.87102 14.2817 7.95255C13.6145 7.03408 13.3435 5.90889 13.5168 4.78494C13.8757 2.46524 16.0444 0.87339 18.3529 1.23236C20.6603 1.59381 22.2447 3.77487 21.8857 6.0958C21.7112 7.21975 21.1133 8.20878 20.1998 8.87968C19.467 9.41814 18.6017 9.70036 17.7105 9.70036ZM17.6994 1.95525C16.0209 1.95525 14.5429 3.1869 14.2767 4.90377C14.1344 5.82348 14.3572 6.74442 14.9031 7.49579C15.449 8.24715 16.2536 8.73981 17.1684 8.88339C18.0831 9.02822 18.9991 8.80294 19.7467 8.25458C20.4944 7.70498 20.9846 6.89668 21.1269 5.97697C21.4215 4.07813 20.1242 2.29318 18.2353 1.99734C18.0546 1.96887 17.8764 1.95525 17.6994 1.95525Z" fill="#CEB380"/>
<path d="M17.1839 8.7846L17.184 8.78463C18.0721 8.92523 18.9611 8.7067 19.6875 8.174L17.1839 8.7846ZM17.1839 8.7846C16.2954 8.64515 15.5143 8.16693 14.984 7.43701C14.4536 6.70703 14.2372 5.81271 14.3756 4.91906C14.6341 3.25133 16.0698 2.05525 17.6994 2.05525C17.8712 2.05525 18.0442 2.06847 18.2198 2.09612L18.2198 2.09614C20.0538 2.38337 21.3143 4.11688 21.0281 5.96164L21.0281 5.96167M17.1839 8.7846L21.0281 5.96167M21.0281 5.96167C20.8898 6.85525 20.4138 7.64004 19.6876 8.17394L21.0281 5.96167ZM17.034 9.74716L17.0341 9.74717C17.2606 9.78261 17.4861 9.80036 17.7105 9.80036C18.6232 9.80036 19.5091 9.51127 20.259 8.96028C21.194 8.2736 21.806 7.26103 21.9845 6.11114L21.9845 6.11108C22.3519 3.73616 20.7307 1.50363 18.3684 1.13357L18.3683 1.13355C16.0048 0.766031 13.7853 2.3957 13.4179 4.76964L13.4179 4.7697C13.2406 5.9196 13.518 7.07141 14.2008 8.01132C14.8836 8.95124 15.8899 9.56726 17.034 9.74716Z" stroke="#D6A74F" stroke-opacity="0.98" stroke-width="0.2"/>
<path d="M30.2313 35.5253C29.9936 35.5253 29.7287 35.5067 29.4366 35.4696C29.4155 35.4671 29.3957 35.4622 29.3759 35.456C26.0783 34.4707 22.6904 32.7253 20.3125 30.7869C20.1479 30.652 20.1219 30.4093 20.2556 30.2435C20.3893 30.0776 20.6319 30.0516 20.7965 30.1865C23.0581 32.0309 26.415 33.7614 29.5641 34.7071C30.5568 34.8309 30.9975 34.6848 31.073 34.5214C31.1596 34.3345 30.9789 33.6611 29.6767 32.448C28.965 31.7846 28.0626 31.0394 27.107 30.2521C26.7183 29.9315 26.3197 29.6035 25.9236 29.2705C25.7602 29.1344 25.7379 28.8905 25.8741 28.7259C26.0102 28.5613 26.2529 28.5402 26.415 28.6764C26.8099 29.0081 27.2073 29.3337 27.5947 29.6543C28.5602 30.4502 29.4712 31.2015 30.2003 31.8811C31.5656 33.1536 32.0942 34.1513 31.7699 34.8494C31.5595 35.3012 31.0532 35.5253 30.2313 35.5253Z" fill="#CEB380"/>
<path d="M20.8598 30.1091C20.6519 29.9388 20.346 29.972 20.1777 30.1807C20.0093 30.3897 20.0424 30.6947 20.2491 30.8642L20.2493 30.8644C22.6385 32.812 26.0382 34.563 29.3467 35.5516C29.3697 35.5588 29.3954 35.5654 29.424 35.5688C29.7193 35.6063 29.9885 35.6253 30.2313 35.6253C31.0651 35.6253 31.6248 35.3979 31.8606 34.8917L31.8606 34.8916C32.0412 34.5028 31.9769 34.0439 31.7071 33.5339C31.4373 33.0239 30.9547 32.4475 30.2685 31.808C29.5367 31.1259 28.6231 30.3724 27.6583 29.5771L27.5947 29.6543M20.8598 30.1091C20.8599 30.1091 20.8599 30.1092 20.8599 30.1092L20.7965 30.1865L20.8597 30.109C20.8598 30.1091 20.8598 30.1091 20.8598 30.1091ZM20.8598 30.1091C23.108 31.9426 26.4491 33.666 29.5847 34.6089C30.0712 34.669 30.4164 34.6624 30.6457 34.6234C30.7611 34.6037 30.8436 34.5765 30.8992 34.5479C30.9559 34.5186 30.9762 34.4924 30.9822 34.4795L30.9822 34.4794C30.9902 34.4621 31.0001 34.4111 30.9771 34.3118C30.9548 34.2156 30.9042 34.0852 30.8089 33.9193C30.6185 33.5876 30.2553 33.1237 29.6086 32.5212L29.6085 32.5212C28.8995 31.8602 27.9997 31.1171 27.0434 30.3293L27.0434 30.3293C27.0061 30.2985 26.9687 30.2677 26.9312 30.2367C26.5782 29.9457 26.2178 29.6484 25.8593 29.3471C25.6536 29.1754 25.626 28.8689 25.797 28.6622C25.9687 28.4546 26.2748 28.428 26.4793 28.5998L26.4793 28.5998C26.7624 28.8376 27.0466 29.0721 27.3279 29.3042C27.4386 29.3956 27.5489 29.4865 27.6585 29.5772L27.5947 29.6543M27.5947 29.6543C27.4854 29.5638 27.3752 29.4729 27.2646 29.3816C26.9832 29.1494 26.6984 28.9145 26.415 28.6764L30.2003 31.8811C29.4712 31.2015 28.5602 30.4502 27.5947 29.6543Z" stroke="#D6A74F" stroke-opacity="0.98" stroke-width="0.2"/>
<path d="M18.1747 40.0001C17.6362 40.0001 16.8923 39.698 15.9021 38.6954C14.0255 36.7916 12.6861 33.9421 12.0276 30.4539C11.988 30.2447 12.1254 30.0417 12.3334 30.0021C12.5426 29.9625 12.7431 30.0999 12.7827 30.3103C13.4115 33.6463 14.6791 36.3583 16.4467 38.152C17.2872 39.0024 18.0249 39.3836 18.4223 39.1682C18.7949 38.9665 18.9248 38.204 18.7392 37.314C18.5993 36.6381 18.395 35.8781 18.1797 35.0722C17.817 33.7193 17.406 32.1869 17.2463 30.8017C17.2216 30.5901 17.3726 30.3982 17.5843 30.3734C17.7947 30.3487 17.9865 30.5009 18.0101 30.7126C18.1648 32.0408 18.5498 33.4804 18.9224 34.8717C19.1415 35.6887 19.3482 36.4599 19.4918 37.1568C19.7591 38.4367 19.4892 39.469 18.7874 39.8503C18.6252 39.9357 18.4223 40.0001 18.1747 40.0001Z" fill="#CEB380"/>
<path d="M12.3147 29.9039L12.3148 29.9038C12.5787 29.8539 12.8312 30.0275 12.881 30.2918M12.3147 29.9039L17.5843 30.3734M12.3147 29.9039C12.052 29.9539 11.8796 30.2096 11.9294 30.4724L12.3147 29.9039ZM12.881 30.2918L12.7827 30.3103M12.881 30.2918L12.7827 30.3103M12.881 30.2918C13.5074 33.6148 14.7683 36.3064 16.5178 38.0817C16.934 38.5028 17.3201 38.8028 17.6465 38.9709C17.9783 39.1418 18.2216 39.1633 18.3746 39.0803L18.3747 39.0803C18.5198 39.0017 18.6373 38.7997 18.6915 38.4823C18.7448 38.1704 18.7322 37.7702 18.6413 37.3344L18.6412 37.3342C18.5055 36.6786 18.3088 35.9426 18.0992 35.1585L18.0831 35.0981L18.0831 35.0981L18.0812 35.091C17.7194 33.7414 17.3074 32.2046 17.147 30.8132C17.1159 30.547 17.3059 30.3053 17.5726 30.2741M12.7827 30.3103C13.4115 33.6463 14.6791 36.3583 16.4467 38.152L12.3334 30.0021C12.5426 29.9625 12.7431 30.0999 12.7827 30.3103ZM17.5726 30.2741L17.5843 30.3734M17.5726 30.2741C17.5726 30.2741 17.5726 30.2741 17.5726 30.2741L17.5843 30.3734M17.5726 30.2741C17.8382 30.2429 18.0797 30.4347 18.1094 30.7013M17.5843 30.3734C17.7947 30.3487 17.9865 30.5009 18.0101 30.7126M18.1094 30.7013C18.1094 30.7012 18.1094 30.7011 18.1094 30.701L18.0101 30.7126M18.1094 30.7013C18.1094 30.7014 18.1094 30.7015 18.1095 30.7016L18.0101 30.7126M18.1094 30.7013L18.0101 30.7126M15.8308 38.7656L15.8309 38.7656L11.9294 30.4725C12.5904 33.9739 13.9365 36.8437 15.8308 38.7656ZM19.0189 34.8458L18.9224 34.8717L19.019 34.8458C19.019 34.8458 19.019 34.8458 19.0189 34.8458ZM19.4918 37.1568L19.5897 37.1366C19.5897 37.1365 19.5897 37.1364 19.5897 37.1363L19.4918 37.1568Z" stroke="#D6A74F" stroke-opacity="0.98" stroke-width="0.2"/>
<path d="M22.7721 18.6969C22.6904 18.6969 22.6086 18.6709 22.5393 18.6177C22.3697 18.489 22.3376 18.2463 22.4663 18.0755C24.7291 15.08 28.3448 12.9583 30.8675 11.6239C31.4356 11.3145 31.6746 10.9506 31.6151 10.7525C31.5173 10.4294 30.5444 9.89222 27.5575 10.1695C27.2517 10.2227 26.9089 10.2747 26.5351 10.3316C24.2872 10.6758 20.8893 11.1944 17.359 13.123C15.4664 14.1553 14.0565 15.8511 13.3881 17.8948C13.3509 18.0062 13.315 18.1213 13.2816 18.2364C13.2222 18.4419 13.0081 18.5583 12.8051 18.4989C12.6008 18.4382 12.4844 18.2241 12.5438 18.0186C12.5797 17.8948 12.6194 17.7698 12.659 17.6509C13.3881 15.4204 14.9279 13.5698 16.9926 12.4421C20.6405 10.4492 24.1188 9.91697 26.4199 9.56543C26.795 9.50849 27.1379 9.4565 27.4424 9.40328C27.4523 9.40204 27.4622 9.39956 27.4721 9.39956C31.1212 9.05916 32.1399 9.82414 32.3516 10.526C32.5385 11.1449 32.1077 11.8257 31.2301 12.3035C28.7681 13.6069 25.2502 15.6679 23.0791 18.5409C23.0023 18.6437 22.8884 18.6969 22.7721 18.6969Z" fill="#CEB380"/>
<path d="M22.3864 18.0153L22.3865 18.0152C24.6636 15.0007 28.2968 12.8706 30.8201 11.5359C31.0955 11.3858 31.2856 11.2255 31.3985 11.084C31.5161 10.9368 31.5344 10.8315 31.5194 10.7812C31.5051 10.7347 31.4503 10.6574 31.3083 10.5718C31.1686 10.4875 30.9555 10.402 30.648 10.3335C30.0336 10.1967 29.0562 10.1311 27.5707 10.2687C27.2749 10.3201 26.9448 10.3704 26.5872 10.4249L26.5502 10.4305L26.5501 10.4305L26.5454 10.4312C24.2981 10.7753 20.918 11.2927 17.407 13.2107L17.4069 13.2107C15.5366 14.2309 14.1436 15.9065 13.4831 17.9259L13.4829 17.9264C13.4462 18.0366 13.4107 18.1504 13.3776 18.2642L22.3864 18.0153ZM22.3864 18.0153C22.2251 18.2294 22.2647 18.5345 22.4786 18.6972C22.5659 18.7641 22.6691 18.7969 22.7721 18.7969C22.9194 18.7969 23.0631 18.7293 23.159 18.601C25.3156 15.7474 28.8153 13.6951 31.2769 12.3919L31.2779 12.3913C32.1683 11.9066 32.6556 11.1868 32.4473 10.4971C32.3296 10.1068 31.9912 9.72035 31.2314 9.4767C30.4759 9.23443 29.2944 9.12941 27.4663 9.29966C27.456 9.30003 27.4472 9.3013 27.4418 9.30216C27.4371 9.30288 27.435 9.30326 27.4336 9.3035C27.4322 9.30374 27.4316 9.30385 27.43 9.30405L27.43 9.30393L27.4252 9.30477C27.1248 9.35728 26.7866 9.40862 26.4153 9.465L26.4049 9.46656L26.4048 9.46658C24.103 9.81823 20.6092 10.3524 16.9447 12.3544M22.3864 18.0153L12.777 18.5948M12.777 18.5948L12.7766 18.5947C12.5193 18.5183 12.3732 18.2487 12.4478 17.9908L12.4478 17.9907C12.4841 17.8655 12.5241 17.7393 12.564 17.6196C13.3011 15.3649 14.8578 13.4942 16.9447 12.3544M12.777 18.5948C13.033 18.6698 13.3027 18.523 13.3776 18.2643L12.777 18.5948ZM16.9447 12.3544L16.9926 12.4421L16.9447 12.3544Z" stroke="#D6A74F" stroke-opacity="0.98" stroke-width="0.2"/>
<path d="M11.2529 15.0267C11.16 15.0267 11.0684 14.9933 10.9941 14.9265C9.18069 13.2678 7.30662 11.3962 5.89301 8.95269C5.06243 7.33484 4.94735 6.29135 5.53037 5.74794C6.22108 5.10303 7.59755 5.56474 8.35387 6.03264C10.4223 7.30389 13.3324 9.89715 14.4873 10.953C14.6445 11.0966 14.6556 11.3417 14.5133 11.4989C14.3709 11.6573 14.1271 11.6685 13.9699 11.5249C11.5982 9.35746 9.34785 7.55022 7.95157 6.69117C7.29676 6.2864 6.3473 6.04007 6.0527 6.31363C5.84103 6.51168 5.86454 7.20982 6.56639 8.5801C7.9181 10.9159 9.74271 12.7355 11.5103 14.3533C11.6675 14.4969 11.6787 14.742 11.5363 14.8992C11.4608 14.9834 11.3568 15.0267 11.2529 15.0267Z" fill="#CEB380"/>
<path d="M10.9272 15.0008L10.9266 15.0002C9.11139 13.3399 7.22797 11.4599 5.80645 9.00276L5.80394 8.99841L5.80405 8.99836C5.38658 8.18519 5.14391 7.50724 5.08222 6.95857C5.02022 6.40726 5.14037 5.97476 5.46215 5.67482C5.84204 5.32015 6.39886 5.27925 6.93501 5.37453C7.47462 5.47043 8.01955 5.70825 8.40635 5.94752C10.4842 7.2246 13.401 9.8244 14.5547 10.8792L10.9272 15.0008ZM10.9272 15.0008C11.0201 15.0843 11.1356 15.1267 11.2529 15.1267M10.9272 15.0008L11.2529 15.1267M14.5133 11.4989C14.3709 11.6573 14.1271 11.6685 13.9699 11.5249L14.5548 10.8792C14.7526 11.06 14.7666 11.368 14.5875 11.5659C14.5875 11.566 14.5874 11.566 14.5874 11.566L14.5133 11.4989ZM14.5133 11.4989C14.6556 11.3417 14.6445 11.0966 14.4873 10.953L14.5133 11.4989ZM11.2529 15.1267C11.3845 15.1267 11.5157 15.0719 11.6107 14.9661C11.7897 14.7682 11.7756 14.4602 11.5778 14.2795C9.81235 12.6637 7.99781 10.8531 6.65422 8.53223C6.30643 7.85284 6.13002 7.34626 6.06537 6.98945C6.033 6.81082 6.02937 6.67362 6.04394 6.57294C6.05857 6.47176 6.09025 6.41552 6.12089 6.38677L11.2529 15.1267Z" stroke="#D6A74F" stroke-opacity="0.98" stroke-width="0.2"/>
<path d="M16.8045 28.2455C13.8584 28.2455 10.9111 27.6687 8.10742 26.515C7.67913 26.338 7.39074 25.9394 7.35608 25.4753C7.32018 25.0024 7.5504 24.558 7.95517 24.3142C8.73872 23.8426 9.60269 23.1593 10.5249 22.2841C14.0465 18.9395 19.5648 18.9395 23.0877 22.2841C24.0098 23.1593 24.8738 23.8426 25.6574 24.3142C26.0621 24.558 26.2912 25.0036 26.2565 25.4753C26.2219 25.9407 25.9334 26.3393 25.5051 26.515C22.6977 27.6675 19.7505 28.2455 16.8045 28.2455ZM8.34882 24.9764C8.19285 25.0705 8.1074 25.2351 8.12102 25.4158C8.12721 25.4988 8.16682 25.7043 8.39705 25.7983C13.8175 28.0289 19.7888 28.0289 25.2105 25.7983C25.4408 25.7043 25.4804 25.4988 25.4866 25.4158C25.5002 25.2339 25.4148 25.0705 25.26 24.9764C24.4294 24.4763 23.5197 23.7596 22.5579 22.8449C19.3321 19.7812 14.2767 19.7812 11.051 22.8449C10.0879 23.7584 9.1794 24.4751 8.34882 24.9764Z" fill="#CEB380"/>
<path d="M8.06937 26.6075L8.06922 26.6075C7.60592 26.416 7.29384 25.9845 7.25636 25.4828M8.06937 26.6075L10.456 22.2116C9.53718 23.0836 8.679 23.7618 7.9036 24.2285L7.90356 24.2285C7.46651 24.4918 7.21762 24.9722 7.25636 25.4828M8.06937 26.6075C10.8851 27.7661 13.8453 28.3455 16.8045 28.3455C19.7636 28.3455 22.7237 27.7649 25.5431 26.6076C26.0067 26.4173 26.3188 25.9856 26.3562 25.4827L26.3562 25.4826C26.3936 24.9736 26.1462 24.492 25.709 24.2285L25.7089 24.2285M8.06937 26.6075L25.7089 24.2285M7.25636 25.4828C7.25636 25.4828 7.25636 25.4828 7.25636 25.4828L7.35608 25.4753L7.25635 25.4827C7.25636 25.4827 7.25636 25.4827 7.25636 25.4828ZM25.7089 24.2285C24.9335 23.7618 24.0753 23.0836 23.1565 22.2116M25.7089 24.2285L23.1565 22.2116M23.1565 22.2116C19.5951 18.8304 14.0163 18.8303 10.456 22.2116L23.1565 22.2116ZM8.40047 25.062L8.40049 25.062C9.23904 24.5559 10.1533 23.8342 11.1198 22.9174L11.1198 22.9174C14.307 19.8904 19.3018 19.8904 22.489 22.9174C23.4543 23.8354 24.3697 24.5571 25.2083 25.062C25.3311 25.1367 25.3976 25.2644 25.3868 25.4084C25.3817 25.4771 25.3503 25.6332 25.1727 25.7058L25.1725 25.7059C19.7751 27.9264 13.8312 27.9264 8.43511 25.7059L8.43488 25.7058C8.25726 25.6332 8.22586 25.4771 8.22074 25.4084L8.22074 25.4083C8.20998 25.2655 8.27655 25.1368 8.40047 25.062Z" stroke="#D6A74F" stroke-opacity="0.98" stroke-width="0.2"/>
<path d="M2.55088 31.4478C2.46175 31.4478 2.37139 31.4168 2.29836 31.3525C2.13868 31.2126 2.12137 30.9675 2.26125 30.8066C2.94205 30.0218 3.3493 28.7642 3.3493 27.4434C3.3493 26.1226 2.94205 24.865 2.26125 24.0802C1.44923 23.1444 0.983826 21.7333 0.983826 20.2083C0.983826 18.6833 1.44923 17.2722 2.26125 16.3364C2.94205 15.5516 3.3493 14.2939 3.3493 12.9732C3.3493 11.6524 2.94205 10.3948 2.26125 9.60998C2.12137 9.44906 2.13744 9.20521 2.29836 9.0641C2.45804 8.92422 2.7007 8.94032 2.84057 9.10123C3.65259 10.037 4.11799 11.4482 4.11799 12.9732C4.11799 14.4982 3.65259 15.9093 2.84057 16.8451C2.15977 17.6299 1.75251 18.8875 1.75251 20.2083C1.75251 21.5291 2.15977 22.7867 2.84057 23.5715C3.65259 24.5073 4.11799 25.9184 4.11799 27.4434C4.11799 28.9684 3.65259 30.3795 2.84057 31.3153C2.76383 31.4032 2.65733 31.4478 2.55088 31.4478Z" fill="#CEB380"/>
<path d="M2.23246 8.98888L2.23242 8.98891C2.03007 9.16636 2.00984 9.4731 2.18571 9.67551C2.84685 10.4376 3.2493 11.6698 3.2493 12.9732C3.2493 14.2765 2.84686 15.5087 2.18572 16.2708C1.3545 17.2287 0.883826 18.665 0.883826 20.2083C0.883826 21.7516 1.3545 23.1878 2.18572 24.1458C2.84686 24.9079 3.2493 26.1401 3.2493 27.4434C3.2493 28.7468 2.84687 29.9789 2.18574 30.741C2.00973 30.9436 2.03146 31.2514 2.23228 31.4275C2.32445 31.5088 2.43864 31.5478 2.55088 31.5478C2.68527 31.5478 2.81956 31.4914 2.9159 31.3811L2.9161 31.3809C3.74732 30.423 4.21799 28.9867 4.21799 27.4434C4.21799 25.9001 3.74732 24.4639 2.9161 23.5059C2.25496 22.7438 1.85251 21.5117 1.85251 20.2083C1.85251 18.9049 2.25496 17.6728 2.9161 16.9106C3.74732 15.9527 4.21799 14.5165 4.21799 12.9732C4.21799 11.4299 3.74732 9.99363 2.9161 9.03569L2.91605 9.03563C2.73981 8.83289 2.43377 8.81254 2.23246 8.98888Z" stroke="#D6A74F" stroke-opacity="0.98" stroke-width="0.2"/>
<path d="M34.7122 27.6365C34.6045 27.6365 34.498 27.5919 34.4225 27.5041C33.6105 26.5683 33.1451 25.1571 33.1451 23.6321C33.1451 22.1071 33.6105 20.696 34.4225 19.7602C35.1033 18.9754 35.5106 17.7178 35.5106 16.397C35.5106 15.0762 35.1033 13.8186 34.4225 13.0338C34.2826 12.8729 34.3 12.629 34.4597 12.4879C34.6194 12.3481 34.862 12.3642 35.0018 12.5251C35.8138 13.4609 36.2792 14.872 36.2792 16.397C36.2792 17.922 35.8138 19.3331 35.0018 20.2689C34.321 21.0537 33.9138 22.3114 33.9138 23.6321C33.9138 24.9529 34.321 26.2105 35.0018 26.9953C35.1417 27.1562 35.1256 27.4001 34.9647 27.5412C34.8917 27.6043 34.8013 27.6365 34.7122 27.6365Z" fill="#CEB380"/>
<path d="M34.3938 12.4127L34.3935 12.413C34.1931 12.5901 34.1707 12.8965 34.347 13.0993C35.0081 13.8615 35.4106 15.0936 35.4106 16.397C35.4106 17.7004 35.0081 18.9325 34.347 19.6947C33.5158 20.6526 33.0451 22.0888 33.0451 23.6321C33.0451 25.1753 33.5157 26.6114 34.3468 27.5694C34.4422 27.6804 34.5769 27.7365 34.7122 27.7365C34.8253 27.7365 34.9389 27.6957 35.0301 27.6169L35.0306 27.6164C35.233 27.4389 35.2532 27.1322 35.0774 26.9298C34.4162 26.1677 34.0138 24.9355 34.0138 23.6321C34.0138 22.3288 34.4162 21.0966 35.0774 20.3345C35.9086 19.3765 36.3792 17.9403 36.3792 16.397C36.3792 14.8537 35.9086 13.4175 35.0774 12.4595L35.0773 12.4595C34.9011 12.2567 34.5951 12.2364 34.3938 12.4127L34.3938 12.4127Z" stroke="#D6A74F" stroke-opacity="0.98" stroke-width="0.2"/>
</svg>
