<svg width="24" height="22" viewBox="0 0 24 22" fill="none" xmlns="http://www.w3.org/2000/svg">
<g opacity="0.6" clip-path="url(#clip0_1_122)">
<path d="M2.57849 3.57932C2.5802 3.34441 2.67841 3.11956 2.8519 2.95336C3.02539 2.78716 3.26024 2.69294 3.50571 2.69107H20.3452C20.8574 2.69107 21.2724 3.08913 21.2724 3.57932L21.2724 17.9041C21.2707 18.139 21.1725 18.3639 20.999 18.5301C20.8255 18.6963 20.5907 18.7905 20.3452 18.7924H3.50571C3.25971 18.7921 3.02387 18.6984 2.85001 18.5319C2.67615 18.3653 2.57849 18.1395 2.57849 17.9041L2.57849 3.57932ZM10.9908 4.4801H4.44789L4.44789 17.0033H10.9908L10.9908 4.4801ZM12.8602 4.4801L12.8602 17.0033H19.403L19.403 4.4801H12.8602ZM13.7949 6.26913H18.4683V8.05817H13.7949V6.26913ZM13.7949 8.95268H18.4683V10.7417H13.7949L13.7949 8.95268Z" fill="#1E2742"/>
</g>
<defs>
<clipPath id="clip0_1_122">
<rect width="22.4327" height="21.4684" fill="white" transform="translate(0.709106 0.00750732)"/>
</clipPath>
</defs>
</svg>
