<svg width="69" height="6" viewBox="0 0 69 6" fill="none" xmlns="http://www.w3.org/2000/svg">
<path d="M68.4511 0.703862C68.7247 0.990932 68.9338 1.35942 68.9916 1.79376C68.9985 1.93637 69 2.07739 68.9988 2.22022C68.9991 2.29794 68.9991 2.29794 68.9994 2.37723C68.9995 2.486 68.9992 2.59477 68.9984 2.70354C68.9973 2.86905 68.9984 3.03443 68.9996 3.19994C68.9994 3.30621 68.9992 3.41249 68.9988 3.51876C68.9992 3.56767 68.9996 3.61659 69 3.66698C68.9952 4.0382 68.9243 4.34079 68.7084 4.61932C68.2392 5.14442 67.6479 5.28712 67.0232 5.2696C65.2855 5.16945 63.6446 4.20872 62.0807 3.3856C61.9087 3.29516 61.7361 3.20653 61.5632 3.11845C61.5079 3.08971 61.4525 3.06098 61.3955 3.03137C61.0491 2.86036 60.833 2.77465 60.4729 2.93519C60.3685 2.98791 60.2669 3.0456 60.1649 3.10441C57.7151 4.45256 55.0884 5.3085 52.419 5.77169C52.3704 5.78018 52.3217 5.78868 52.2717 5.79742C51.3586 5.94714 50.4484 6.00369 49.5273 5.99981C49.4764 5.99971 49.4256 5.99961 49.3732 5.9995C48.6298 5.99699 47.9027 5.97582 47.17 5.81381C47.1252 5.80447 47.0804 5.79513 47.0343 5.78551C45.4693 5.45206 44.1422 4.65674 42.7997 3.67998C41.5801 2.79489 40.2264 1.9223 38.7511 2.32814C38.2805 2.48667 37.877 2.73905 37.6073 3.23207C37.4394 3.6125 37.4158 4.03083 37.5142 4.4431C37.5353 4.50429 37.5581 4.56136 37.5828 4.61485C37.8538 5.2013 38.599 5.55184 39.1836 5.27684V5.27684C39.3518 5.17564 39.4906 5.04067 39.591 4.86764C39.696 4.68699 39.7318 4.47269 39.7165 4.26435C39.7104 4.18014 39.6948 4.1018 39.6627 4.0213C39.6143 3.9003 39.5228 3.79576 39.4022 3.74624C39.3594 3.72865 39.3169 3.71823 39.2725 3.71408C39.1245 3.70025 38.97 3.75967 38.9297 3.90276V3.90276C38.9124 3.96418 38.9052 4.04923 38.9107 4.1128C38.926 4.28849 38.9619 4.43075 39.0293 4.5931C39.0404 4.61968 39.0408 4.64925 39.0296 4.67577V4.67577C39.0118 4.71789 38.9684 4.74489 38.9233 4.73773C38.8424 4.72489 38.787 4.7017 38.7244 4.63764C38.6902 4.60272 38.6676 4.55833 38.6545 4.51129C38.583 4.25382 38.5824 3.9968 38.649 3.73065C38.6804 3.65308 38.7147 3.58887 38.7549 3.53413C38.8747 3.3713 39.0807 3.28141 39.2823 3.29534V3.29534C39.5162 3.31148 39.7231 3.46023 39.8736 3.63995C39.9708 3.75611 40.0443 3.89084 40.0921 4.07306C40.1476 4.5227 40.0748 4.88118 39.8546 5.25227C39.5793 5.62885 39.2474 5.83901 38.8292 5.89124C38.3409 5.90939 37.9339 5.83075 37.5537 5.45232C37.4963 5.38682 37.4397 5.32026 37.3844 5.25227C37.3746 5.24031 37.3648 5.22835 37.3549 5.21637C37.3035 5.15387 37.2526 5.07901 37.2172 5.00622V5.00622C36.9006 4.35538 36.4177 3.73614 35.6939 3.73614C26.1881 3.73614 16.6703 3.73614 6.88116 3.73614C6.74329 3.73614 6.6209 3.82317 6.57671 3.95376V3.95376C6.5628 3.99486 6.54067 4.03388 6.51072 4.06527C6.40137 4.17984 6.29631 4.2598 6.17349 4.31053C6.01813 4.3747 5.84105 4.37401 5.68213 4.31925C5.6282 4.30066 5.57374 4.27733 5.51029 4.24854V4.24854C5.3626 4.18608 5.19416 4.22878 5.08985 4.35056C5.0701 4.37363 5.0502 4.39794 5.02914 4.42358C4.55927 4.94539 3.6559 5.05893 3.04016 5.08381C2.99913 5.08671 2.95811 5.08961 2.91584 5.09259C1.88597 5.13594 0.941235 4.61578 0.138466 3.89326C0.0997309 3.8584 0.0662085 3.82607 0.0376729 3.78247V3.78247C-0.0594434 3.63406 0.0474579 3.42892 0.163735 3.29499C0.684337 2.69537 1.59597 2.31624 2.25229 2.18841C3.28045 2.04013 4.36319 2.25393 5.22854 2.93184C5.28157 2.97338 5.35723 2.9715 5.40638 2.92542V2.92542C5.54416 2.80908 5.69431 2.76882 5.85094 2.76215C6.06674 2.75297 6.29428 2.80321 6.44712 2.95584C6.497 3.00564 6.54265 3.06437 6.5877 3.13434C6.59588 3.14705 6.60696 3.17223 6.61227 3.18638V3.18638C6.65705 3.30567 6.75364 3.39922 6.88106 3.39922C16.756 3.39922 26.6331 3.39922 36.8025 3.39922C36.9464 3.39922 37.0694 3.29592 37.0934 3.154V3.154C37.0974 3.13077 37.1041 3.10748 37.1137 3.08599C37.1793 2.94026 37.258 2.80579 37.3369 2.66922V2.66922C37.3903 2.57347 37.4503 2.48107 37.5245 2.40039C38.0049 1.87809 38.6627 1.62133 39.3085 1.59003C40.4312 1.55585 41.3938 1.93437 42.3722 2.55692C42.4222 2.58862 42.4222 2.58862 42.4733 2.62097C42.8921 2.88791 43.3017 3.17018 43.7082 3.46239C47.2377 5.99014 51.4463 5.4054 55.2925 4.32421V4.32421C57.2102 3.7664 57.0795 1.36556 55.0851 1.26091C53.6804 1.18719 52.2934 1.3831 51.1188 1.99596C50.582 2.29103 50.0654 2.63084 49.56 2.99433C48.5521 3.71835 47.4849 4.2397 46.2804 3.97852C46.1319 3.92387 45.9938 3.85646 45.8656 3.77525C45.1927 3.34879 44.8731 2.46129 45.0858 1.69356V1.69356C45.0923 1.67639 45.0991 1.65949 45.1059 1.64287C45.374 0.995439 46.1975 0.596407 46.8107 0.935494V0.935494C46.9694 1.04175 47.0948 1.1648 47.1952 1.31902C47.3324 1.5296 47.3942 1.78533 47.3729 2.03573C47.3699 2.07083 47.3655 2.10563 47.3594 2.14041C47.3267 2.32726 47.2339 2.50371 47.0936 2.63134C47.0739 2.64925 47.0534 2.66564 47.0316 2.68038C46.9317 2.74801 46.7996 2.75923 46.6795 2.74771V2.74771C46.4448 2.72522 46.2734 2.5124 46.236 2.27964C46.228 2.2299 46.2237 2.17744 46.2217 2.1178C46.2189 2.03682 46.2311 1.95544 46.2608 1.88005C46.2805 1.8299 46.2966 1.80411 46.3344 1.75247C46.3526 1.72759 46.3773 1.70795 46.4056 1.69578C46.4222 1.68866 46.4352 1.68332 46.4467 1.67915C46.5051 1.65795 46.5647 1.70198 46.5816 1.76182V1.76182C46.5929 1.80213 46.5837 1.84609 46.5567 1.87806C46.5513 1.88447 46.5458 1.8909 46.5404 1.89734C46.5173 1.9246 46.5031 1.95834 46.5002 1.99393C46.4917 2.09922 46.49 2.18299 46.5157 2.27248C46.5379 2.34958 46.58 2.43104 46.6585 2.44767V2.44767C46.7235 2.46144 46.7956 2.43286 46.8516 2.39726C46.8792 2.37976 46.9031 2.36122 46.9247 2.3406C47.057 2.21399 47.0789 2.01114 47.0502 1.83022C47.0402 1.76669 47.0268 1.7044 47.0094 1.643C46.9694 1.50151 46.8803 1.3728 46.7424 1.32155V1.32155C46.6983 1.3007 46.6543 1.27985 46.6088 1.25837C46.2999 1.15814 46.076 1.20477 45.7931 1.36629C45.5875 1.51135 45.4743 1.72689 45.4124 1.99539V1.99539C45.342 2.65243 45.7847 3.31336 46.4265 3.47071C46.5785 3.50797 46.7377 3.52537 46.9028 3.52907C47.7576 3.53222 48.5092 3.08641 49.2244 2.57096C49.2814 2.53053 49.3384 2.49017 49.3955 2.44988C49.5954 2.30857 49.7951 2.16679 49.9944 2.02401C50.6683 1.54299 51.3836 1.21137 52.1488 0.991647C52.1861 0.980916 52.2235 0.970185 52.2619 0.959128C52.9587 0.773538 53.6525 0.737104 54.3636 0.738957C54.408 0.738988 54.4524 0.739019 54.4982 0.73905C56.2701 0.744605 58.1754 1.04817 59.8687 1.76957C60.2381 1.92693 60.6325 2.05948 60.9932 1.88308V1.88308C61.0453 1.85762 61.0975 1.83217 61.1512 1.80594C61.2737 1.7455 61.396 1.68435 61.5182 1.62292C62.7748 0.99226 64.0619 0.421 65.4109 0.142329C65.4694 0.128793 65.5279 0.115257 65.5881 0.101311C66.5991 -0.107437 67.6017 -0.0334899 68.4511 0.703862ZM61.8832 2.15197C61.8561 2.16613 61.8291 2.18022 61.802 2.19426C61.6048 2.29646 61.5471 2.56141 61.7469 2.65826V2.65826C61.7843 2.67675 61.8218 2.69525 61.8604 2.7143C61.9014 2.73417 61.9425 2.75404 61.9848 2.77451C62.3781 2.96876 62.7675 3.17155 63.1555 3.38004C64.2784 3.98227 65.4227 4.56383 66.646 4.80305C66.6828 4.81043 66.7197 4.81781 66.7577 4.82542C66.8467 4.84093 66.9364 4.85022 67.026 4.8592C67.0611 4.86282 67.0963 4.86644 67.1325 4.87017C67.596 4.89643 68.0663 4.74284 68.4232 4.38497C68.6651 4.10469 68.7155 3.85333 68.7326 3.48675C68.734 3.4574 68.6978 3.44293 68.6784 3.46502V3.46502C68.3032 3.87134 67.9171 4.03507 67.406 4.0169C66.9798 3.95124 66.5913 3.78531 66.3188 3.37728C66.2804 3.30988 66.2433 3.24228 66.2074 3.17369C66.1651 3.09278 66.2037 2.99329 66.2947 3.0004V3.0004C66.3273 3.00295 66.3734 3.01929 66.3953 3.04359C66.4354 3.08803 66.4449 3.10416 66.4946 3.18864C66.5244 3.23381 66.5553 3.27451 66.5873 3.31148C66.8897 3.66061 67.4189 3.78467 67.8574 3.63938C67.9721 3.60137 68.0834 3.54259 68.1934 3.45614C68.2396 3.41979 68.2795 3.37634 68.3142 3.32879V3.32879C68.4807 3.10019 68.5203 2.7584 68.285 2.60149C68.2632 2.58693 68.2395 2.57224 68.2136 2.55692C67.9415 2.43902 67.6651 2.48473 67.4023 2.60934C67.3013 2.67558 67.2332 2.74971 67.1537 2.84821C67.1 2.91458 67.0919 2.92461 67.0512 2.97492C67.0353 2.99465 67.0116 3.00614 66.9862 3.00614V3.00614C66.9333 3.00614 66.8927 2.95744 66.9087 2.90691C66.9734 2.7018 67.0951 2.59484 67.2568 2.46106C67.5121 2.27878 67.7953 2.23116 68.0867 2.2714C68.1079 2.27434 68.1287 2.27967 68.1489 2.28697V2.28697C68.3889 2.37383 68.662 2.21713 68.6187 1.96559C68.5838 1.76256 68.5166 1.57557 68.4162 1.36796C68.3888 1.3112 68.3535 1.25835 68.31 1.2127C67.8468 0.726382 67.1954 0.515414 66.5862 0.523338C64.9388 0.635146 63.3748 1.36958 61.8832 2.15197ZM0.967181 3.21133C0.680725 3.41118 0.603464 3.78304 0.890671 3.98181V3.98181C0.922643 4.00414 0.954615 4.02648 0.987555 4.04949C1.988 4.73086 3.06833 4.79229 4.1721 4.44674C4.46785 4.3413 4.78389 4.18782 4.99733 3.91684C5.05947 3.83795 5.11295 3.74397 5.12075 3.64385V3.64385C5.13083 3.51447 5.04946 3.39759 4.96439 3.2996C4.58274 2.86002 3.99861 2.70192 3.48628 2.62631C2.54366 2.51643 1.73646 2.67464 0.967181 3.21133Z" fill="white"/>
</svg>
