<svg width="69" height="7" viewBox="0 0 69 7" fill="none" xmlns="http://www.w3.org/2000/svg">
<path d="M0.548927 0.821172C0.275291 1.15609 0.0662155 1.58599 0.00839233 2.09272C0.00152588 2.25909 4.57764e-05 2.42362 0.0011673 2.59025C0.000892639 2.68093 0.000892639 2.68093 0.000617981 2.77344C0.000488281 2.90033 0.000831604 3.02724 0.00163269 3.15413C0.00265503 3.34723 0.00164032 3.54017 0.000427246 3.73326C0.000549316 3.85725 0.000793457 3.98124 0.0011673 4.10522C0.000785828 4.16229 0.000396729 4.21935 0 4.27814C0.00476837 4.71123 0.0757141 5.06425 0.291641 5.3892C0.76078 6.00182 1.35214 6.16831 1.97679 6.14787C3.71451 6.03102 5.35544 4.91018 6.91926 3.94987C7.09127 3.84435 7.2639 3.74095 7.43679 3.63819C7.49212 3.60467 7.54745 3.57114 7.60447 3.5366C7.95093 3.33709 8.16698 3.2371 8.5271 3.42438C8.6315 3.4859 8.7331 3.5532 8.83514 3.62181C11.2849 5.19466 13.9116 6.19325 16.581 6.73364C16.6296 6.74355 16.6783 6.75345 16.7283 6.76366C17.6414 6.93832 18.5516 7.00431 19.4727 6.99978C19.5236 6.99966 19.5744 6.99954 19.6268 6.99942C20.3702 6.99649 21.0973 6.97179 21.83 6.78277C21.8748 6.77188 21.9196 6.76099 21.9657 6.74976C23.5307 6.36074 24.8578 5.43286 26.2003 4.29331C27.4199 3.26071 28.7736 2.24269 30.2489 2.71616C30.7195 2.90112 31.123 3.19556 31.3927 3.77075C31.5606 4.21458 31.5842 4.70263 31.4858 5.18361C31.4564 5.2833 31.4234 5.3736 31.3869 5.45624C31.1232 6.05255 30.388 6.47002 29.8164 6.15631C29.6427 6.03435 29.5003 5.87033 29.3991 5.65875C29.3025 5.45666 29.2721 5.22866 29.2819 5.00487C29.2871 4.88396 29.3052 4.77448 29.3488 4.65977C29.3933 4.54292 29.4715 4.43668 29.5821 4.37848C29.6158 4.36078 29.6491 4.34829 29.6831 4.34053C29.8567 4.30094 30.0359 4.39467 30.0738 4.56857C30.0868 4.62843 30.0948 4.71732 30.0907 4.77845C30.0761 4.99506 30.0395 5.16699 29.9683 5.36525C29.9586 5.39227 29.9582 5.42147 29.968 5.44846C29.987 5.50079 30.0399 5.53574 30.0943 5.52382C30.1694 5.50735 30.2227 5.47698 30.2843 5.40004C30.3122 5.36518 30.3306 5.32377 30.3413 5.28042C30.4169 4.97426 30.4189 4.66888 30.351 4.35243C30.3181 4.2575 30.282 4.17971 30.2391 4.11386C30.1249 3.93827 29.9194 3.82581 29.7108 3.84515C29.4795 3.86661 29.2851 4.03566 29.1452 4.22117C29.0385 4.36248 28.9588 4.52588 28.9079 4.7519C28.8524 5.27648 28.9252 5.69471 29.1454 6.12765C29.4207 6.56699 29.7527 6.81217 30.1708 6.87311C30.6591 6.89428 31.0661 6.80254 31.4463 6.36104C31.5037 6.28463 31.5603 6.20697 31.6156 6.12765C31.6257 6.11324 31.6359 6.09882 31.6461 6.08437C31.6969 6.01236 31.7453 5.92972 31.7795 5.84849C32.1058 5.07224 32.6782 4.35883 33.5202 4.35883C42.9413 4.35883 52.3759 4.35883 62.0767 4.35883C62.2383 4.35883 62.3804 4.46467 62.4254 4.61987C62.4379 4.6632 62.4585 4.70505 62.487 4.74003C62.5833 4.85818 62.6762 4.94502 62.7806 5.00481C62.9579 5.10629 63.1803 5.10302 63.3662 5.01836C63.4049 5.00075 63.4451 4.98026 63.4897 4.95662C63.6343 4.88529 63.8043 4.93369 63.9007 5.0629C63.9236 5.09356 63.9464 5.12616 63.9709 5.16084C64.4407 5.76962 65.3441 5.90208 65.9598 5.93112C66.0009 5.93449 66.0419 5.93787 66.0842 5.94135C67.1101 5.99174 68.0516 5.38967 68.8524 4.55173C68.8973 4.50471 68.9341 4.46513 68.9651 4.40793C69.0601 4.23226 68.9538 4.00158 68.8343 3.8415C68.3134 3.14347 67.4032 2.70209 66.7477 2.55315C65.72 2.38022 64.6377 2.62938 63.7725 3.41951C63.721 3.46656 63.6407 3.4645 63.5936 3.41299C63.4732 3.29441 63.3434 3.24358 63.2081 3.22744C62.9547 3.19721 62.683 3.28033 62.5259 3.48146C62.486 3.53245 62.4486 3.59081 62.4116 3.65804C62.4039 3.67203 62.3936 3.69916 62.3887 3.71436C62.3431 3.85593 62.2291 3.96575 62.0803 3.96575C52.2331 3.96575 42.3833 3.96575 32.2433 3.96575C32.0739 3.96575 31.9301 3.84198 31.9058 3.67433C31.9024 3.6507 31.8965 3.62688 31.8879 3.60459C31.822 3.43292 31.7426 3.27476 31.6631 3.1141C31.6097 3.00235 31.5492 2.89358 31.4724 2.79648C30.9922 2.1898 30.3359 1.89147 29.6915 1.85503C28.5688 1.81516 27.6062 2.25676 26.6278 2.98307C26.5778 3.02006 26.5778 3.02006 26.5267 3.0578C26.1079 3.36922 25.6983 3.69854 25.2918 4.03945C21.7623 6.9885 17.5537 6.3063 13.7075 5.04491C11.5985 4.32922 11.7605 1.58675 13.9844 1.46706C15.3653 1.39273 16.726 1.62541 17.8812 2.32862C18.418 2.67287 18.9346 3.06931 19.44 3.49338C20.1791 4.11283 20.9502 4.60512 21.7839 4.70344C22.4072 4.77696 23.0171 4.59346 23.4386 4.12832C23.8178 3.70983 24.0208 3.09072 23.9913 2.52674C23.9812 2.33445 23.9546 2.14574 23.9142 1.97582C23.8981 1.92674 23.8811 1.87963 23.8631 1.83439C23.6013 1.17609 22.7846 0.707363 22.1893 1.09141C22.0299 1.21595 21.904 1.36025 21.8034 1.54135C21.6655 1.78946 21.6079 2.0777 21.6261 2.36098C21.6303 2.42576 21.6381 2.48958 21.6501 2.55371C21.6836 2.73127 21.7618 2.90002 21.8782 3.03819C21.9016 3.06592 21.9258 3.09111 21.9518 3.11344C22.0567 3.20361 22.2043 3.22297 22.3412 3.20301C22.5641 3.1705 22.7087 2.94802 22.7527 2.72704C22.7694 2.64362 22.7763 2.55769 22.7788 2.45239C22.7808 2.36993 22.7696 2.28729 22.7443 2.20879C22.7215 2.13809 22.7059 2.10846 22.6626 2.03982C22.6463 2.01399 22.6233 1.99293 22.596 1.97922C22.5888 1.97562 22.5823 1.97239 22.5763 1.96949C22.5078 1.93651 22.4341 1.99059 22.4162 2.06451C22.4061 2.1065 22.4147 2.15156 22.44 2.18653C22.4463 2.19523 22.4527 2.20394 22.459 2.21269C22.4826 2.24522 22.4968 2.28367 22.4996 2.32375C22.5089 2.45679 22.5104 2.56028 22.4782 2.67428C22.4575 2.74751 22.4203 2.82954 22.3481 2.85369C22.2773 2.87738 22.2007 2.83697 22.1414 2.79159C22.1051 2.76379 22.0753 2.73359 22.0486 2.69806C21.9418 2.55575 21.9229 2.36662 21.943 2.18982C21.9544 2.0891 21.9715 1.99117 21.996 1.89505C22.0341 1.74566 22.1161 1.60317 22.2576 1.54181C22.3465 1.49273 22.4379 1.44565 22.5372 1.42417C22.7752 1.37266 22.9705 1.43654 23.2069 1.59401C23.4124 1.76324 23.5257 2.0147 23.5876 2.32795C23.5895 2.34841 23.5912 2.36865 23.5927 2.38868C23.6457 3.10969 23.2339 3.8794 22.5338 4.05994C22.3939 4.09603 22.248 4.11331 22.0972 4.11725C21.2424 4.12092 20.4908 3.60082 19.7756 2.99945C19.7186 2.95228 19.6616 2.9052 19.6045 2.85819C19.4046 2.69333 19.2049 2.52792 19.0056 2.36135C18.3317 1.80016 17.6164 1.41326 16.8512 1.15692C16.8139 1.1444 16.7765 1.13188 16.7381 1.11898C16.0413 0.902461 15.3475 0.859955 14.6364 0.862117C14.592 0.862153 14.5476 0.862188 14.5018 0.862225C12.7273 0.868716 10.8188 1.22394 9.12361 2.06832C8.75861 2.25013 8.361 2.39903 8.00682 2.19693C7.95468 2.16723 7.90255 2.13753 7.84883 2.10693C7.7263 2.03641 7.60403 1.96507 7.48185 1.8934C6.22521 1.15764 4.93806 0.491167 3.58909 0.166051C3.53061 0.150259 3.47213 0.134467 3.41188 0.118196C2.40094 -0.125343 1.39833 -0.0390716 0.548927 0.821172ZM7.11684 2.51064C7.13965 2.52457 7.16247 2.53844 7.18531 2.55227C7.39849 2.6814 7.47005 2.97862 7.25309 3.1013C7.21565 3.12288 7.17822 3.14445 7.13964 3.16668C7.09858 3.18987 7.05751 3.21305 7.01521 3.23693C6.62193 3.46355 6.2325 3.70015 5.8445 3.94338C4.72157 4.64598 3.57726 5.32447 2.35403 5.60356C2.31716 5.61217 2.2803 5.62078 2.24232 5.62966C2.15334 5.64775 2.06363 5.65859 1.97401 5.66907C1.93886 5.67329 1.90371 5.67751 1.86749 5.68186C1.40397 5.7125 0.933723 5.53331 0.576767 5.1158C0.333755 4.78726 0.284004 4.49277 0.267128 4.0618C0.265968 4.03204 0.303726 4.01871 0.321625 4.04253C0.696823 4.51656 1.08289 4.70759 1.59399 4.68639C2.02023 4.60978 2.40874 4.4162 2.68116 3.94016C2.72431 3.85194 2.76576 3.76343 2.80564 3.67331C2.84241 3.59024 2.80298 3.49203 2.71247 3.49984C2.67563 3.50301 2.62584 3.52337 2.60327 3.55267C2.56439 3.60316 2.55455 3.62268 2.50544 3.72008C2.47974 3.76544 2.45327 3.80694 2.42599 3.84511C2.13516 4.25201 1.54591 4.43162 1.09084 4.22414C0.998314 4.18195 0.907799 4.12293 0.818291 4.04274C0.76355 3.9937 0.718643 3.9366 0.679955 3.87412C0.514893 3.6076 0.464348 3.23199 0.710846 3.0383C0.73381 3.02025 0.758873 3.00208 0.786446 2.98307C0.939781 2.90553 1.09454 2.88865 1.24746 2.91473C1.49368 2.95671 1.70414 3.11758 1.84634 3.32292C1.90014 3.40056 1.90814 3.4121 1.9491 3.47123C1.96468 3.49372 1.98993 3.50717 2.01729 3.50717C2.06895 3.50717 2.10887 3.46046 2.09627 3.41036C2.03294 3.15859 1.90914 3.03138 1.74317 2.87124C1.48858 2.65916 1.20624 2.60333 0.915764 2.64958C0.892906 2.65322 0.870934 2.65976 0.849617 2.66877C0.617485 2.76692 0.342171 2.61846 0.371399 2.36813C0.402939 2.09793 0.474861 1.85679 0.588486 1.58465C0.612961 1.52603 0.644829 1.47056 0.68483 1.4212C1.14836 0.849294 1.80228 0.601282 2.41377 0.610561C4.06125 0.741004 5.62522 1.59785 7.11684 2.51064ZM68.0213 3.73724C68.324 3.9817 68.412 4.40106 68.1093 4.64544C68.0774 4.6715 68.0454 4.69756 68.0124 4.7244C67.012 5.51934 65.9317 5.591 64.8279 5.18787C64.5337 5.06549 64.2194 4.88767 64.006 4.57462C63.9406 4.47867 63.8871 4.36728 63.8793 4.25143C63.8691 4.10111 63.951 3.96178 64.0417 3.84145C64.4234 3.33474 65.0041 3.15177 65.5137 3.06403C66.4517 2.93648 67.2555 3.11859 68.0213 3.73724Z" fill="white"/>
</svg>
