<svg width="20" height="22" viewBox="0 0 20 22" fill="none" xmlns="http://www.w3.org/2000/svg">
<path d="M7.23445 2.44689C8.18667 -0.117192 11.8133 -0.117193 12.7656 2.44688C13.2589 3.7754 14.6272 4.56539 16.0244 4.3284C18.7211 3.87101 20.5344 7.0118 18.79 9.11848C17.8862 10.21 17.8862 11.79 18.79 12.8815C20.5344 14.9882 18.7211 18.129 16.0244 17.6716C14.6272 17.4346 13.2589 18.2246 12.7656 19.5531C11.8133 22.1172 8.18667 22.1172 7.23445 19.5531C6.74108 18.2246 5.37277 17.4346 3.97556 17.6716C1.27889 18.129 -0.534437 14.9882 1.21001 12.8815C2.11385 11.79 2.11385 10.21 1.21001 9.11848C-0.534436 7.0118 1.27889 3.87101 3.97556 4.3284C5.37277 4.56539 6.74108 3.7754 7.23445 2.44689Z" fill="#DF005E"/>
<g clip-path="url(#clip0_228_313)">
<path d="M8.33333 10.5833C8.62176 10.5833 8.90372 10.4978 9.14354 10.3375C9.38336 10.1773 9.57028 9.94952 9.68066 9.68304C9.79104 9.41656 9.81992 9.12334 9.76365 8.84045C9.70738 8.55756 9.56848 8.29771 9.36453 8.09376C9.16058 7.88981 8.90073 7.75092 8.61784 7.69465C8.33495 7.63838 8.04173 7.66726 7.77525 7.77764C7.50878 7.88801 7.28102 8.07493 7.12077 8.31475C6.96053 8.55457 6.875 8.83653 6.875 9.12496C6.875 9.51173 7.02865 9.88267 7.30214 10.1562C7.57563 10.4296 7.94656 10.5833 8.33333 10.5833ZM8.33333 8.49996C8.45695 8.49996 8.57778 8.53662 8.68056 8.60529C8.78335 8.67397 8.86345 8.77158 8.91076 8.88578C8.95806 8.99999 8.97044 9.12565 8.94632 9.24689C8.92221 9.36813 8.86268 9.47949 8.77528 9.5669C8.68787 9.65431 8.5765 9.71383 8.45526 9.73795C8.33403 9.76207 8.20836 9.74969 8.09416 9.70238C7.97995 9.65508 7.88234 9.57497 7.81366 9.47219C7.74499 9.36941 7.70833 9.24857 7.70833 9.12496C7.70833 8.9592 7.77418 8.80023 7.89139 8.68302C8.0086 8.56581 8.16757 8.49996 8.33333 8.49996Z" fill="white"/>
<path d="M11.6666 11.8334C11.3782 11.8334 11.0962 11.9189 10.8564 12.0791C10.6166 12.2394 10.4296 12.4672 10.3193 12.7336C10.2089 13.0001 10.18 13.2933 10.2363 13.5762C10.2925 13.8591 10.4314 14.119 10.6354 14.3229C10.8393 14.5269 11.0992 14.6657 11.3821 14.722C11.665 14.7783 11.9582 14.7494 12.2247 14.639C12.4911 14.5287 12.7189 14.3417 12.8791 14.1019C13.0394 13.8621 13.1249 13.5801 13.1249 13.2917C13.1249 12.9049 12.9713 12.534 12.6978 12.2605C12.4243 11.987 12.0534 11.8334 11.6666 11.8334ZM11.6666 13.9167C11.543 13.9167 11.4221 13.8801 11.3194 13.8114C11.2166 13.7427 11.1365 13.6451 11.0892 13.5309C11.0419 13.4167 11.0295 13.291 11.0536 13.1698C11.0777 13.0485 11.1372 12.9372 11.2246 12.8498C11.3121 12.7624 11.4234 12.7028 11.5447 12.6787C11.6659 12.6546 11.7916 12.667 11.9058 12.7143C12.02 12.7616 12.1176 12.8417 12.1863 12.9445C12.2549 13.0473 12.2916 13.1681 12.2916 13.2917C12.2916 13.4575 12.2257 13.6164 12.1085 13.7336C11.9913 13.8509 11.8323 13.9167 11.6666 13.9167Z" fill="white"/>
<path d="M13.2251 7.775C13.1906 7.74048 13.1497 7.7131 13.1047 7.69441C13.0596 7.67573 13.0113 7.66611 12.9626 7.66611C12.9138 7.66611 12.8655 7.67573 12.8205 7.69441C12.7754 7.7131 12.7345 7.74048 12.7001 7.775L6.77508 13.7C6.70633 13.7702 6.66749 13.8643 6.66675 13.9625C6.66664 14.0359 6.68833 14.1077 6.72907 14.1688C6.76981 14.2299 6.82776 14.2775 6.89559 14.3056C6.96342 14.3338 7.03807 14.3411 7.11008 14.3267C7.18209 14.3124 7.24822 14.277 7.30008 14.225L13.2251 8.3C13.2596 8.26556 13.287 8.22464 13.3057 8.1796C13.3244 8.13456 13.334 8.08627 13.334 8.0375C13.334 7.98874 13.3244 7.94045 13.3057 7.89541C13.287 7.85036 13.2596 7.80945 13.2251 7.775Z" fill="white"/>
</g>
<defs>
<clipPath id="clip0_228_313">
<rect width="10" height="10" fill="white" transform="translate(5 6)"/>
</clipPath>
</defs>
</svg>
