<svg width="45" height="36" viewBox="0 0 45 36" fill="none" xmlns="http://www.w3.org/2000/svg">
<g clip-path="url(#clip0_173_172)">
<path d="M19.8705 0.555862C18.234 0.976956 17.4779 1.3502 16.6836 2.14453C15.6309 3.1877 15.0088 4.69981 15.0662 6.0875C15.0854 6.62344 15.0758 6.65215 14.76 6.88184C14.3484 7.18809 13.9369 7.80059 13.8029 8.30782C13.6785 8.77676 13.7359 9.35098 14.0135 10.375C14.3484 11.6191 15.0471 12.3656 16.0807 12.5857C16.5592 12.6814 16.7314 12.6623 17.6598 12.4422L18.6934 12.2029L19.3059 12.5283C20.4543 13.1695 21.5645 13.3514 22.7512 13.1025C24.1197 12.8154 25.2682 12.0785 25.9572 11.0258C26.1678 10.7004 26.3879 10.375 26.4262 10.3272C26.474 10.2697 26.9238 10.1262 27.4406 10.0018C28.5508 9.73379 29.1441 9.37969 29.5461 8.70977C29.9193 8.10684 29.9863 7.24551 29.7375 6.24063C29.5078 5.2836 29.3738 4.97735 28.9623 4.52754C28.5316 4.04903 28.0148 3.78106 27.3928 3.7045C26.9238 3.64707 26.9238 3.64707 26.5793 2.99629C26.1582 2.20196 25.2203 1.27364 24.3781 0.833402C23.0766 0.144339 21.8037 0.0677767 19.8705 0.555862ZM23.5934 1.82871C24.3686 2.19239 25.0768 2.82403 25.4213 3.47481L25.6797 3.94375L25.2873 4.03946C24.9332 4.12559 24.8566 4.11602 24.4547 3.85762C23.4307 3.20684 21.9664 2.94844 20.7701 3.1877C19.5164 3.45567 18.2627 4.32657 17.5354 5.44629C17.2674 5.86739 17.0664 6.06836 16.8941 6.11621C16.7506 6.14493 16.5592 6.19278 16.473 6.22149C16.0807 6.33633 16.3678 4.70938 16.8846 3.8002C17.4588 2.79532 18.3775 2.2211 20.1768 1.75215C21.6314 1.36934 22.665 1.38848 23.5934 1.82871ZM23.3924 4.69981C24.1771 5.09219 24.8471 5.75254 25.2299 6.54688C25.4883 7.07325 25.5457 7.29336 25.5648 8.00157C25.6223 9.4084 25.1533 10.4133 24.0623 11.2363C23.3732 11.7531 22.7416 11.9445 21.7367 11.9445C20.952 11.9445 20.8562 11.9254 20.1576 11.5713L19.4111 11.1885L18.8656 8.93946L18.3105 6.69043L18.4732 6.31719C18.6934 5.8291 19.4111 5.09219 19.9471 4.81465C20.6936 4.43184 21.0955 4.34571 21.9568 4.37442C22.6555 4.40313 22.8756 4.45098 23.3924 4.69981ZM27.6895 5.06348C28.1393 5.29317 28.3402 5.64727 28.5603 6.59473L28.7613 7.49434L28.5508 7.94414C28.3211 8.41309 27.9287 8.66192 27.2109 8.7959L26.876 8.85332L26.8568 8.05899C26.8473 7.19766 26.608 6.32676 26.1869 5.60899C26.0625 5.3793 25.9668 5.17832 25.9859 5.15918C25.9955 5.14004 26.1678 5.08262 26.3496 5.03477C26.8473 4.89121 27.3736 4.90078 27.6895 5.06348ZM17.6406 9.10215C17.8799 10.0879 18.0713 10.9397 18.0713 10.9875C18.0713 11.1311 16.7793 11.4373 16.4061 11.3895C16.0232 11.332 15.6883 11.1215 15.4777 10.8057C15.2959 10.5377 14.9609 9.30313 14.9609 8.91075C14.9609 8.45137 15.2385 7.992 15.6404 7.78145C15.9371 7.63789 16.7984 7.36993 17.1621 7.32207C17.1908 7.32207 17.4014 8.11641 17.6406 9.10215Z" fill="white"/>
<path d="M33.6709 4.38399C33.1637 4.61367 32.6277 5.14961 32.465 5.58028C32.4076 5.71426 31.9578 7.27422 31.4602 9.03516C30.9625 10.7961 30.4936 12.2986 30.4266 12.3656C30.2543 12.5475 26.3592 13.7725 25.4883 13.9256C24.5982 14.0787 22.1961 14.0787 21.4018 13.9256C21.0764 13.8682 20.3395 13.6385 19.7748 13.4184C17.9182 12.7197 16.9611 12.8059 15.985 13.7629C15.6309 14.117 8.57754 24.0031 8.06075 24.8645C7.95547 25.0463 7.84063 25.4387 7.81192 25.7258C7.7545 26.2617 7.7545 26.2617 7.22813 26.5488C6.74004 26.8168 6.61563 26.8359 5.7543 26.8359C4.77813 26.8359 4.44317 26.9316 4.13692 27.2762C3.87852 27.5729 1.38067 33.0375 1.31368 33.4395C1.17012 34.3582 1.57207 35.21 2.29942 35.5066C2.54825 35.6215 4.2709 35.6406 11.6496 35.6406C17.8033 35.6406 20.7797 35.6119 20.9615 35.5354C21.1051 35.4875 21.3539 35.3248 21.507 35.1813C22.0334 34.6932 22.043 34.5879 22.043 31.0947C22.043 27.6207 22.043 27.6111 21.5166 27.123C21.2869 26.9029 21.1721 26.8838 20.3203 26.8551L19.3824 26.8168L19.325 26.5488C19.2963 26.3957 18.9709 24.5582 18.5977 22.4623C18.2244 20.3664 17.8512 18.5576 17.7842 18.4523C17.6215 18.1939 17.3344 18.1174 17.0568 18.2609C16.942 18.3184 15.516 20.242 13.8986 22.5293C12.2813 24.8166 10.8648 26.7689 10.75 26.8551C10.616 26.9604 10.3768 27.0273 10.1088 27.0273C9.30489 27.0273 8.76895 26.166 9.14219 25.4674C9.23789 25.276 13.4393 19.3232 15.8414 15.9449C16.4731 15.074 16.9994 14.4328 17.1621 14.3467C17.6311 14.1074 18.2148 14.1744 19.4781 14.6242C20.1289 14.8539 20.9807 15.0932 21.3731 15.1602C22.8947 15.4186 25.6414 15.2559 27.0195 14.8348C29.3355 14.1074 30.8572 13.5715 31.1156 13.3705C31.2879 13.2461 31.508 12.9781 31.6037 12.7867C31.6994 12.5953 32.1779 11.0066 32.666 9.27442C33.1541 7.53262 33.6231 6.02051 33.6996 5.8961C33.8814 5.61856 34.3025 5.39844 34.6566 5.39844C35.0682 5.39844 35.5658 5.77168 35.6998 6.19278C35.8147 6.52774 35.7572 6.81485 34.8576 10.3367C34.3313 12.4135 33.8527 14.2318 33.8049 14.3754C33.5656 15.007 33.2211 15.208 30.4744 16.3086C29.0197 16.8828 27.699 17.4475 27.5363 17.5432C27.2014 17.7441 26.8281 18.4332 26.8281 18.8352C26.8281 18.9883 27.1344 20.6152 27.5076 22.4527C27.8809 24.2902 28.168 25.8502 28.1393 25.9172C28.1105 25.9842 27.967 26.0799 27.8139 26.1182C27.6703 26.1469 27.2588 26.3287 26.8951 26.5105C26.2826 26.8168 26.1869 26.8359 25.2682 26.8359C24.158 26.8359 23.8039 26.9699 23.5072 27.525C23.3541 27.8121 23.335 28.1375 23.335 31.0469C23.335 32.8078 23.3637 34.3678 23.402 34.5113C23.5072 34.875 23.9475 35.3535 24.3111 35.5066C24.5695 35.6215 26.2443 35.6406 33.6996 35.6406H42.7818L43.1934 35.4205C43.8059 35.0951 44.0834 34.54 44.0355 33.7266C44.0068 33.1619 43.8824 32.8557 42.7244 30.377C42.0258 28.8744 41.3941 27.5537 41.3176 27.4293C41.0113 26.9604 40.6381 26.8359 39.5375 26.8359C38.5518 26.8359 38.4752 26.8168 37.8627 26.5105C36.676 25.9172 35.5754 25.6588 33.5943 25.4865C32.3885 25.3908 30.3596 25.4674 29.6514 25.6492C29.393 25.7162 29.5078 26.1277 28.6273 21.7924C28.0244 18.8064 28.0244 18.8064 28.2158 18.6246C28.3211 18.5193 29.5844 17.9738 31.0295 17.3996C33.3838 16.4617 33.7092 16.3086 34.159 15.9066C34.427 15.6482 34.7428 15.2654 34.848 15.0357C35.183 14.3275 36.9727 7.10196 36.9727 6.47989C36.9631 5.76211 36.7334 5.25488 36.1783 4.7668C35.4414 4.11602 34.5322 3.98203 33.6709 4.38399ZM17.5449 23.5246C17.8129 25.0463 18.0139 26.3 18.0043 26.3096C17.9852 26.3287 17.6502 26.233 17.2578 26.099C16.3582 25.8023 14.8174 25.4961 14.1666 25.4961C13.8891 25.4961 13.6115 25.4578 13.5445 25.41C13.4488 25.3525 13.8795 24.6826 15.1619 22.8643C16.5688 20.8832 16.9229 20.4334 16.9803 20.577C17.0281 20.6727 17.277 22.0029 17.5449 23.5246ZM15.4203 26.8934C16.9707 27.2092 18.2818 27.7738 18.4828 28.2236C18.8178 28.951 16.9707 29.8027 14.4729 30.0994C12.6736 30.31 10.2045 30.0898 8.64454 29.5922C7.11329 29.1041 6.65391 28.5203 7.3334 27.9174C7.50567 27.7643 7.78321 27.5824 7.9459 27.5154C8.21387 27.4102 8.26172 27.4197 8.5584 27.6877C9.03692 28.1279 9.57285 28.3002 10.3002 28.2523C11.0658 28.2045 11.5443 27.9174 12.1186 27.1613L12.5205 26.6254L13.602 26.6828C14.2049 26.7115 15.0184 26.8072 15.4203 26.8934ZM34.982 26.8742C36.6377 27.1709 38.0254 27.8408 38.102 28.3576C38.2072 29.0371 36.4654 29.8027 34.2451 30.0803C31.7855 30.377 28.6273 29.9654 27.2397 29.1711C26.5506 28.7787 26.4549 28.348 26.9525 27.927C27.5746 27.4006 29.058 26.9221 30.6563 26.7498C31.6803 26.635 34.0154 26.702 34.982 26.8742ZM5.77344 28.415C5.77344 29.707 7.2377 30.6832 9.93653 31.2096C11.1424 31.4393 14.1762 31.4393 15.4395 31.2096C18.167 30.7119 19.7461 29.7166 19.7461 28.5012V28.0801H20.2725H20.7988V30.0133V31.9561L12.0324 31.9273C7.21856 31.9178 3.29473 31.8699 3.31387 31.8316C3.33301 31.7934 3.73497 30.932 4.20391 29.9176L5.05567 28.0801H5.40977C5.76387 28.0801 5.77344 28.0896 5.77344 28.415ZM25.3926 28.415C25.3926 28.6064 25.45 28.9031 25.5266 29.0754C26.3592 31.0564 31.8813 32.0613 36.0922 30.9895C38.1498 30.4727 39.3652 29.5156 39.3652 28.4246V28.0801H39.8246H40.2936L41.174 29.9559C41.6525 30.999 42.0354 31.8508 42.0162 31.8699C41.9971 31.8891 38.0541 31.9178 33.2594 31.9273L24.5313 31.9561V30.0803C24.5313 29.0467 24.56 28.1758 24.5982 28.1471C24.627 28.1088 24.8279 28.0801 25.0289 28.0801C25.383 28.0801 25.3926 28.0896 25.3926 28.415ZM20.7031 33.3342C20.8371 33.5926 20.8275 34.1381 20.684 34.2816C20.5213 34.4443 2.79707 34.4443 2.63438 34.2816C2.49082 34.1381 2.48125 33.5926 2.61524 33.3342C2.71094 33.1523 2.92149 33.1523 11.6592 33.1523C20.3969 33.1523 20.6074 33.1523 20.7031 33.3342ZM42.6957 33.2672C42.8488 33.4203 42.8488 34.1285 42.6957 34.2816C42.6096 34.3678 40.4658 34.3965 33.6518 34.3965C24.9332 34.3965 24.7227 34.3965 24.627 34.2146C24.4834 33.9371 24.5121 33.4777 24.6844 33.3055C24.8184 33.1715 25.7658 33.1523 33.7092 33.1523C40.485 33.1523 42.6096 33.1811 42.6957 33.2672Z" fill="white"/>
<path d="M12.2047 27.7643C11.908 28.0227 11.8697 28.3002 12.0898 28.5777C12.4344 29.018 13.1809 28.9701 13.2957 28.4916C13.3914 28.1088 13.267 27.8217 12.9416 27.7068C12.5301 27.5633 12.4344 27.5729 12.2047 27.7643Z" fill="white"/>
<path d="M31.9004 27.7738C31.307 28.2523 32.0152 29.1424 32.733 28.817C33.1541 28.6256 33.1445 27.9078 32.7139 27.7164C32.3693 27.5537 32.1492 27.5729 31.9004 27.7738Z" fill="white"/>
</g>
<defs>
<clipPath id="clip0_173_172">
<rect width="44" height="36" fill="white" transform="translate(0.5)"/>
</clipPath>
</defs>
</svg>
