<svg width="155" height="236" viewBox="0 0 155 236" fill="none" xmlns="http://www.w3.org/2000/svg">
<path d="M77.3444 234.373C77.2805 234.415 77.2229 234.453 77.1718 234.488C77.1208 234.453 77.0632 234.415 76.9992 234.373C76.6949 234.173 76.2453 233.891 75.6575 233.557C74.4821 232.89 72.7531 232.016 70.5264 231.181C66.0725 229.511 59.6256 227.995 51.6388 228.601C43.7665 229.198 35.6456 228.744 29.3633 226.309C23.1099 223.886 18.7185 219.525 18.1305 212.265C17.8177 208.402 16.5084 206.37 14.6411 205.131C13.73 204.527 12.7106 204.129 11.6768 203.786C11.2787 203.654 10.8855 203.532 10.4935 203.411C9.84254 203.209 9.19499 203.009 8.53412 202.764C6.47132 202.001 4.49759 200.88 3.01764 198.307C1.52248 195.708 0.5 191.574 0.5 184.714V50.3831C0.5 43.5236 1.52248 39.3892 3.01764 36.7902C4.49759 34.2176 6.47132 33.0963 8.53412 32.3332C9.19501 32.0887 9.84258 31.8882 10.4936 31.6865C10.8855 31.5652 11.2787 31.4434 11.6768 31.3114C12.7106 30.9687 13.73 30.5703 14.6411 29.9661C16.5084 28.7277 17.8177 26.6951 18.1305 22.8329C18.7185 15.5738 23.1098 11.2125 29.3633 8.78862C35.6456 6.35356 43.7665 5.89903 51.6388 6.49668C59.6256 7.1031 66.0725 5.58759 70.5264 3.91721C72.7531 3.08211 74.4822 2.20814 75.6576 1.54075C76.2453 1.20702 76.6949 0.924819 76.9992 0.724764C77.0632 0.682708 77.1208 0.64428 77.1719 0.609763C77.223 0.64428 77.2805 0.682708 77.3445 0.724764C77.6488 0.924819 78.0984 1.20702 78.6862 1.54075C79.8616 2.20814 81.5906 3.08211 83.8173 3.91721C88.2712 5.58759 94.7181 7.1031 102.705 6.49668C110.579 5.89903 118.7 6.35313 124.982 8.78796C131.235 11.2116 135.625 15.5729 136.213 22.8329C136.527 26.6952 137.836 28.7278 139.703 29.9661C140.615 30.5703 141.634 30.9687 142.668 31.3114C143.066 31.4434 143.459 31.5651 143.851 31.6865C144.502 31.8881 145.149 32.0887 145.81 32.3332C147.873 33.0963 149.847 34.2176 151.326 36.7902C152.821 39.3892 153.844 43.5236 153.844 50.3831V184.714C153.844 191.574 152.821 195.708 151.327 198.307C149.847 200.88 147.873 202.001 145.811 202.764C145.15 203.009 144.502 203.209 143.851 203.411C143.46 203.532 143.066 203.654 142.668 203.786C141.635 204.129 140.615 204.527 139.704 205.131C137.837 206.37 136.527 208.402 136.213 212.264L136.213 212.265C135.625 219.525 131.235 223.886 124.982 226.309C118.7 228.744 110.579 229.198 102.705 228.601C94.7172 227.995 88.2703 229.511 83.8167 231.181C81.5901 232.016 79.8612 232.89 78.6859 233.557C78.0982 233.891 77.6487 234.173 77.3444 234.373Z" stroke="#D99221"/>
</svg>
