<svg width="24" height="22" viewBox="0 0 24 22" fill="none" xmlns="http://www.w3.org/2000/svg">
<g opacity="0.6" clip-path="url(#clip0_1_119)">
<path d="M3.42076 2.68759H5.29016V4.47662H3.42076L3.42076 2.68759ZM7.15955 2.68759H9.02894V4.47662H7.15955V2.68759ZM10.8983 2.68759H12.7677V4.47662H10.8983V2.68759ZM14.6371 2.68759H16.5065V4.47662H14.6371V2.68759ZM18.3759 2.68759H20.2453V4.47662H18.3759V2.68759ZM18.3759 6.26566H20.2453V8.05469H18.3759V6.26566ZM3.42076 16.9998H5.29016V18.7889H3.42076L3.42076 16.9998ZM3.42076 13.4218H5.29016V15.2108H3.42076L3.42076 13.4218ZM3.42076 9.84372H5.29016V11.6328H3.42076L3.42076 9.84372ZM3.42076 6.26566H5.29016L5.29016 8.05469H3.42076L3.42076 6.26566ZM10.5871 9.84372L11.5554 8.45275C11.6408 8.33027 11.7565 8.22986 11.8921 8.16042C12.0278 8.09099 12.1793 8.05467 12.3331 8.05469H15.0718C15.2256 8.05467 15.3771 8.09099 15.5127 8.16042C15.6484 8.22986 15.764 8.33027 15.8494 8.45275L16.8178 9.84372H19.3106C19.5585 9.84372 19.7963 9.93796 19.9715 10.1057C20.1468 10.2735 20.2453 10.501 20.2453 10.7382L20.2453 17.8944C20.2453 18.1316 20.1468 18.3591 19.9715 18.5269C19.7963 18.6946 19.5585 18.7889 19.3106 18.7889H8.09425C7.84635 18.7889 7.60861 18.6946 7.43332 18.5269C7.25803 18.3591 7.15955 18.1316 7.15955 17.8944L7.15955 10.7382C7.15955 10.501 7.25803 10.2735 7.43332 10.1057C7.60861 9.93796 7.84635 9.84372 8.09425 9.84372H10.5871ZM9.02894 16.9998H18.3759V11.6328H15.8176L14.5717 9.84372H12.8332L11.5872 11.6328H9.02894L9.02894 16.9998ZM13.7024 16.1053C13.2066 16.1053 12.7311 15.9168 12.3806 15.5813C12.03 15.2458 11.833 14.7908 11.833 14.3163C11.833 13.8418 12.03 13.3868 12.3806 13.0513C12.7311 12.7158 13.2066 12.5273 13.7024 12.5273C14.1982 12.5273 14.6737 12.7158 15.0243 13.0513C15.3749 13.3868 15.5718 13.8418 15.5718 14.3163C15.5718 14.7908 15.3749 15.2458 15.0243 15.5813C14.6737 15.9168 14.1982 16.1053 13.7024 16.1053Z" fill="#1E2742"/>
</g>
<defs>
<clipPath id="clip0_1_119">
<rect width="22.4327" height="21.4684" fill="white" transform="translate(0.616669 0.00402832)"/>
</clipPath>
</defs>
</svg>
