<svg width="29" height="30" viewBox="0 0 29 30" fill="none" xmlns="http://www.w3.org/2000/svg">
<path d="M1.08768 8.72894C1.15414 7.22284 1.38154 6.25149 1.68907 5.42698L1.6932 5.41559C1.99795 4.57656 2.47535 3.81649 3.09217 3.18826L3.10082 3.17945L3.10932 3.17047C3.71561 2.52998 4.4488 2.03538 5.25715 1.72019L5.27109 1.71466C6.06435 1.39474 6.99918 1.15979 8.4527 1.09088M1.08768 8.72894C1.01781 10.3381 1 10.837 1 15.0093C1 19.1825 1.01683 19.6801 1.08764 21.2897M1.08768 8.72894V9.13485M8.4527 1.09088C10.0048 1.01745 10.4856 1 14.5088 1C18.5321 1 19.0127 1.01845 20.5644 1.0909M8.4527 1.09088H8.84512M1.08764 21.2897C1.15408 22.7971 1.38064 23.7665 1.68914 24.5891L1.69447 24.6037M1.08764 21.2897L1.11144 21.4197M1.08764 21.2897V20.8828M1.08768 9.13485C1.09311 9.00589 1.09896 8.87146 1.10523 8.7285C1.17806 7.08063 1.44819 6.11781 1.70567 5.43491C2.0389 4.54306 2.46102 3.87009 3.10593 3.19853C3.71891 2.54643 4.46409 2.04391 5.28746 1.72738C5.94307 1.46368 6.86904 1.18439 8.45206 1.10914C8.59036 1.10263 8.72038 1.09654 8.84512 1.09088M1.08768 9.13485C1.03017 10.4985 1.01781 11.2508 1.01781 15.0093C1.01781 18.7664 1.03017 19.5198 1.08764 20.8828M1.08768 9.13485L1.08764 20.8828M1.69447 24.6037C1.9984 25.4419 2.47533 26.2022 3.09295 26.831L3.10159 26.8399L3.11007 26.8487C3.7159 27.4884 4.44885 27.9836 5.25791 28.2996L5.26999 28.3043C6.06397 28.6236 6.99925 28.8587 8.4527 28.9276M1.69447 24.6037L1.67625 24.5041M1.67625 24.5041L1.11144 21.4197M1.67625 24.5041C1.43636 23.847 1.18935 22.9299 1.11144 21.4197M1.67625 24.5041C1.68466 24.5272 1.69306 24.5499 1.70146 24.5723C2.00566 25.4228 2.48767 26.1929 3.11285 26.8272C3.72431 27.4755 4.46661 27.9752 5.28644 28.2907C5.94436 28.5564 6.87143 28.8342 8.45247 28.9094C10.048 28.9847 10.541 29 14.5088 29C18.4768 29 18.9702 28.9847 20.5658 28.9094C22.1487 28.8341 23.0746 28.5548 23.7303 28.2912C24.5505 27.9758 25.2933 27.4758 25.9049 26.8272C26.5299 26.1931 27.0118 25.4234 27.316 24.5732C27.5723 23.8909 27.8401 22.9296 27.9125 21.29C27.9851 19.6353 28 19.1231 28 15.0093C28 10.8954 27.9851 10.3827 27.9125 8.72807C27.8396 7.07787 27.5679 6.11616 27.3124 5.43567C26.9784 4.54159 26.5549 3.86539 25.9039 3.19029C25.2542 2.51788 24.604 2.07843 23.7411 1.73174C23.0826 1.46476 22.1547 1.18467 20.5658 1.10914C20.4275 1.10263 20.2976 1.09656 20.173 1.0909M1.11144 21.4197C1.10924 21.3771 1.10718 21.334 1.10524 21.2904C1.09896 21.147 1.09309 21.0122 1.08764 20.8828M20.173 1.0909H20.5644M20.173 1.0909L8.84512 1.09088M20.173 1.0909C18.8585 1.0313 18.1322 1.01847 14.5088 1.01847C10.8858 1.01847 10.1594 1.03129 8.84512 1.09088M20.5644 1.0909C22.017 1.15981 22.9537 1.3956 23.7489 1.71455L23.7599 1.71888C24.5689 2.03491 25.3019 2.52999 25.9076 3.16966L25.916 3.17855L25.9247 3.18727C26.5416 3.81555 27.0189 4.57584 27.3234 5.4151L27.3286 5.42929C27.6371 6.25193 27.8637 7.22138 27.9301 8.72874M27.9301 21.2897C27.8637 22.797 27.6371 23.7669 27.3291 24.5903L27.3246 24.6028C27.0198 25.4419 26.5424 26.2019 25.9255 26.8301L25.9169 26.839L25.9085 26.848C25.3021 27.4884 24.569 27.983 23.7606 28.2982L23.7467 28.3038C22.9534 28.6238 22.0185 28.8587 20.5651 28.9276M12.1063 21.0246C12.8679 21.3517 13.6843 21.5202 14.5088 21.5202C16.174 21.5202 17.771 20.8342 18.9485 19.6132C20.1258 18.3921 20.7873 16.736 20.7873 15.0093C20.7873 13.2824 20.1258 11.6263 18.9485 10.4053C17.771 9.18424 16.174 8.49825 14.5088 8.49825C13.6843 8.49825 12.8679 8.66666 12.1063 8.99388C11.3444 9.32108 10.6524 9.80068 10.0694 10.4053C9.48637 11.0099 9.0239 11.7276 8.70837 12.5176C8.39286 13.3075 8.23046 14.1543 8.23046 15.0093C8.23046 15.8643 8.39286 16.7109 8.70837 17.5008C9.0239 18.2909 9.48637 19.0086 10.0694 19.6132C10.6524 20.2177 11.3444 20.6974 12.1063 21.0246ZM10.0554 10.3908C11.2366 9.16588 12.8385 8.47774 14.5088 8.47774C16.1793 8.47774 17.7812 9.16588 18.9624 10.3908C20.1436 11.6157 20.8071 13.277 20.8071 15.0093C20.8071 16.7415 20.1436 18.4027 18.9624 19.6277C17.7812 20.8526 16.1793 21.5407 14.5088 21.5407C12.8385 21.5407 11.2366 20.8526 10.0554 19.6277C8.87424 18.4027 8.21068 16.7415 8.21068 15.0093C8.21068 13.277 8.87424 11.6157 10.0554 10.3908ZM24.3536 6.95706C24.3536 7.45287 24.1636 7.92836 23.8257 8.27895C23.4876 8.62954 23.029 8.8265 22.551 8.8265C22.0728 8.8265 21.6144 8.62954 21.2763 8.27895C20.9382 7.92836 20.7482 7.45287 20.7482 6.95706C20.7482 6.46125 20.9382 5.98575 21.2763 5.63518C21.6144 5.28459 22.0728 5.08763 22.551 5.08763C23.029 5.08763 23.4876 5.28459 23.8257 5.63518C24.1636 5.98575 24.3536 6.46125 24.3536 6.95706Z" stroke="#9A999E" stroke-width="1.5" stroke-linejoin="round"/>
</svg>
