<svg width="32" height="33" viewBox="0 0 32 33" fill="none" xmlns="http://www.w3.org/2000/svg">
<path d="M27.4587 32.1015H4.54624C4.47935 32.1003 4.41367 32.0829 4.35435 32.0509L4.28062 31.99C4.23399 31.9381 4.20005 31.8754 4.18223 31.8072H4.192C4.15757 31.7211 4.192 17.7635 4.192 17.6771C4.19151 17.622 4.19981 17.5671 4.21665 17.5148L4.2462 17.4639V17.4641C4.26524 17.4367 4.28843 17.4128 4.31504 17.3929L7.91661 14.6428L7.91636 2.67387C7.91636 2.20305 8.09776 1.75141 8.42076 1.41832C8.74376 1.08522 9.18176 0.898163 9.63851 0.898163H25.0579C25.5142 0.900932 25.9512 1.0885 26.2744 1.42084C26.5977 1.75318 26.781 2.20336 26.7849 2.67387V7.78836C26.7823 7.99733 26.6184 8.16626 26.4158 8.16878H24.074V14.6225L27.6756 17.3726H27.6753C27.7019 17.3922 27.7251 17.4161 27.7442 17.4436L27.7737 17.4944V17.4942C27.7984 17.5485 27.8133 17.607 27.8181 17.6669V31.7969C27.8001 31.8652 27.7664 31.9279 27.7197 31.9797L27.646 32.0406L27.6458 32.0404C27.5889 32.0756 27.5249 32.0965 27.459 32.1013L27.4587 32.1015ZM5.66812 31.3404H26.3319L16 23.461L5.66812 31.3404ZM18.8737 24.6991L27.09 30.9652V18.4329L23.9264 20.8482L18.8737 24.6991ZM4.91062 18.4331V30.9653L13.1269 24.6993L8.07412 20.8482L4.91062 18.4331ZM16.0006 22.5883C16.0802 22.5888 16.1578 22.6155 16.2218 22.6646L18.2538 24.1868L23.3361 20.3052L23.3363 2.67407C23.3356 2.31102 23.444 1.95651 23.6461 1.65945H9.64862C9.38763 1.65945 9.13739 1.76645 8.95281 1.95654C8.76824 2.14687 8.66447 2.40494 8.66447 2.67409V20.3458L13.7467 24.2274L15.7787 22.7052H15.779C15.8376 22.6415 15.9157 22.6002 16.0004 22.5884L16.0006 22.5883ZM24.0744 15.5713V19.7877L26.8246 17.6768L24.0744 15.5713ZM5.17624 17.6768L7.93624 19.7874L7.93649 15.5713L5.17624 17.6768ZM24.0744 7.40753H26.0424V2.67351C26.0424 2.31096 25.8546 1.97613 25.5502 1.79482C25.2457 1.61355 24.8707 1.61355 24.5663 1.79482C24.2619 1.9761 24.0744 2.31095 24.0744 2.67351L24.0744 7.40753ZM16.0006 18.1789C15.9025 18.1794 15.8085 18.1392 15.7399 18.0674L11.7743 13.9625C7.98087 10.0762 12.0646 5.49981 16.0006 9.08676C17.8654 7.21459 20.8812 7.32107 21.6291 9.92388C21.9687 11.2329 21.4569 12.7095 20.2319 13.9829L16.2614 18.0724C16.1921 18.1429 16.0979 18.1814 16.0007 18.1789L16.0006 18.1789ZM13.1224 8.53868C10.8346 8.6555 10.1706 11.2279 12.2957 13.4144L16.0006 17.2605L19.7102 13.4552C20.4026 12.814 20.8523 11.9403 20.9796 10.9894C21.0633 8.05174 17.9192 7.98574 16.2613 9.90348V9.90373C16.1151 10.0467 15.8858 10.0467 15.7398 9.90373C15.0755 9.11418 14.1334 8.63026 13.1221 8.55904L13.1224 8.53868Z" fill="#F6F3E6" stroke="white"/>
</svg>
