<svg width="41" height="35" viewBox="0 0 41 35" fill="none" xmlns="http://www.w3.org/2000/svg">
<path d="M38.0191 24.1295C37.9181 24.1295 37.8188 24.1372 37.7217 24.1517C37.7202 24.1488 37.7192 24.1456 37.7176 24.1427C36.9408 22.582 35.7479 21.267 34.2683 20.34C32.7462 19.3862 30.9865 18.8883 29.1819 18.9057C28.6536 18.9102 28.1357 18.9598 27.6311 19.0496C27.9941 18.4331 28.4569 17.8562 29.0151 17.3254C30.4669 15.9449 32.3641 15.0973 34.3572 14.939C34.4959 14.9279 34.6279 14.8971 34.7517 14.8507C35.1151 15.3843 35.7274 15.7356 36.4203 15.7356C37.5329 15.7356 38.438 14.8305 38.438 13.7179C38.438 12.6053 37.5329 11.7002 36.4203 11.7002C35.8501 11.7002 35.3349 11.9383 34.9676 12.3198C34.9236 12.2939 34.8784 12.2693 34.8309 12.2477C31.4573 10.7145 27.6016 10.5196 24.1138 11.6379C23.5848 9.37057 22.6354 7.49437 21.2204 5.92243C19.754 4.29371 17.7695 2.97804 15.1534 1.90047C15.0667 1.86483 14.9787 1.83965 14.8905 1.82248C14.8683 1.59689 14.8077 1.37428 14.7087 1.16288C14.4802 0.674774 14.0751 0.304951 13.5683 0.121566C13.0616 -0.061896 12.5137 -0.0370172 12.0257 0.191546C11.5376 0.420187 11.1679 0.825191 10.9844 1.33192C10.8008 1.83865 10.8258 2.38652 11.0544 2.87456C11.283 3.36252 11.6879 3.73249 12.1947 3.91588C12.419 3.997 12.6512 4.03737 12.8827 4.03737C13.1185 4.03737 13.3534 3.99471 13.5784 3.91145C13.5928 3.93106 13.6068 3.9509 13.6224 3.96998C15.0457 5.71378 15.7796 7.91395 15.6887 10.1652C15.6694 10.6451 15.6123 11.1129 15.5203 11.5634C14.4164 11.2819 13.2736 11.1507 12.1158 11.1808C9.63598 11.2446 7.25487 12.0286 5.23023 13.4479C5.21741 13.4569 5.20566 13.4669 5.19322 13.4762C4.86018 13.2334 4.45044 13.0897 4.00759 13.0897C2.89499 13.0897 1.98989 13.9948 1.98989 15.1074C1.98989 16.22 2.89499 17.125 4.00759 17.125C4.87292 17.125 5.61249 16.5774 5.8986 15.8107C5.97026 15.8148 6.04337 15.8133 6.11724 15.8056C7.75969 15.636 9.36414 16.0175 10.7577 16.9096C11.635 17.4711 12.3149 18.1634 12.791 18.9742C12.447 18.9323 12.0977 18.9087 11.7436 18.9056C11.7163 18.9054 11.6892 18.9053 11.6619 18.9053C9.88507 18.9053 8.15623 19.4006 6.65702 20.34C5.17742 21.267 3.98469 22.582 3.20773 24.1427C3.19621 24.166 3.18621 24.1897 3.17613 24.2132C3.1118 24.2071 3.04663 24.2036 2.98069 24.2036C1.86848 24.2035 0.963379 25.1087 0.963379 26.2212C0.963379 27.3337 1.86848 28.2388 2.98107 28.2388C4.09359 28.2388 4.99869 27.3337 4.99869 26.2212C4.99869 26.0919 4.98595 25.9656 4.96259 25.843C4.9951 25.8253 5.02716 25.8063 5.05867 25.7855C5.90501 25.2289 6.89039 24.9347 7.9082 24.9347C9.25265 24.9347 10.3937 25.447 11.2079 26.4162C11.8808 27.2172 12.2943 28.2969 12.4009 29.503C11.5706 29.5153 10.8986 30.1936 10.8986 31.0268V33.4016C10.8986 34.2425 11.5827 34.9266 12.4236 34.9266H28.4762C29.3171 34.9266 30.0012 34.2425 30.0012 33.4016V31.0268C30.0012 30.1957 29.3327 29.5191 28.5053 29.5033C28.6127 28.299 29.0292 27.2198 29.7067 26.4176C30.5262 25.4476 31.671 24.9348 33.0172 24.9348C34.035 24.9348 35.0205 25.229 35.8668 25.7856C35.9167 25.8183 35.9682 25.8463 36.0205 25.8714C36.0081 25.9617 36.0012 26.0537 36.0012 26.1472C36.0012 27.2598 36.9063 28.1648 38.0188 28.1648C39.1314 28.1648 40.0365 27.2597 40.0365 26.1472C40.0365 25.0347 39.1317 24.1295 38.0191 24.1295ZM36.4204 12.9565C36.8403 12.9565 37.1819 13.2981 37.1819 13.7179C37.1819 14.1377 36.8403 14.4793 36.4204 14.4793C36.0005 14.4793 35.659 14.1377 35.659 13.7179C35.659 13.298 36.0005 12.9565 36.4204 12.9565ZM13.5976 2.278C13.5838 2.31616 13.5664 2.35226 13.5472 2.38721C13.5296 2.41323 13.513 2.43964 13.4974 2.46642C13.4227 2.56953 13.323 2.65286 13.2045 2.70834C13.0203 2.79458 12.8133 2.80389 12.6223 2.73475C12.4311 2.66545 12.2782 2.52595 12.192 2.3418C12.1058 2.15765 12.0963 1.95091 12.1655 1.75959C12.2347 1.56827 12.3743 1.41549 12.5585 1.32925C12.6612 1.28117 12.7708 1.25698 12.881 1.25698C12.9685 1.25698 13.0562 1.27224 13.1407 1.30285C13.332 1.37214 13.4849 1.51164 13.5711 1.69579C13.6575 1.88002 13.6669 2.08676 13.5976 2.278ZM4.00782 15.8689C3.58793 15.8689 3.24634 15.5273 3.24634 15.1075C3.24634 14.6877 3.58793 14.346 4.00782 14.346C4.34154 14.346 4.62513 14.5621 4.72777 14.8614C4.73067 14.8717 4.73464 14.8821 4.73792 14.8924C4.75807 14.9607 4.76929 15.0327 4.76929 15.1075C4.76921 15.5273 4.42763 15.8689 4.00782 15.8689ZM11.4353 15.8516C9.79975 14.8048 7.9166 14.3569 5.98827 14.5561C5.96026 14.5589 5.95667 14.5543 5.94874 14.5439C5.94546 14.5396 5.94309 14.535 5.94095 14.5306C5.93844 14.5221 5.93615 14.5135 5.93347 14.5051C5.93286 14.4996 5.93286 14.4948 5.9337 14.4926C5.9337 14.4926 5.93714 14.4866 5.95141 14.4767C7.77313 13.1996 9.91605 12.4942 12.1482 12.4368C14.4338 12.3767 16.6613 13.0105 18.5864 14.2662C20.1123 15.2613 21.3809 16.6286 22.2554 18.2201C22.4223 18.5241 22.8041 18.6354 23.1083 18.4682C23.4123 18.3012 23.5234 17.9193 23.3564 17.6152C22.383 15.8434 20.9709 14.3214 19.2728 13.2139C18.4668 12.6881 17.613 12.2609 16.7263 11.9357C16.8468 11.382 16.9201 10.8061 16.944 10.2159C17.0472 7.65776 16.2133 5.15737 14.5955 3.17562C14.5823 3.15936 14.5668 3.13983 14.5771 3.11014C14.5864 3.09579 14.5968 3.08236 14.6057 3.06779C14.6313 3.0442 14.6537 3.05306 14.6751 3.06191C19.4106 5.01252 21.9747 7.80612 22.9262 12.076C22.5311 12.2415 22.142 12.4246 21.7608 12.6256C21.4539 12.7874 21.3364 13.1674 21.4982 13.4742C21.66 13.781 22.0398 13.8988 22.3467 13.7368C26.0352 11.7919 30.5078 11.6625 34.3115 13.3913C34.3384 13.4035 34.4206 13.4409 34.4 13.5581C34.3792 13.6769 34.288 13.6842 34.258 13.6865C31.9789 13.8677 29.8097 14.8366 28.1499 16.4148C27.1929 17.3247 26.4761 18.3584 26.0149 19.4909C23.4754 20.4393 21.4429 22.4644 20.4631 25.0098C19.4111 22.2771 17.1458 20.1439 14.3427 19.2992C13.7922 17.9089 12.7918 16.7201 11.4353 15.8516ZM2.98107 26.9826C2.56119 26.9826 2.2196 26.641 2.2196 26.2212C2.2196 25.8014 2.56119 25.4597 2.98107 25.4597C3.40096 25.4597 3.74247 25.8013 3.74247 26.2212C3.74247 26.6411 3.40088 26.9826 2.98107 26.9826ZM12.1699 25.6081C11.1092 24.3458 9.6356 23.6785 7.90828 23.6785C6.64435 23.6785 5.42033 24.0441 4.3684 24.736C4.36375 24.739 4.36054 24.7407 4.35971 24.7414C4.34818 24.7379 4.33017 24.7215 4.32765 24.7153C4.32765 24.7153 4.32834 24.7111 4.33261 24.7025C5.00632 23.349 6.04085 22.2086 7.32432 21.4044C8.62328 20.5906 10.1217 20.1615 11.6624 20.1615C11.6859 20.1615 11.7095 20.1615 11.7332 20.1617C16.0744 20.1987 19.6297 23.7022 19.8345 28.0516C19.8292 28.1831 19.8257 28.3151 19.8257 28.4479V29.5017H13.6622C13.5491 27.996 13.0292 26.6312 12.1699 25.6081ZM28.7451 31.0268V33.4016C28.7451 33.5498 28.6245 33.6704 28.4763 33.6704H12.4238C12.2756 33.6704 12.1549 33.5499 12.1549 33.4016V31.0268C12.1549 30.8786 12.2755 30.758 12.4238 30.758H13.0575H20.4536H20.472H27.8486H28.4763C28.6245 30.758 28.7451 30.8785 28.7451 31.0268ZM36.5873 24.7272C36.5858 24.7287 36.5844 24.7303 36.5829 24.7317C36.5773 24.7371 36.5718 24.7414 36.5691 24.7423C36.5691 24.7423 36.5651 24.7411 36.5573 24.7359C35.5053 24.0442 34.2812 23.6786 33.0173 23.6786C31.2894 23.6786 29.8128 24.3454 28.7471 25.6069C27.8816 26.6314 27.3579 27.9968 27.244 29.5018H21.1001V28.448C21.1001 28.3152 21.0967 28.1832 21.0913 28.0517C21.2961 23.7023 24.8513 20.1988 29.1926 20.1618C30.7598 20.1479 32.2826 20.5781 33.6014 21.4044C34.8848 22.2086 35.9194 23.349 36.5932 24.7025C36.596 24.7082 36.5973 24.7119 36.5979 24.7127C36.5962 24.717 36.592 24.7222 36.5873 24.7272ZM38.0191 26.9086C37.5992 26.9086 37.2576 26.567 37.2576 26.1472C37.2576 25.9376 37.3428 25.7475 37.4803 25.6097C37.481 25.609 37.4818 25.6083 37.4825 25.6076C37.6203 25.4706 37.81 25.3858 38.0192 25.3858C38.439 25.3858 38.7806 25.7273 38.7806 26.1472C38.7806 26.5671 38.4389 26.9086 38.0191 26.9086Z" fill="white"/>
</svg>
