<svg width="31" height="41" viewBox="0 0 31 41" fill="none" xmlns="http://www.w3.org/2000/svg">
<path d="M29.1251 39.5365L29.1251 39.5361L28.6217 31.4965L28.6217 31.4965C28.5498 30.3429 27.9936 29.2674 27.0976 28.5457C26.2016 27.824 25.0361 27.5132 23.9014 27.6948L23.9013 27.6948L21.9898 27.9994C21.9896 27.9995 21.9895 27.9995 21.9894 27.9995C21.7224 28.0436 21.4735 27.8587 21.4313 27.593C21.3889 27.3264 21.5707 27.0752 21.8365 27.0327L21.8365 27.0327L23.7486 26.7279C23.7486 26.7279 23.7486 26.7279 23.7487 26.7279C25.1542 26.5037 26.5977 26.8872 27.7076 27.7829L29.1251 39.5365ZM29.1251 39.5365C29.1423 39.7958 29.3552 39.9958 29.612 39.9958H29.6121H29.6121H29.6122H29.6122H29.6123H29.6123H29.6124H29.6124H29.6125H29.6125H29.6126H29.6126H29.6127H29.6127H29.6128H29.6128H29.6129H29.6129H29.613H29.613H29.6131H29.6131H29.6132H29.6132H29.6133H29.6133H29.6134H29.6134H29.6135H29.6135H29.6136H29.6136H29.6137H29.6137H29.6138H29.6138H29.6139H29.6139H29.614H29.614H29.6141H29.6141H29.6142H29.6142H29.6143H29.6143H29.6144H29.6144H29.6145H29.6145H29.6146H29.6146H29.6147H29.6147H29.6148H29.6148H29.6149H29.6149H29.615H29.615H29.6151H29.6151H29.6152H29.6152H29.6153H29.6153H29.6154H29.6154H29.6155H29.6155H29.6156H29.6156H29.6157H29.6157H29.6158H29.6158H29.6159H29.6159H29.616H29.616H29.6161H29.6161H29.6162H29.6162H29.6163H29.6163H29.6164H29.6164H29.6165H29.6165H29.6166H29.6166H29.6167H29.6167H29.6168H29.6168H29.6169H29.6169H29.617H29.617H29.6171H29.6171H29.6172H29.6172H29.6173H29.6173H29.6174H29.6174H29.6174H29.6175H29.6175H29.6176H29.6176H29.6177H29.6177H29.6178H29.6178H29.6179H29.6179H29.618H29.618H29.6181H29.6181H29.6182H29.6182H29.6183H29.6183H29.6184H29.6184H29.6185H29.6185H29.6186H29.6186H29.6187H29.6187H29.6187H29.6188H29.6188H29.6189H29.6189H29.619H29.619H29.6191H29.6191H29.6192H29.6192H29.6193H29.6193H29.6194H29.6194H29.6195H29.6195H29.6196H29.6196H29.6197H29.6197H29.6197H29.6198H29.6198H29.6199H29.6199H29.62H29.62H29.6201H29.6201H29.6202H29.6202H29.6203H29.6203H29.6204H29.6204H29.6205H29.6205H29.6206H29.6206H29.6206H29.6207H29.6207H29.6208H29.6208H29.6209H29.6209H29.621H29.621H29.6211H29.6211H29.6212H29.6212H29.6213H29.6213H29.6213H29.6214H29.6214H29.6215H29.6215H29.6216H29.6216H29.6217H29.6217H29.6218H29.6218H29.6219H29.6219H29.622H29.622H29.622H29.6221H29.6221H29.6222H29.6222H29.6223H29.6223H29.6224H29.6224H29.6225H29.6225H29.6226H29.6226H29.6227H29.6227H29.6227H29.6228H29.6228H29.6229H29.6229H29.623H29.623H29.6231H29.6231H29.6232H29.6232H29.6233H29.6233H29.6233H29.6234H29.6234H29.6235H29.6235H29.6236H29.6236H29.6237H29.6237H29.6238H29.6238H29.6238H29.6239H29.6239H29.624H29.624H29.6241H29.6241H29.6242H29.6242H29.6243H29.6243H29.6244H29.6244H29.6244H29.6245H29.6245H29.6246H29.6246H29.6247H29.6247H29.6248H29.6248H29.6249H29.6249H29.6249H29.625H29.625H29.6251H29.6251H29.6252H29.6252H29.6253H29.6253H29.6254H29.6254H29.6254H29.6255H29.6255H29.6256H29.6256H29.6257H29.6257H29.6258H29.6258H29.6259H29.6259H29.6259H29.626H29.626H29.6261H29.6261H29.6262H29.6262H29.6263H29.6263H29.6264H29.6264H29.6264H29.6265H29.6265H29.6266H29.6266H29.6267H29.6267H29.6268H29.6268H29.6268H29.6269H29.6269H29.627H29.627H29.6271H29.6271H29.6272H29.6272H29.6273H29.6273H29.6273H29.6274H29.6274H29.6275H29.6275H29.6276H29.6276H29.6277H29.6277H29.6277H29.6278H29.6278H29.6279H29.6279H29.628H29.628H29.6281H29.6281H29.6281H29.6282H29.6282H29.6283H29.6283H29.6284H29.6284H29.6285H29.6285H29.6285H29.6286H29.6286H29.6287H29.6287H29.6288H29.6288H29.6289H29.6289H29.629H29.629H29.629H29.6291H29.6291H29.6292H29.6292H29.6293H29.6293H29.6294H29.6294H29.6294H29.6295H29.6295H29.6296H29.6296H29.6297H29.6297H29.6298H29.6298H29.6298H29.6299H29.6299H29.63H29.63H29.6301H29.6301H29.6302H29.6302H29.6302H29.6303H29.6303H29.6304H29.6304H29.6305H29.6305H29.6305H29.6306H29.6306H29.6307H29.6307H29.6308H29.6308H29.6309H29.6309H29.6309H29.631H29.631H29.6311H29.6311H29.6312H29.6312H29.6313H29.6313H29.6313H29.6314H29.6314H29.6315H29.6315H29.6316H29.6316H29.6317H29.6317H29.6317H29.6318H29.6318H29.6319H29.6319H29.632H29.632H29.6321H29.6321H29.6321H29.6322H29.6322H29.6323H29.6323H29.6324H29.6324H29.6324H29.6325H29.6325H29.6326H29.6326H29.6327H29.6327H29.6328H29.6328H29.6328H29.6329H29.6329H29.633H29.633H29.6331H29.6331H29.6332H29.6332H29.6332H29.6333H29.6333H29.6334H29.6334H29.6335H29.6335H29.6335H29.6336H29.6336H29.6337H29.6337H29.6338H29.6338H29.6339H29.6339H29.6339H29.634H29.634H29.6341H29.6341H29.6342H29.6342H29.6343H29.6343H29.6343H29.6344H29.6344H29.6345H29.6345H29.6346H29.6346H29.6346H29.6347H29.6347H29.6348H29.6348H29.6349H29.6349H29.635H29.635H29.635H29.6351H29.6351H29.6352H29.6352H29.6353H29.6353H29.6354H29.6354H29.6354H29.6355H29.6355H29.6356H29.6356H29.6357H29.6357H29.6357V39.996M29.1251 39.5365L29.6357 39.996M29.6357 39.996L29.6421 39.9956M29.6357 39.996L29.6421 39.9956M29.6421 39.9956C29.9121 39.9783 30.1162 39.7459 30.099 39.4761C30.099 39.4761 30.099 39.476 30.099 39.476L29.5957 31.4366C29.5957 31.4366 29.5957 31.4366 29.5957 31.4366M29.6421 39.9956L29.5957 31.4366M29.5957 31.4366C29.5065 30.0086 28.8187 28.6775 27.7077 27.783L29.5957 31.4366Z" fill="#CFB27A" stroke="#CFB27A" stroke-width="0.2"/>
<path d="M7.25139 26.7267L7.2514 26.7267L9.16728 27.0327L9.15151 27.1315L9.16729 27.0327C9.43308 27.0752 9.61486 27.3264 9.57251 27.593C9.53028 27.8589 9.28124 28.0434 9.01459 28.0008L7.09878 27.6948L7.25139 26.7267ZM7.25139 26.7267C5.84575 26.5024 4.40344 26.8873 3.2924 27.7817C2.18135 28.6762 1.49352 30.0074 1.40434 31.4354C1.40434 31.4354 1.40434 31.4354 1.40434 31.4354L0.901015 39.4748L7.25139 26.7267ZM2.37833 31.4966L2.37833 31.4966L1.87499 39.5361L1.87497 39.5365C1.85779 39.7958 1.6448 39.9958 1.388 39.9958H1.38675C1.37919 39.9958 1.36723 39.9958 1.35317 39.9941C1.08596 39.9751 0.883889 39.7433 0.90101 39.4749L0.901007 39.4749L2.37833 31.4966ZM2.37833 31.4966C2.45027 30.343 3.00639 29.2675 3.9024 28.5458M2.37833 31.4966L3.9024 28.5458M3.9024 28.5458C4.79963 27.8241 5.96389 27.5144 7.09871 27.6948L3.9024 28.5458Z" fill="#CFB27A" stroke="#CFB27A" stroke-width="0.2"/>
<path d="M15.1214 35.8324L15.1209 35.8318L8.71002 27.8234L8.70992 27.8233C8.59244 27.6761 8.5689 27.4753 8.65038 27.3045L8.65054 27.3042L8.65054 27.3042C8.73195 27.1351 8.90282 27.0265 9.09032 27.0265H13.3231C13.5432 27.0265 13.7362 27.1743 13.7942 27.3875L13.7942 27.3875M15.1214 35.8324L13.6977 27.4137L13.7942 27.3875M15.1214 35.8324C15.2167 35.9495 15.3564 36.0142 15.5012 36.0142C15.5768 36.0142 15.6512 35.9967 15.7222 35.9635L15.7223 35.9636L15.7259 35.9617C15.9313 35.8551 16.0347 35.6199 15.9737 35.3958L15.1214 35.8324ZM13.7942 27.3875L15.9736 35.3957L13.7942 27.3875ZM12.9481 28.0071L14.4114 33.3835L10.1078 28.0071H12.9481Z" fill="#CFB27A" stroke="#CFB27A" stroke-width="0.2"/>
<path d="M20.8934 28.0071L17.2319 32.5791L20.8934 28.0071ZM20.8934 28.0071H18.0519L17.3864 30.4547M17.3864 30.4547C17.3863 30.4548 17.3863 30.4548 17.3863 30.4549L17.3863 30.455L17.3864 30.4547ZM17.3057 33.268L17.3063 33.2685L17.2317 32.5794L17.2318 32.5793C17.0624 32.7896 17.0953 33.0985 17.3057 33.268Z" fill="#CFB27A" stroke="#CFB27A" stroke-width="0.2"/>
<path d="M15.9897 39.5067V39.5062V35.5245C15.9897 35.2548 15.7717 35.0348 15.5012 35.0348C15.231 35.0348 15.0128 35.2534 15.0128 35.5245V39.5062C15.0128 39.7758 15.2308 39.9958 15.5012 39.9958C15.7708 39.9958 15.9881 39.7756 15.9897 39.5067Z" fill="#CFB27A" stroke="#CFB27A" stroke-width="0.2"/>
<path d="M9.81301 18.0081L9.81301 18.0081L9.81239 18.0081C9.5438 18.0317 9.3446 18.2687 9.36802 18.5384C9.67743 22.1629 12.3048 24.9172 15.5014 24.9172C18.698 24.9172 21.3253 22.1629 21.6347 18.5384C21.6582 18.2687 21.459 18.0317 21.1904 18.0081V18.0081L21.1892 18.008C20.9199 17.9877 20.6859 18.1854 20.6624 18.455L20.6624 18.4552C20.3946 21.5942 18.1648 23.9366 15.5014 23.9366C12.8368 23.9366 10.6082 21.5942 10.3404 18.4552L10.3404 18.455C10.3169 18.1859 10.0832 17.9861 9.81301 18.0081Z" fill="#CFB27A" stroke="#CFB27A" stroke-width="0.2"/>
<path d="M8.71308 11.9885L8.71308 11.9885C8.957 11.8737 9.24761 11.9793 9.3621 12.224C9.47657 12.4686 9.37167 12.7605 9.12667 12.8752M8.71308 11.9885L22.2419 12.079L22.2848 11.9887C22.2848 11.9886 22.2847 11.9886 22.2847 11.9886C22.0389 11.8721 21.7498 11.9798 21.6356 12.224L21.6353 12.2244C21.5226 12.4687 21.6271 12.7603 21.8709 12.8751L21.8709 12.8751C22.2287 13.0436 22.5048 13.2216 22.6897 13.3949C22.877 13.5703 22.9575 13.728 22.9575 13.8563C22.9575 14.0288 22.8151 14.2492 22.4772 14.4895C22.1456 14.7251 21.6502 14.9619 21.0037 15.1727C19.7117 15.5939 17.8331 15.9057 15.5001 15.9057C13.1664 15.9057 11.2872 15.5939 9.99473 15.1727C9.34794 14.9619 8.85233 14.7251 8.52065 14.4895C8.18256 14.2492 8.04012 14.0288 8.04012 13.8563C8.04012 13.728 8.12063 13.5703 8.30793 13.3949C8.49285 13.2216 8.76886 13.0437 9.12667 12.8752M8.71308 11.9885C7.37542 12.6186 7.06452 13.337 7.06452 13.8575C7.06452 14.3755 7.35777 14.8226 7.83723 15.1971C8.31636 15.5715 8.99225 15.8827 9.78742 16.1318C11.3788 16.6302 13.4737 16.8876 15.5013 16.8876C17.5283 16.8876 19.6226 16.6302 21.2132 16.1318C22.008 15.8827 22.6834 15.5714 23.1621 15.1971C23.6411 14.8225 23.9338 14.3754 23.9331 13.8574M8.71308 11.9885L23.9331 13.8574M9.12667 12.8752C9.12664 12.8752 9.1266 12.8752 9.12657 12.8752L9.08418 12.7847L9.12678 12.8751C9.12674 12.8752 9.12671 12.8752 9.12667 12.8752ZM23.9331 13.8574L23.8331 13.8575H23.9331C23.9331 13.8575 23.9331 13.8574 23.9331 13.8574Z" fill="#CFB27A" stroke="#CFB27A" stroke-width="0.2"/>
<path d="M10.4531 1.04201C11.2362 4.39296 11.5084 8.26598 11.2599 12.5561L11.1601 12.5502C11.1601 12.5502 11.1601 12.5502 11.1601 12.5503M11.1601 12.5503C11.4082 8.26747 11.1361 4.40438 10.3557 1.06476L10.3557 1.06466C10.3244 0.930013 10.3509 0.787626 10.4293 0.673259C10.5079 0.558495 10.632 0.483016 10.769 0.465695C13.9084 0.0674717 17.0918 0.0674717 20.2312 0.4657C20.3682 0.48303 20.4923 0.558506 20.5709 0.673259C20.6493 0.787626 20.6758 0.930013 20.6445 1.06466L20.6445 1.06481C19.8628 4.40315 19.592 8.26625 19.8401 12.5504C19.8557 12.8125 19.6626 13.0382 19.4039 13.0665L19.4035 13.0665C18.1098 13.2018 16.8062 13.2694 15.5013 13.2694C14.1977 13.2694 12.8929 13.2018 11.5967 13.0665C11.3371 13.0397 11.1445 12.8119 11.1601 12.5503Z" fill="#CFB27A" stroke="#CFB27A" stroke-width="0.2"/>
</svg>
