<svg width="41" height="37" viewBox="0 0 41 37" fill="none" xmlns="http://www.w3.org/2000/svg">
<path d="M10.6992 24.5246C10.1131 24.0615 9.37864 23.8065 8.63101 23.8065C7.61497 23.8065 6.66881 24.2579 6.03509 25.0453C5.48096 25.7345 5.23007 26.5968 5.32896 27.4731C5.42798 28.3512 5.86606 29.1378 6.56234 29.6882C7.14838 30.1513 7.88263 30.4064 8.63013 30.4064C9.64693 30.4064 10.5932 29.9541 11.2264 29.166C11.7801 28.4779 12.0307 27.6166 11.9322 26.7407C11.8334 25.8625 11.3956 25.0754 10.6992 24.5246ZM10.0467 28.2175C9.70205 28.6466 9.18564 28.8929 8.63013 28.8929C8.21602 28.8929 7.82549 28.7573 7.50107 28.5008C7.12379 28.2026 6.88665 27.7774 6.83304 27.3034C6.77981 26.8313 6.91528 26.3661 7.21435 25.9942C7.55909 25.5658 8.0755 25.3201 8.63101 25.3201C9.0455 25.3201 9.43615 25.4557 9.76046 25.712C10.1376 26.0102 10.3746 26.4357 10.428 26.91C10.4811 27.3817 10.3459 27.8459 10.0467 28.2175Z" fill="#CFB17A"/>
<path d="M24.0079 16.7729C24.5072 16.7729 24.9899 16.6635 25.4439 16.4472C26.2464 16.0632 26.8492 15.3915 27.1409 14.5557C27.4312 13.7252 27.379 12.8315 26.9943 12.04C26.4439 10.9055 25.2686 10.1724 24 10.1724C23.4997 10.1724 23.016 10.2822 22.5621 10.4987C21.7599 10.8814 21.1568 11.5526 20.8646 12.3887C20.5738 13.2198 20.6259 14.1136 21.0113 14.9055C21.5634 16.0399 22.7396 16.7729 24.0079 16.7729ZM22.2932 12.8883C22.4514 12.4361 22.7783 12.0726 23.2138 11.8648C23.4625 11.7463 23.7269 11.6861 23.9999 11.6861C24.6925 11.6861 25.3333 12.0843 25.6325 12.7012C25.84 13.1281 25.8681 13.6093 25.7119 14.0566C25.5539 14.5091 25.2265 14.8731 24.7916 15.0812C24.5438 15.1994 24.28 15.2592 24.0078 15.2592C23.3145 15.2592 22.6725 14.8604 22.372 14.2432C22.1648 13.8169 22.1368 13.3358 22.2932 12.8883Z" fill="#CFB17A"/>
<path d="M15.7717 11.4242C16.0151 11.4792 16.2643 11.5071 16.5121 11.5071C18.0702 11.5071 19.4013 10.4533 19.7495 8.94308C19.9451 8.08673 19.7946 7.20515 19.3261 6.46043C18.8538 5.7099 18.1155 5.1882 17.2479 4.99167C17.0034 4.93617 16.7533 4.90792 16.5043 4.90792C14.9473 4.90792 13.6175 5.96281 13.2705 7.47281C13.0732 8.32853 13.2227 9.21024 13.6913 9.95547C14.1641 10.707 14.9031 11.2287 15.7717 11.4242ZM14.7457 7.81238C14.9338 6.99361 15.657 6.4217 16.5043 6.4217C16.6404 6.4217 16.7778 6.43722 16.9129 6.46787C17.3861 6.57509 17.7881 6.85877 18.045 7.2667C18.298 7.66871 18.3792 8.14425 18.274 8.6044C18.0885 9.40929 17.3474 9.99343 16.512 9.99343C16.3763 9.99343 16.2394 9.97805 16.1047 9.94765C15.6313 9.84106 15.2293 9.55763 14.9726 9.1497C14.7201 8.74795 14.6395 8.27316 14.7457 7.81238Z" fill="#CFB17A"/>
<path d="M9.75758 13.3124C10.4531 12.7613 10.8904 11.9741 10.9893 11.0958C11.0878 10.2201 10.8377 9.35883 10.2838 8.66949C9.6491 7.88251 8.70218 7.43119 7.68614 7.43119C6.93927 7.43119 6.20552 7.68548 5.61936 8.14778C4.92371 8.69724 4.48613 9.4832 4.38686 10.3609C4.28772 11.2377 4.53848 12.1004 5.09336 12.7909C5.72759 13.5788 6.67463 14.0307 7.69181 14.0307C8.43931 14.0306 9.17306 13.7756 9.75758 13.3124ZM6.27301 11.842C5.9733 11.4691 5.83771 11.0034 5.89119 10.5307C5.94467 10.0573 6.18156 9.63268 6.55745 9.33562C6.88175 9.07981 7.27215 8.94459 7.68626 8.94459C8.24228 8.94459 8.75983 9.19056 9.10481 9.6183C9.40313 9.9899 9.53835 10.4545 9.48525 10.9264C9.43189 11.4011 9.19475 11.8272 8.81772 12.1259C8.49494 12.3816 8.10555 12.5168 7.69194 12.5168C7.13529 12.517 6.61812 12.2707 6.27301 11.842Z" fill="#CFB17A"/>
<path d="M40.7105 5.9063C40.5797 5.77436 40.3463 5.61706 39.9781 5.61706C39.5464 5.61706 38.3994 5.61707 31.4335 11.5446C31.2935 11.6636 31.1523 11.7843 31.0105 11.9059C29.7659 8.65927 27.5791 5.76477 24.7613 3.67113C21.5304 1.27059 17.6832 0.00100911 13.6359 0H13.6328C10.9014 0 7.58117 0.954363 4.96745 2.49111C1.76354 4.3746 -0.000630522 6.89358 1.69046e-07 9.58374C0.00100928 12.8315 1.83279 14.1901 3.3047 15.2815C4.5049 16.1717 5.45283 16.8747 5.45334 18.4153C5.45372 19.9558 4.50629 20.6582 3.30672 21.5475C1.83531 22.6383 0.00391046 23.996 0.00491956 27.2442C0.00567639 29.934 1.77098 32.4536 4.97553 34.3388C7.59113 35.8774 10.9131 36.8338 13.645 36.8345H13.6503C18.6082 36.8345 23.2689 34.9209 26.7742 31.4459C30.235 28.0153 32.1597 23.4682 32.2103 18.6226C33.3854 17.2854 34.5238 15.9562 35.5631 14.7038C37.3411 12.5612 38.7083 10.7933 39.6267 9.44927C40.8435 7.66908 41.3763 6.57723 40.7105 5.9063ZM25.7088 30.371C22.4886 33.5633 18.2067 35.3209 13.6504 35.3209H13.6456C8.76321 35.3195 1.51997 31.9274 1.51858 27.2437C1.51782 24.7579 2.82462 23.7891 4.20823 22.7633C5.50152 21.8044 6.96738 20.7176 6.96687 18.4148C6.96611 16.1124 5.49988 15.025 4.20621 14.0657C2.82197 13.039 1.51442 12.0694 1.51366 9.58336C1.51303 6.70728 4.1579 4.72287 5.73463 3.79588C8.09316 2.40924 11.193 1.51353 13.6328 1.51353H13.6354C17.3554 1.51454 20.8905 2.68082 23.8587 4.88597C26.5961 6.91995 28.6857 9.77521 29.7864 12.965C26.5037 15.8314 22.9488 19.1362 20.3015 21.7922C15.9044 22.3613 15.3054 25.2917 14.8674 27.4445C14.4946 29.2776 14.2525 30.1638 12.8376 30.2774C12.489 30.3054 12.205 30.5685 12.1507 30.914C12.0962 31.2593 12.2855 31.5971 12.6087 31.731C12.6996 31.7686 14.8636 32.6528 17.392 32.6529C19.1539 32.6529 20.6661 32.2258 21.8849 31.3836C23.3867 30.3457 24.405 28.7003 24.9167 26.4936C26.6465 24.7435 28.6229 22.6333 30.5773 20.4595C30.1275 24.202 28.4386 27.6648 25.7088 30.371ZM23.3961 26.3503C22.5941 29.5285 20.5762 31.1395 17.3927 31.1394C16.5533 31.1394 15.7486 31.0249 15.0728 30.8821C15.8801 30.0588 16.1322 28.8198 16.3506 27.7465C16.7664 25.7021 17.1597 23.7672 20.3773 23.3076L23.3961 26.3503ZM33.8475 14.3974C30.8472 17.9718 27.2157 21.9858 24.2263 25.0377L23.7634 24.5712L21.7214 22.513C24.4319 19.8149 27.909 16.5978 31.1531 13.7823C31.5313 13.454 31.9071 13.13 32.2774 12.8141C36.0423 9.60329 38.0153 8.20593 39.0218 7.59782C38.4207 8.61033 37.0362 10.5984 33.8475 14.3974Z" fill="#CFB17A"/>
</svg>
