<svg width="35" height="37" viewBox="0 0 35 37" fill="none" xmlns="http://www.w3.org/2000/svg">
<path d="M7.93745 0.71316C8.00672 0.712882 8.07599 0.712604 8.14737 0.712318C8.26081 0.712412 8.26081 0.712412 8.37654 0.712508C8.49761 0.712186 8.49761 0.712186 8.62113 0.711858C8.84493 0.711339 9.06873 0.711145 9.29254 0.711092C9.53402 0.710958 9.7755 0.710412 10.017 0.709926C10.5449 0.708945 11.0729 0.708509 11.6009 0.708191C11.9307 0.707991 12.2605 0.707684 12.5904 0.707359C13.504 0.706478 14.4176 0.705734 15.3313 0.705489C15.3897 0.705473 15.4482 0.705458 15.5084 0.705441C15.567 0.705425 15.6256 0.70541 15.686 0.705393C15.8047 0.705361 15.9235 0.705329 16.0422 0.705297C16.1011 0.705281 16.16 0.705265 16.2207 0.705248C17.1745 0.704963 18.1284 0.703702 19.0822 0.702019C20.0621 0.700303 21.042 0.699404 22.0219 0.69932C22.5718 0.699254 23.1218 0.69884 23.6717 0.697527C24.1401 0.696411 24.6084 0.696045 25.0768 0.69664C25.3156 0.696922 25.5544 0.696859 25.7932 0.695841C26.0526 0.694922 26.312 0.695347 26.5714 0.6961C26.6834 0.695227 26.6834 0.695227 26.7978 0.694336C27.8797 0.701661 28.8799 1.13496 29.6562 1.93424C29.7052 1.98752 29.7542 2.04081 29.8047 2.0957C29.848 2.14005 29.8914 2.18439 29.9361 2.23007C30.8468 3.22696 30.9988 4.53844 30.9933 5.85916C30.9936 5.97308 30.994 6.08699 30.9944 6.20091C30.9954 6.51114 30.9951 6.82136 30.9946 7.13159C30.9943 7.46726 30.9951 7.80293 30.9958 8.1386C30.997 8.79512 30.9971 9.45163 30.9967 10.1081C30.9964 10.642 30.9965 11.1759 30.9969 11.7098C30.997 11.786 30.997 11.8621 30.9971 11.9406C30.9972 12.0953 30.9973 12.25 30.9974 12.4047C30.9983 13.8538 30.9979 15.3029 30.9972 16.7519C30.9965 18.0759 30.9974 19.3999 30.999 20.7238C31.0007 22.0853 31.0013 23.4468 31.0009 24.8083C31.0006 25.5719 31.0008 26.3354 31.002 27.099C31.003 27.749 31.003 28.3989 31.0018 29.0489C31.0013 29.3801 31.0011 29.7113 31.0022 30.0425C31.0031 30.3465 31.0028 30.6504 31.0015 30.9543C31.0012 31.0635 31.0014 31.1727 31.0021 31.282C31.0104 32.6352 30.7211 33.8918 29.8208 34.8927C29.0558 35.7119 28.1375 36.2672 27.0295 36.2959C26.8836 36.2969 26.7378 36.2971 26.592 36.2967C26.5112 36.297 26.4304 36.2973 26.3471 36.2977C26.1243 36.2984 25.9015 36.2985 25.6787 36.2984C25.4379 36.2983 25.197 36.2991 24.9561 36.2998C24.4847 36.301 24.0133 36.3014 23.542 36.3015C23.1585 36.3016 22.7751 36.3019 22.3917 36.3023C21.3032 36.3036 20.2146 36.3043 19.1261 36.3041C19.0675 36.3041 19.0088 36.3041 18.9484 36.3041C18.8604 36.3041 18.8604 36.3041 18.7706 36.3041C17.82 36.3041 16.8694 36.3054 15.9188 36.3075C14.9413 36.3096 13.9638 36.3105 12.9863 36.3104C12.4381 36.3104 11.8899 36.3108 11.3416 36.3123C10.8748 36.3136 10.408 36.314 9.9411 36.313C9.70326 36.3125 9.46544 36.3125 9.2276 36.3138C7.72204 36.3203 6.49318 36.2185 5.35099 35.0683C5.29962 35.0142 5.24824 34.9601 5.19531 34.9043C5.12988 34.8377 5.12988 34.8377 5.06313 34.7696C4.15326 33.7692 4.00098 32.4611 4.00762 31.1379C4.00743 31.0237 4.00716 30.9095 4.0068 30.7952C4.00608 30.4842 4.00663 30.1731 4.0074 29.8621C4.008 29.5255 4.00742 29.189 4.00699 28.8524C4.00635 28.1943 4.0068 27.5362 4.00763 26.8781C4.00856 26.1112 4.00845 25.3442 4.0083 24.5773C4.00808 23.2088 4.00888 21.8403 4.01022 20.4718C4.01152 19.1447 4.012 17.8176 4.01162 16.4905C4.01121 15.044 4.01122 13.5974 4.012 12.1509C4.01208 11.9966 4.01216 11.8423 4.01225 11.688C4.01229 11.6121 4.01233 11.5362 4.01237 11.458C4.01264 10.9237 4.01261 10.3895 4.01248 9.85517C4.01233 9.20407 4.01269 8.55298 4.01368 7.90188C4.01418 7.56985 4.01446 7.23782 4.01414 6.90578C4.01387 6.60161 4.01422 6.29744 4.01508 5.99327C4.01528 5.88348 4.01525 5.77369 4.01496 5.6639C4.01144 4.16471 4.36783 3.01965 5.34058 1.90149C6.02041 1.20892 6.98527 0.714597 7.93745 0.71316ZM5.79132 3.15118C5.1405 4.1097 5.11655 5.14758 5.11781 6.28462C5.11768 6.3942 5.11753 6.50379 5.11734 6.61338C5.11693 6.9133 5.11693 7.21323 5.11701 7.51316C5.11703 7.83711 5.11665 8.16106 5.11633 8.485C5.11576 9.11923 5.11557 9.75345 5.11553 10.3877C5.1155 10.9034 5.11536 11.419 5.11514 11.9347C5.11454 13.3978 5.11423 14.8608 5.11428 16.3238C5.11428 16.4026 5.11428 16.4815 5.11429 16.5627C5.11429 16.6416 5.11429 16.7205 5.11429 16.8018C5.11432 18.0806 5.11367 19.3594 5.1127 20.6382C5.11172 21.9523 5.11125 23.2663 5.11131 24.5803C5.11133 25.3177 5.11114 26.055 5.11041 26.7924C5.10978 27.4202 5.10964 28.048 5.1101 28.6758C5.11032 28.9958 5.11033 29.3159 5.10973 29.6359C5.10919 29.9294 5.1093 30.2229 5.10989 30.5164C5.11 30.6221 5.10987 30.7278 5.10949 30.8335C5.10522 32.0971 5.23427 33.2107 6.06636 34.1752C6.80283 34.9101 7.67074 35.1434 8.65295 35.1404C8.77079 35.1409 8.77079 35.1409 8.89102 35.1414C9.15365 35.1423 9.41627 35.1422 9.67891 35.1421C9.86747 35.1424 10.056 35.143 10.2446 35.1436C10.7033 35.1448 11.162 35.1452 11.6207 35.1452C11.9938 35.1453 12.3669 35.1456 12.74 35.1461C13.799 35.1473 14.8581 35.148 15.9171 35.1479C15.9741 35.1479 16.0312 35.1479 16.0899 35.1479C16.147 35.1479 16.2042 35.1479 16.263 35.1479C17.188 35.1478 18.113 35.1492 19.038 35.1512C19.989 35.1533 20.94 35.1543 21.8911 35.1542C22.4245 35.1541 22.9579 35.1545 23.4913 35.1561C23.9456 35.1574 24.3999 35.1577 24.8541 35.1567C25.0856 35.1563 25.317 35.1564 25.5485 35.1575C25.8002 35.1586 26.0519 35.1579 26.3036 35.1568C26.4117 35.1579 26.4117 35.1579 26.522 35.1591C27.4335 35.1502 28.2615 34.8296 28.9355 34.1743C29.8226 33.1821 29.8836 32.0147 29.8822 30.7154C29.8823 30.6058 29.8825 30.4962 29.8827 30.3866C29.8831 30.0867 29.8831 29.7868 29.883 29.4868C29.883 29.1629 29.8833 28.8389 29.8837 28.515C29.8842 27.8808 29.8844 27.2466 29.8845 26.6123C29.8845 26.0966 29.8846 25.581 29.8849 25.0653C29.8855 23.6023 29.8858 22.1392 29.8857 20.6762C29.8857 20.5974 29.8857 20.5186 29.8857 20.4373C29.8857 20.3584 29.8857 20.2795 29.8857 20.1982C29.8857 18.9194 29.8863 17.6406 29.8873 16.3618C29.8883 15.0477 29.8888 13.7337 29.8887 12.4197C29.8887 11.6823 29.8889 10.945 29.8896 10.2076C29.8902 9.57983 29.8904 8.95204 29.8899 8.32424C29.8897 8.00418 29.8897 7.68412 29.8903 7.36406C29.8908 7.07056 29.8907 6.77707 29.8901 6.48357C29.89 6.3779 29.8901 6.27222 29.8905 6.16655C29.8948 4.90291 29.7657 3.7893 28.9336 2.82485C28.1972 2.08991 27.3293 1.85656 26.347 1.85958C26.2685 1.85925 26.1899 1.85893 26.109 1.85859C25.8463 1.85768 25.5837 1.85779 25.3211 1.85791C25.1325 1.85756 24.944 1.85699 24.7554 1.85644C24.2967 1.85524 23.838 1.85484 23.3793 1.85476C23.0062 1.85469 22.6331 1.8544 22.26 1.85394C21.201 1.85267 20.1419 1.852 19.0829 1.85211C19.0259 1.85211 18.9688 1.85212 18.9101 1.85213C18.853 1.85213 18.7958 1.85214 18.737 1.85214C17.812 1.8522 16.887 1.85082 15.962 1.84878C15.011 1.8467 14.06 1.84571 13.1089 1.84583C12.5755 1.84588 12.0421 1.84549 11.5087 1.84393C11.0544 1.84261 10.6001 1.8423 10.1459 1.84328C9.9144 1.84375 9.68296 1.84361 9.45149 1.8425C9.19976 1.84138 8.94809 1.84206 8.69636 1.84317C8.58829 1.84206 8.58829 1.84206 8.47804 1.84092C7.41978 1.85118 6.47176 2.28593 5.79132 3.15118Z" fill="#9A999E"/>
<path d="M12.288 5.11251C12.3344 5.11229 12.3808 5.11206 12.4286 5.11183C12.5839 5.11125 12.7392 5.11171 12.8946 5.11216C13.0059 5.11197 13.1173 5.11171 13.2287 5.1114C13.5313 5.11074 13.8338 5.11099 14.1363 5.11145C14.4528 5.11182 14.7692 5.11148 15.0857 5.11125C15.6171 5.11099 16.1486 5.11133 16.68 5.11202C17.2946 5.11281 17.9092 5.11255 18.5239 5.11176C19.0513 5.1111 19.5788 5.11101 20.1063 5.11139C20.4215 5.11161 20.7366 5.11164 21.0517 5.11117C21.348 5.11075 21.6442 5.11104 21.9405 5.11187C22.0493 5.11207 22.1581 5.11201 22.2669 5.11169C22.4153 5.1113 22.5636 5.11179 22.712 5.11251C22.8366 5.11259 22.8366 5.11259 22.9637 5.11268C23.1661 5.1302 23.2795 5.15809 23.4473 5.2754C23.5954 5.50316 23.6089 5.72734 23.6353 5.99805C23.725 6.66137 23.9696 7.30194 24.4727 7.73243C24.5135 7.76857 24.5543 7.80472 24.5963 7.84195C25.119 8.28578 25.5909 8.40295 26.2532 8.47513C26.5083 8.54111 26.5765 8.58852 26.7285 8.81641C26.7703 9.07199 26.7654 9.32569 26.7632 9.58448C26.7639 9.70318 26.7639 9.70318 26.7645 9.82427C26.7656 10.0904 26.7648 10.3564 26.7639 10.6225C26.7643 10.8129 26.7647 11.0032 26.7653 11.1936C26.7666 11.6576 26.7663 12.1216 26.7655 12.5856C26.7649 12.9626 26.7648 13.3396 26.7651 13.7166C26.7651 13.7703 26.7652 13.8239 26.7652 13.8791C26.7653 13.9881 26.7654 14.097 26.7655 14.206C26.7663 15.2279 26.7654 16.2498 26.7639 17.2717C26.7627 18.1488 26.7629 19.026 26.7642 19.9031C26.7656 20.9213 26.7662 21.9395 26.7654 22.9577C26.7653 23.0663 26.7652 23.1748 26.7651 23.2834C26.765 23.3635 26.765 23.3635 26.765 23.4452C26.7647 23.8219 26.7651 24.1985 26.7658 24.5751C26.7665 25.0341 26.7663 25.493 26.7649 25.9519C26.7642 26.1861 26.764 26.4203 26.7648 26.6545C26.7655 26.9082 26.7646 27.1618 26.7632 27.4155C26.7642 27.527 26.7642 27.527 26.7651 27.6407C26.7599 28.1358 26.7599 28.1358 26.6047 28.3722C26.3929 28.5144 26.1777 28.5428 25.9338 28.5765C25.2838 28.6856 24.6592 28.912 24.2342 29.4745C23.8634 30.0221 23.6337 30.6172 23.6027 31.293C23.5799 31.4668 23.5384 31.5777 23.4473 31.7246C23.2077 31.8932 22.9948 31.8873 22.712 31.8875C22.6656 31.8877 22.6192 31.8879 22.5714 31.8882C22.4161 31.8888 22.2608 31.8883 22.1054 31.8878C21.9941 31.888 21.8827 31.8883 21.7713 31.8886C21.4687 31.8893 21.1662 31.889 20.8637 31.8886C20.5472 31.8882 20.2308 31.8885 19.9143 31.8888C19.3829 31.889 18.8514 31.8887 18.32 31.888C17.7054 31.8872 17.0908 31.8875 16.4761 31.8883C15.9487 31.8889 15.4212 31.889 14.8937 31.8886C14.5785 31.8884 14.2634 31.8884 13.9483 31.8888C13.652 31.8893 13.3558 31.889 13.0595 31.8881C12.9507 31.8879 12.8419 31.888 12.7331 31.8883C12.5847 31.8887 12.4364 31.8882 12.288 31.8875C12.1634 31.8874 12.1634 31.8874 12.0363 31.8873C11.8339 31.8698 11.7205 31.8419 11.5527 31.7246C11.4046 31.4969 11.3911 31.2727 11.3647 31.002C11.2696 30.2928 10.9706 29.587 10.4333 29.1293C9.97529 28.8136 9.55888 28.6518 9.02344 28.5449C8.90655 28.5214 8.78976 28.4974 8.67309 28.4727C8.62498 28.4637 8.57687 28.4548 8.5273 28.4456C8.4082 28.4004 8.4082 28.4004 8.27148 28.1836C8.25419 28.0328 8.25419 28.0328 8.2539 27.8553C8.25346 27.7875 8.25301 27.7198 8.25256 27.6501C8.25277 27.5755 8.25298 27.501 8.2532 27.4242C8.25289 27.3451 8.25258 27.2661 8.25226 27.1846C8.25139 26.9183 8.25151 26.652 8.25162 26.3857C8.25121 26.1954 8.25075 26.005 8.25023 25.8146C8.24909 25.3504 8.24872 24.8862 8.24864 24.4219C8.24858 24.0447 8.2483 23.6675 8.24786 23.2902C8.24666 22.2212 8.24603 21.1523 8.24613 20.0833C8.24614 20.0256 8.24614 19.968 8.24615 19.9086C8.24615 19.8508 8.24616 19.7931 8.24617 19.7337C8.24622 18.7978 8.24491 17.862 8.24299 16.9262C8.24102 15.9659 8.24008 15.0055 8.2402 14.0452C8.24024 13.5058 8.23986 12.9665 8.23839 12.4271C8.23715 11.9679 8.23685 11.5087 8.23778 11.0496C8.23823 10.8152 8.23808 10.5809 8.23705 10.3465C8.236 10.0926 8.23662 9.83883 8.23768 9.58497C8.23698 9.5106 8.23627 9.43623 8.23555 9.35961C8.24014 8.86421 8.24014 8.86421 8.39519 8.62778C8.60705 8.48567 8.8223 8.45721 9.06616 8.42347C9.71617 8.31443 10.3408 8.08803 10.7658 7.52551C11.1366 6.97789 11.3663 6.38285 11.3973 5.70701C11.4201 5.53323 11.4616 5.42233 11.5527 5.2754C11.7923 5.10682 12.0052 5.1127 12.288 5.11251ZM12.5098 6.28712C12.397 6.66868 12.2842 7.05024 12.168 7.44336C11.6364 8.46132 10.9147 9.15847 9.84615 9.50237C9.68708 9.54433 9.526 9.57734 9.36523 9.61133C9.36523 15.4779 9.36523 21.3444 9.36523 27.3887C9.73745 27.496 9.73745 27.496 10.1172 27.6055C10.9731 27.9539 11.6503 28.5647 12.0996 29.4121C12.2757 29.8352 12.3897 30.2685 12.5098 30.7129C15.8033 30.7129 19.0969 30.7129 22.4902 30.7129C22.6594 30.1763 22.6594 30.1763 22.832 29.6289C23.2684 28.6423 23.9789 27.9618 24.9426 27.5784C25.1759 27.4937 25.3904 27.4403 25.6348 27.3887C25.6348 21.5222 25.6348 15.6556 25.6348 9.61133C25.3866 9.53979 25.1385 9.46825 24.8828 9.39454C23.9727 9.02405 23.2871 8.37725 22.8729 7.44421C22.7168 7.06021 22.5995 6.69127 22.4902 6.28712C19.1967 6.28712 15.9031 6.28712 12.5098 6.28712Z" fill="#9A999E"/>
<path d="M17.3045 10.0223C17.3465 10.0536 17.3884 10.0849 17.4316 10.1172C17.6116 10.0737 17.7513 9.98613 17.9104 9.88938C18.7523 9.38015 19.6147 9.17916 20.5762 9.40356C21.4636 9.66537 22.2077 10.2176 22.691 11.0521C22.7636 11.1966 22.8336 11.3426 22.9004 11.4902C22.9251 11.5447 22.9497 11.5992 22.9752 11.6554C23.3017 12.5615 23.1886 13.7393 22.8231 14.6085C22.4714 15.4004 22.051 16.0802 21.493 16.7261C21.3961 16.8384 21.3007 16.952 21.2056 17.066C20.5429 17.8531 19.7979 18.5175 19.0039 19.1504C18.9549 19.1896 18.9058 19.2288 18.8552 19.2691C18.702 19.3905 18.5477 19.51 18.393 19.6291C18.3453 19.6668 18.2976 19.7045 18.2485 19.7433C17.9584 19.9629 17.7323 20.1126 17.3633 20.0898C17.1173 19.9721 16.9009 19.8191 16.6797 19.6562C16.599 19.5978 16.599 19.5978 16.5166 19.5381C16.3555 19.4189 16.1969 19.2968 16.0388 19.173C15.9826 19.1291 15.9264 19.0852 15.8685 19.04C15.4029 18.6716 14.9812 18.2734 14.5606 17.8496C14.467 17.7647 14.3731 17.6804 14.2786 17.5967C13.2004 16.6006 12.0024 14.9974 11.8828 13.4326C11.8221 12.3311 11.9897 11.4401 12.6465 10.5508C13.8094 9.17855 15.8912 8.84448 17.3045 10.0223Z" fill="#9A999E"/>
<path d="M13.7327 22.7352C13.8016 22.7344 13.8705 22.7335 13.9415 22.7327C14.017 22.7329 14.0926 22.7331 14.1704 22.7333C14.2898 22.7324 14.2898 22.7324 14.4116 22.7315C14.6755 22.7298 14.9394 22.7297 15.2033 22.7298C15.34 22.7294 15.4768 22.729 15.6135 22.7286C16.0436 22.7272 16.4736 22.727 16.9036 22.7275C17.3473 22.7279 17.7909 22.7263 18.2346 22.7236C18.6155 22.7214 18.9964 22.7206 19.3773 22.7209C19.6048 22.721 19.8322 22.7205 20.0597 22.7188C20.3134 22.7172 20.567 22.7179 20.8208 22.7192C20.8962 22.7183 20.9716 22.7173 21.0492 22.7163C21.5554 22.7222 21.5554 22.7222 21.7876 22.9307C21.9062 23.1943 21.875 23.352 21.8066 23.6309C21.6699 23.8477 21.6699 23.8477 21.4648 23.9199C21.357 23.9267 21.249 23.9294 21.141 23.9296C21.0411 23.93 21.0411 23.93 20.9391 23.9305C20.8662 23.9305 20.7932 23.9305 20.718 23.9304C20.6026 23.9308 20.6026 23.9308 20.4848 23.9312C20.2298 23.9318 19.9748 23.932 19.7198 23.9321C19.543 23.9323 19.3661 23.9325 19.1893 23.9328C18.8184 23.9332 18.4474 23.9334 18.0765 23.9333C17.6477 23.9333 17.219 23.934 16.7903 23.9352C16.3778 23.9362 15.9653 23.9365 15.5528 23.9365C15.3773 23.9365 15.2018 23.9369 15.0263 23.9374C14.7812 23.9381 14.536 23.9379 14.2909 23.9375C14.218 23.9379 14.1452 23.9383 14.0701 23.9387C14.0033 23.9384 13.9365 23.9381 13.8677 23.9378C13.7808 23.9378 13.7808 23.9378 13.6921 23.9379C13.5189 23.9181 13.4096 23.8712 13.2617 23.7754C13.1184 23.5806 13.1253 23.4796 13.1378 23.2289C13.2259 22.8349 13.3553 22.7369 13.7327 22.7352Z" fill="#9A999E"/>
<path d="M15.7966 25.6169C15.8806 25.616 15.9645 25.6151 16.051 25.6141C16.1424 25.6147 16.2337 25.6152 16.3251 25.6159C16.4191 25.6157 16.513 25.6154 16.607 25.6151C16.8038 25.6146 17.0005 25.6153 17.1973 25.6166C17.4492 25.6183 17.7011 25.6173 17.953 25.6156C18.147 25.6145 18.341 25.6149 18.535 25.6156C18.6279 25.6158 18.7208 25.6156 18.8137 25.6149C18.9436 25.6142 19.0735 25.6155 19.2034 25.6169C19.3142 25.6172 19.3142 25.6172 19.4272 25.6176C19.6644 25.663 19.745 25.7459 19.8926 25.9434C19.9289 26.0879 19.9289 26.0879 19.9268 26.2324C19.9278 26.304 19.9278 26.304 19.9289 26.377C19.8755 26.5893 19.7793 26.6729 19.6191 26.8105C19.4272 26.8473 19.4272 26.8473 19.2034 26.848C19.1194 26.8489 19.0355 26.8498 18.949 26.8507C18.8576 26.8502 18.7663 26.8496 18.6749 26.8489C18.5809 26.8491 18.487 26.8494 18.393 26.8498C18.1962 26.8502 17.9995 26.8496 17.8027 26.8482C17.5508 26.8466 17.2989 26.8475 17.047 26.8493C16.853 26.8503 16.659 26.85 16.465 26.8492C16.3721 26.849 16.2792 26.8493 16.1863 26.8499C16.0564 26.8507 15.9265 26.8494 15.7966 26.848C15.7228 26.8477 15.6489 26.8475 15.5728 26.8473C15.3356 26.8019 15.255 26.7189 15.1074 26.5215C15.0711 26.377 15.0711 26.377 15.0732 26.2324C15.0722 26.1609 15.0722 26.1609 15.0711 26.0879C15.1714 25.6888 15.4433 25.618 15.7966 25.6169Z" fill="#9A999E"/>
</svg>
