<svg width="31" height="27" viewBox="0 0 31 27" fill="none" xmlns="http://www.w3.org/2000/svg">
<path d="M20.3507 3.92707C20.1793 3.92707 20.0407 3.78753 20.0407 3.61609V3.04097C20.0407 1.70734 18.9612 0.621889 17.6346 0.621889H13.3626C12.0359 0.621889 10.9575 1.70734 10.9575 3.04097V3.61609C10.9575 3.78753 10.8189 3.92707 10.6475 3.92707C10.476 3.92707 10.3375 3.78753 10.3375 3.61609V3.04097C10.3375 1.36346 11.694 -7.62939e-05 13.3626 -7.62939e-05H17.6346C19.3021 -7.62939e-05 20.6597 1.36446 20.6597 3.04097V3.61609C20.6607 3.78853 20.5221 3.92707 20.3507 3.92707Z" fill="#FFEEEE"/>
<path d="M25.2325 25.7766H5.76718C3.29726 25.7766 1.28784 23.7562 1.28784 21.2733V10.084C1.28784 7.60108 3.29726 5.58069 5.76718 5.58069H25.2325C27.7024 5.58069 29.7118 7.60108 29.7118 10.084V21.2733C29.7108 23.7562 27.7014 25.7766 25.2325 25.7766ZM5.76718 6.20265C3.63914 6.20265 1.90783 7.94396 1.90783 10.084V21.2733C1.90783 23.4133 3.63914 25.1546 5.76718 25.1546H25.2325C27.3605 25.1546 29.0919 23.4133 29.0919 21.2733V10.084C29.0919 7.94396 27.3605 6.20265 25.2325 6.20265H5.76718Z" fill="#FFEEEE" stroke="white"/>
<path d="M25.3852 4.18228H23.2732C23.1017 4.18228 22.9631 4.04274 22.9631 3.8713C22.9631 3.69986 23.1017 3.56032 23.2732 3.56032H25.3852C25.5567 3.56032 25.6952 3.69986 25.6952 3.8713C25.6952 4.04274 25.5567 4.18228 25.3852 4.18228Z" fill="#FFEEEE"/>
<path d="M11.8283 22.2312H5.94553C5.77409 22.2312 5.63556 22.0916 5.63556 21.9202C5.63556 21.7488 5.77409 21.6092 5.94553 21.6092H11.8283C11.9997 21.6092 12.1383 21.7488 12.1383 21.9202C12.1373 22.0916 11.9987 22.2312 11.8283 22.2312Z" fill="#FFEEEE"/>
<path d="M15.4993 20.8676C12.6536 20.8676 10.3382 18.5403 10.3382 15.6786C10.3382 12.817 12.6536 10.4896 15.4993 10.4896C18.345 10.4896 20.6604 12.817 20.6604 15.6786C20.6604 18.5403 18.345 20.8676 15.4993 20.8676ZM15.4993 11.1116C12.9955 11.1116 10.9581 13.1599 10.9581 15.6776C10.9581 18.1954 12.9955 20.2437 15.4993 20.2437C18.0031 20.2437 20.0404 18.1954 20.0404 15.6776C20.0414 13.1609 18.0041 11.1116 15.4993 11.1116Z" fill="#FFEEEE"/>
<path d="M15.4994 18.5931C13.9016 18.5931 12.6008 17.2864 12.6008 15.6787C12.6008 15.5072 12.7394 15.3677 12.9109 15.3677C13.0823 15.3677 13.2208 15.5072 13.2208 15.6787C13.2208 16.9425 14.2435 17.9702 15.4994 17.9702C15.6708 17.9702 15.8093 18.1097 15.8093 18.2811C15.8093 18.4536 15.6708 18.5931 15.4994 18.5931Z" fill="#FFEEEE"/>
</svg>
