<svg width="34" height="34" viewBox="0 0 34 34" fill="none" xmlns="http://www.w3.org/2000/svg">
<path d="M11.1562 1.59375C11.3116 1.70852 11.443 1.83861 11.5817 1.97299C12.3255 2.62948 13.3372 2.97054 14.2815 3.21655C15.396 3.5126 16.2247 4.06646 16.9336 4.98047C16.9336 5.02429 16.9336 5.06812 16.9336 5.11328C16.9774 5.11328 17.0212 5.11328 17.0664 5.11328C17.084 5.07467 17.1017 5.03607 17.1198 4.99629C17.2593 4.73507 17.4619 4.53071 17.6641 4.3164C17.7008 4.27711 17.7375 4.23782 17.7753 4.19734C18.3841 3.60752 19.1794 3.32469 19.9841 3.12109C21.0741 2.8444 22.0395 2.39798 22.8438 1.59375C23.3058 1.55649 23.3058 1.55649 23.5369 1.68091C23.7262 1.8854 23.719 2.11033 23.7397 2.37726C23.8351 3.51286 24.2626 4.4099 24.8287 5.38494C25.4271 6.41555 25.5564 7.4642 25.3672 8.63281C25.411 8.6109 25.4548 8.58898 25.5 8.5664C26.7651 8.42489 27.8015 8.61695 28.895 9.28857C29.7252 9.7936 30.5751 10.128 31.5514 10.1856C31.8445 10.204 32.0393 10.2443 32.2734 10.4258C32.4306 10.6615 32.4441 10.7456 32.4062 11.0234C32.3002 11.1774 32.1971 11.3081 32.0742 11.4468C31.3709 12.3018 31.0545 13.2323 30.7673 14.2891C30.4353 15.4785 29.8082 16.2036 28.8867 17C28.9433 17.0422 28.9433 17.0422 29.0011 17.0853C30.0023 17.8459 30.5531 18.7312 30.8748 19.9426C31.1463 20.9223 31.4802 21.8994 32.2433 22.6059C32.4029 22.7796 32.4429 22.9461 32.4727 23.1758C32.4265 23.4017 32.3784 23.4799 32.1917 23.6152C31.9853 23.7183 31.8553 23.729 31.626 23.7319C30.5719 23.7949 29.6073 24.2336 28.7173 24.7796C27.6415 25.4386 26.6633 25.4756 25.4336 25.4336C25.4495 25.5536 25.4495 25.5536 25.4658 25.6761C25.6278 26.9833 25.2474 27.9621 24.6284 29.0737C24.1775 29.8883 23.8801 30.6686 23.827 31.6043C23.8038 31.9306 23.7418 32.109 23.5078 32.3398C23.3183 32.4346 23.1868 32.4269 22.9766 32.4062C22.8105 32.2942 22.8105 32.2942 22.6445 32.1406C21.6965 31.3299 20.602 30.9924 19.4155 30.6755C18.4653 30.4066 17.6898 29.8022 17.1385 28.9837C17.0697 28.8759 17.0697 28.8759 16.9336 28.8203C16.9159 28.859 16.8982 28.8977 16.8799 28.9376C16.4244 29.7918 15.5071 30.3926 14.6083 30.6765C14.3794 30.744 14.1501 30.8098 13.9204 30.8748C12.9078 31.1616 12.0891 31.5077 11.2891 32.207C11.1183 32.3467 11.0499 32.4023 10.8284 32.4353C10.5668 32.3979 10.4672 32.3397 10.293 32.1406C10.2653 31.9626 10.2437 31.7884 10.2266 31.6094C10.0875 30.4816 9.70339 29.5264 9.1037 28.564C8.53744 27.6481 8.42173 26.6245 8.56641 25.5664C8.58832 25.5007 8.61023 25.4349 8.63281 25.3672C8.57854 25.3777 8.52427 25.3882 8.46835 25.3991C7.31476 25.5692 6.23911 25.3854 5.24609 24.7695C4.34108 24.2088 3.43511 23.8244 2.36201 23.7514C2.07795 23.7302 1.88874 23.6806 1.66016 23.5078C1.54899 23.2855 1.53735 23.0813 1.59375 22.8437C1.70853 22.6884 1.83861 22.557 1.97299 22.4183C2.62948 21.6745 2.97054 20.6628 3.21655 19.7185C3.52152 18.5705 4.10734 17.6572 5.11328 17C5.06586 16.9631 5.01843 16.9262 4.96957 16.8882C3.97798 16.0783 3.44141 15.1617 3.12524 13.9204C2.86637 12.9208 2.46578 11.9882 1.75562 11.2227C1.59375 11.0234 1.59375 11.0234 1.55225 10.8159C1.60672 10.5653 1.66298 10.4606 1.85938 10.293C2.1084 10.2515 2.1084 10.2515 2.26715 10.2411C3.35937 10.1575 4.30716 9.78087 5.23779 9.21802C6.22494 8.62129 7.27971 8.37409 8.43359 8.5664C8.53221 8.59928 8.53221 8.59928 8.63281 8.63281C8.6222 8.56724 8.61158 8.50167 8.60065 8.43411C8.40473 7.0509 8.79664 5.97176 9.50024 4.7937C9.94143 4.03797 10.1932 3.26361 10.2486 2.389C10.269 2.09508 10.311 1.89577 10.4922 1.66015C10.7145 1.54899 10.9187 1.53734 11.1562 1.59375ZM11.3555 3.2539C11.3329 3.32786 11.3103 3.40182 11.287 3.47803C11.0105 4.3581 10.6465 5.14833 10.1726 5.93921C9.67064 6.78306 9.61133 7.62179 9.82812 8.5664C9.88599 8.54321 9.94386 8.52001 10.0035 8.49611C10.8508 8.17241 11.7505 8.00423 12.627 8.35843C12.9416 8.50179 13.2447 8.66435 13.5469 8.83203C13.6126 8.8649 13.6126 8.8649 13.6797 8.89844C13.6942 8.835 13.7088 8.77157 13.7238 8.70622C13.9661 7.69792 14.371 6.9169 15.2776 6.3501C15.5556 6.19348 15.8343 6.07736 16.1367 5.97656C15.9199 5.35868 15.3775 4.88281 14.8086 4.58203C14.5104 4.47017 14.2081 4.38188 13.9019 4.29507C13.0519 4.04923 12.2487 3.77731 11.4883 3.32031C11.4445 3.2984 11.4006 3.27648 11.3555 3.2539ZM22.0801 3.56103C21.4251 3.92618 20.7237 4.1187 20.0051 4.31952C19.1983 4.5514 18.604 4.9264 18.0625 5.57812C17.9921 5.70884 17.9244 5.84125 17.8633 5.97656C17.9139 5.99591 17.9645 6.01525 18.0166 6.03518C18.9708 6.41402 19.5871 6.88039 20.0355 7.81907C20.1742 8.16932 20.2523 8.52871 20.3203 8.89844C20.3638 8.87276 20.4073 8.84707 20.4521 8.82062C21.4 8.27974 22.3484 8.04705 23.4313 8.29222C23.6166 8.3537 23.794 8.42154 23.9727 8.5C24.0713 8.53287 24.0713 8.53287 24.1719 8.5664C24.4274 7.75189 24.3586 6.93297 23.9688 6.1713C23.8592 5.96924 23.746 5.76945 23.6314 5.57015C23.224 4.85869 22.8898 4.12424 22.7109 3.32031C22.4528 3.32031 22.2967 3.43527 22.0801 3.56103ZM15.207 7.83594C14.821 8.33793 14.7297 8.94049 14.7422 9.5625C14.8112 9.569 14.8802 9.57551 14.9513 9.58221C15.6063 9.64992 16.1891 9.73401 16.7219 10.1519C16.9144 10.3146 16.9144 10.3146 17.0955 10.2681C17.1901 10.2081 17.2842 10.1472 17.3761 10.0831C17.9446 9.70061 18.5836 9.60575 19.2578 9.5625C19.2313 8.71523 19.0884 8.14127 18.4949 7.51739C17.9977 7.08126 17.4618 6.94559 16.8156 6.95502C16.134 7.0112 15.6567 7.33434 15.207 7.83594ZM9.74097 10.0439C9.3866 10.4918 9.21105 11.0522 9.23047 11.6211C9.31459 12.2887 9.58773 12.8079 10.0896 13.2563C10.1574 13.3015 10.1574 13.3015 10.2266 13.3477C10.2581 13.3011 10.2896 13.2545 10.322 13.2065C10.8482 12.6162 11.5369 12.4355 12.2852 12.2852C12.2957 12.2305 12.3062 12.1759 12.3171 12.1197C12.4856 11.3131 12.7671 10.7407 13.3477 10.1602C12.7855 9.62404 12.2843 9.29678 11.5007 9.20971C10.8016 9.27826 10.2256 9.53021 9.74097 10.0439ZM20.8516 9.96094C20.7652 10.1018 20.7652 10.1018 20.7188 10.2266C20.7485 10.2572 20.7782 10.2879 20.8088 10.3194C21.3537 10.9073 21.5643 11.5045 21.7148 12.2852C21.7968 12.3009 21.7968 12.3009 21.8803 12.3171C22.6524 12.4784 23.2056 12.7308 23.7734 13.2812C24.1838 13.1099 24.4599 12.6953 24.6284 12.2935C24.8197 11.6957 24.8255 11.0931 24.5576 10.5231C24.2397 9.94879 23.8363 9.5643 23.2131 9.34486C22.317 9.09215 21.5311 9.32648 20.8516 9.96094ZM5.54484 10.3734C4.84982 10.7931 4.09229 11.0447 3.32031 11.2891C3.35404 11.3567 3.38777 11.4243 3.42252 11.494C3.79914 12.2629 4.10104 13.0433 4.31952 13.8719C4.56728 14.8091 5.02542 15.5269 5.84375 16.0703C5.88758 16.0703 5.93141 16.0703 5.97656 16.0703C6.02715 15.9634 6.02715 15.9634 6.07877 15.8542C6.53852 14.8973 7.02852 14.2477 8.06577 13.8641C8.33931 13.7804 8.61626 13.7253 8.89844 13.6797C8.87276 13.6362 8.84708 13.5927 8.82062 13.5479C8.2809 12.6021 8.04525 11.652 8.29222 10.571C8.35427 10.3856 8.42423 10.2075 8.5 10.0273C8.52395 9.93927 8.5468 9.85085 8.56641 9.76172C7.46464 9.45493 6.47772 9.80398 5.54484 10.3734ZM25.4336 9.82812C25.4512 9.86836 25.4689 9.90859 25.487 9.95004C25.8841 10.892 25.9152 11.6992 25.6328 12.6836C25.4885 13.0356 25.298 13.3548 25.1016 13.6797C25.1546 13.6894 25.2077 13.6992 25.2624 13.7093C26.11 13.8824 26.8922 14.1999 27.4193 14.9131C27.6623 15.2815 27.8605 15.6604 28.0234 16.0703C28.6298 15.8998 29.049 15.3288 29.3516 14.8086C29.5623 14.3943 29.6837 13.9806 29.7915 13.5303C29.9479 12.9105 30.1779 12.3568 30.4696 11.7889C30.4978 11.7338 30.5259 11.6788 30.5549 11.6221C30.5805 11.5737 30.6062 11.5253 30.6326 11.4754C30.6481 11.4358 30.6637 11.3962 30.6797 11.3555C30.6468 11.2897 30.6468 11.2897 30.6133 11.2227C30.4614 11.1722 30.3109 11.128 30.1567 11.0857C29.3238 10.8413 28.5044 10.4669 27.7843 9.98013C27.3135 9.7271 26.8715 9.66465 26.3425 9.67456C26.2841 9.67434 26.2257 9.67413 26.1655 9.67391C25.8802 9.67629 25.6859 9.68436 25.4336 9.82812ZM13.8125 11.2227C13.4813 11.7401 13.4039 12.1249 13.4342 12.7335C13.4397 12.9707 13.4372 13.1094 13.3145 13.3168C13.0791 13.4547 12.8676 13.4313 12.6047 13.4141C12.0453 13.3953 11.702 13.493 11.2351 13.8042C10.8678 14.161 10.6917 14.5505 10.6624 15.0576C10.6736 15.451 10.793 15.7526 11.0234 16.0703C11.1925 16.23 11.3685 16.3786 11.5461 16.5287C11.6875 16.668 11.6875 16.668 11.7747 16.917C11.7505 17.1679 11.7171 17.272 11.5547 17.4648C11.4809 17.5161 11.4061 17.5658 11.3306 17.6143C10.9838 17.8449 10.8202 18.2074 10.6914 18.5937C10.6322 19.1318 10.7306 19.5515 11.0548 19.9867C11.342 20.3058 11.6649 20.4985 12.0859 20.5859C12.318 20.5972 12.5493 20.5924 12.781 20.5762C12.9961 20.5651 13.1264 20.5727 13.3129 20.6848C13.4557 20.9201 13.4314 21.1304 13.4141 21.3953C13.3953 21.9547 13.493 22.298 13.8042 22.7649C14.161 23.1322 14.5505 23.3083 15.0576 23.3376C15.451 23.3264 15.7526 23.207 16.0703 22.9766C16.23 22.8075 16.3786 22.6315 16.5287 22.4539C16.668 22.3125 16.668 22.3125 16.917 22.2253C17.1679 22.2495 17.272 22.2829 17.4648 22.4453C17.5161 22.5191 17.5658 22.5939 17.6143 22.6694C17.8449 23.0162 18.2074 23.1798 18.5938 23.3086C19.0691 23.3609 19.4456 23.2915 19.8555 23.043C20.19 22.7692 20.5182 22.3533 20.5859 21.9141C20.5834 21.6888 20.5779 21.4645 20.5658 21.2396C20.5603 21.0181 20.5709 20.8761 20.6879 20.6855C20.9126 20.5488 21.1051 20.5682 21.3579 20.5859C21.9428 20.605 22.3862 20.5129 22.8354 20.1128C23.1335 19.7837 23.3139 19.3707 23.3418 18.9258C23.3088 18.3983 23.0762 17.9841 22.6943 17.6319C22.656 17.5987 22.6176 17.5655 22.5781 17.5312C22.2569 17.251 22.2569 17.251 22.2046 17C22.2684 16.6935 22.4644 16.5672 22.6943 16.3681C23.0762 16.0159 23.3088 15.6017 23.3418 15.0742C23.3102 14.5696 23.0882 14.1123 22.7122 13.7775C22.2374 13.4313 21.7894 13.3838 21.219 13.4238C21.0024 13.435 20.8738 13.4277 20.6871 13.3129C20.5487 13.0879 20.568 12.8959 20.5859 12.6421C20.6057 12.089 20.5007 11.6985 20.1958 11.231C19.8304 10.8655 19.4475 10.6887 18.9341 10.6707C18.4079 10.6833 18.0425 10.8529 17.6641 11.2227C17.5732 11.3539 17.4841 11.4864 17.3984 11.6211C17.1845 11.7281 16.9657 11.7273 16.7344 11.6875C16.5559 11.5422 16.5559 11.5422 16.4023 11.3555C16.0921 11.0207 15.7336 10.7275 15.2625 10.6756C14.7056 10.6588 14.2091 10.8151 13.8125 11.2227ZM7.37109 15.6719C6.98623 16.2748 6.86915 16.883 7.01105 17.5896C7.21261 18.2337 7.62788 18.7011 8.21362 19.0295C8.652 19.2303 9.08532 19.2564 9.5625 19.2578C9.56901 19.1888 9.57551 19.1198 9.58221 19.0487C9.64993 18.3937 9.73401 17.8109 10.1519 17.2781C10.3146 17.0856 10.3146 17.0856 10.2681 16.9045C10.2081 16.8099 10.1472 16.7158 10.0831 16.6239C9.71268 16.0733 9.61684 15.4607 9.5625 14.8086C8.62115 14.7555 8.00531 14.9488 7.37109 15.6719ZM24.4375 14.8086C24.4318 14.8713 24.426 14.9339 24.4201 14.9985C24.3404 15.7269 24.1938 16.3598 23.707 16.9336C23.7805 17.1474 23.8752 17.3211 24.0017 17.5063C24.3385 18.0359 24.403 18.643 24.4375 19.2578C25.137 19.2832 25.6841 19.1252 26.272 18.7473C26.7735 18.259 27.0331 17.7021 27.0564 17.0083C27.0368 16.3025 26.8111 15.862 26.3264 15.3533C25.875 14.9466 25.452 14.7984 24.8525 14.8044C24.7359 14.8053 24.7359 14.8053 24.617 14.8063C24.5578 14.807 24.4985 14.8078 24.4375 14.8086ZM28.0234 17.8633C28.0049 17.9187 27.9863 17.974 27.9671 18.0311C27.6251 18.9913 27.099 19.5915 26.1833 20.0332C25.8326 20.1743 25.4725 20.2521 25.1016 20.3203C25.1272 20.359 25.1529 20.3977 25.1794 20.4376C25.7358 21.3134 25.9546 22.2268 25.7407 23.2463C25.6701 23.5582 25.5945 23.8664 25.5 24.1719C26.1791 24.4246 26.8874 24.3452 27.5586 24.1055C27.825 23.9786 28.0793 23.8337 28.3347 23.6863C28.9497 23.3418 29.5469 23.0669 30.2148 22.8437C30.3924 22.7786 30.5692 22.7116 30.7461 22.6445C30.7116 22.5778 30.6771 22.5112 30.6416 22.4425C30.2528 21.6837 29.9364 20.934 29.7168 20.1086C29.4621 19.1619 29.0245 18.383 28.1562 17.8633C28.1124 17.8633 28.0686 17.8633 28.0234 17.8633ZM5.10913 18.4941C4.54694 19.0805 4.33983 19.8276 4.13549 20.5914C3.96774 21.2075 3.74433 21.8175 3.40617 22.3623C3.30377 22.5118 3.30377 22.5118 3.32031 22.7109C3.38237 22.728 3.44444 22.745 3.50838 22.7626C4.36416 23.008 5.24188 23.3355 5.96826 23.8606C6.659 24.3487 7.51622 24.3931 8.33009 24.2702C8.4142 24.2544 8.4142 24.2544 8.5 24.2383C8.46953 24.0006 8.41739 23.7893 8.33398 23.5659C8.03457 22.6839 8.18137 21.8012 8.53891 20.9615C8.63974 20.7721 8.76425 20.6199 8.89844 20.4531C8.89844 20.4093 8.89844 20.3655 8.89844 20.3203C8.79494 20.2985 8.79494 20.2985 8.68936 20.2762C8.12211 20.1499 7.64662 20.0066 7.17188 19.6562C7.12993 19.6271 7.08799 19.5979 7.04477 19.5678C6.49713 19.1492 6.19871 18.4994 5.97656 17.8633C5.70296 17.8633 5.30384 18.3177 5.10913 18.4941ZM10.0938 20.7187C9.50381 21.3277 9.23289 21.8643 9.23047 22.7109C9.27606 23.3076 9.58227 23.8259 10.0149 24.23C10.519 24.6394 11.1053 24.8308 11.7539 24.7695C12.3542 24.6553 12.8744 24.3661 13.2812 23.9062C13.1871 23.6983 13.0713 23.5406 12.9243 23.3667C12.5334 22.8701 12.3848 22.3312 12.2852 21.7148C12.1828 21.6942 12.1828 21.6942 12.0784 21.6731C11.4134 21.5289 10.8381 21.3378 10.348 20.837C10.239 20.7033 10.239 20.7033 10.0938 20.7187ZM23.5161 20.9636C23.0044 21.4277 22.3883 21.615 21.7148 21.7148C21.693 21.8183 21.693 21.8183 21.6707 21.9239C21.5085 22.6527 21.2946 23.2653 20.7188 23.7734C20.8883 24.1816 21.3035 24.4523 21.6982 24.6284C22.3619 24.8581 22.9543 24.802 23.5854 24.5018C24.202 24.1488 24.5604 23.6088 24.7529 22.9351C24.8318 22.1856 24.6364 21.572 24.1719 20.9844C24.0351 20.8193 24.0351 20.8193 23.9062 20.7187C23.7095 20.7187 23.654 20.827 23.5161 20.9636ZM16.6099 23.927C16.0331 24.3002 15.4181 24.3941 14.7422 24.4375C14.7661 25.1994 14.8704 25.8075 15.407 26.3752C15.9421 26.8651 16.4651 27.0645 17.1914 27.0473C17.8701 26.9818 18.3437 26.6653 18.793 26.1641C19.179 25.6621 19.2703 25.0595 19.2578 24.4375C19.1888 24.431 19.1198 24.4245 19.0487 24.4178C18.2744 24.3377 17.6971 24.18 17.0664 23.707C16.8691 23.707 16.7704 23.8147 16.6099 23.927ZM13.4844 25.1939C12.7531 25.7126 11.8829 25.9429 10.9941 25.7936C10.593 25.715 10.2585 25.6216 9.89453 25.4336C9.8507 25.4336 9.80688 25.4336 9.76172 25.4336C9.49537 26.3814 9.70783 27.3104 10.1732 28.1425C10.2514 28.2807 10.3305 28.4183 10.4097 28.556C10.7954 29.2328 11.0577 29.9394 11.2891 30.6797C11.5537 30.5788 11.8033 30.4569 12.0569 30.3311C12.7349 30.0052 13.4584 29.8179 14.1814 29.6185C14.893 29.4068 15.5145 28.9733 15.9375 28.3555C15.9848 28.246 16.0298 28.1356 16.0703 28.0234C16.0309 28.0104 15.9914 27.9974 15.9507 27.984C15.122 27.685 14.4517 27.1549 14.0428 26.3664C13.8612 25.9546 13.7456 25.5463 13.6797 25.1016C13.5958 25.0951 13.5958 25.0951 13.4844 25.1939ZM20.3203 25.1016C20.2985 25.2051 20.2985 25.2051 20.2762 25.3106C20.1499 25.8779 20.0066 26.3534 19.6562 26.8281C19.6271 26.8701 19.5979 26.912 19.5678 26.9552C19.1655 27.4816 18.5331 27.7836 17.9297 28.0234C18.1002 28.6298 18.6712 29.049 19.1914 29.3516C19.6057 29.5602 20.0267 29.6936 20.4739 29.8123C21.179 30.007 21.8317 30.237 22.4559 30.6252C22.5889 30.701 22.5889 30.701 22.7773 30.6133C22.8347 30.4576 22.8802 30.3083 22.9226 30.1484C23.1762 29.2723 23.5891 28.4783 24.0614 27.7013C24.452 26.9622 24.377 26.2292 24.2383 25.4336C24.1457 25.4684 24.1457 25.4684 24.0513 25.5039C23.9692 25.5341 23.8871 25.5643 23.8025 25.5955C23.7216 25.6255 23.6407 25.6555 23.5574 25.6865C22.7215 25.9523 21.7884 25.8774 20.9916 25.5082C20.7591 25.3861 20.5379 25.2483 20.3203 25.1016Z" fill="#CFB27A"/>
<path d="M18.8137 14.2981C19.4937 14.8116 20.0573 15.4666 20.1875 16.3359C20.2824 17.4944 20.109 18.3516 19.3471 19.2555C18.8154 19.8285 18.1323 20.1654 17.3549 20.2085C16.2468 20.2457 15.4507 20.0022 14.626 19.2371C13.9624 18.5359 13.7783 17.7691 13.7846 16.832C13.8119 15.8942 14.2001 15.1586 14.8792 14.516C15.9853 13.6061 17.6151 13.5026 18.8137 14.2981ZM15.3399 15.6719C14.944 16.2548 14.8884 16.765 14.9414 17.4648C15.0638 18.0046 15.367 18.4531 15.8254 18.7644C16.3981 19.0941 17.0027 19.1634 17.6547 19.0155C18.2486 18.7997 18.6411 18.4255 18.9318 17.8708C19.153 17.3572 19.1443 16.6995 18.9548 16.1782C18.6918 15.6182 18.2968 15.2517 17.7305 15.0078C16.8578 14.7212 15.9347 14.9951 15.3399 15.6719Z" fill="#CFB27A"/>
</svg>
