<svg width="9" height="12" viewBox="0 0 9 12" fill="none" xmlns="http://www.w3.org/2000/svg">
<path d="M0.12 0.48H2.872C2.984 0.48 3.128 0.485333 3.304 0.495999C3.48533 0.501333 3.65067 0.517333 3.8 0.544C4.46133 0.645333 5.008 0.869333 5.44 1.216C5.87733 1.55733 6.2 1.98667 6.408 2.504C6.62133 3.02133 6.728 3.59733 6.728 4.232C6.728 5.16 6.50667 5.94667 6.064 6.592C5.62667 7.232 4.95733 7.656 4.056 7.864C3.83733 7.912 3.64533 7.944 3.48 7.96C3.31467 7.97067 3.10933 7.976 2.864 7.976H0.12V6.176H2.792C2.904 6.176 3.024 6.17067 3.152 6.16C3.28533 6.14933 3.41067 6.128 3.528 6.096C3.84267 6.01067 4.09067 5.86933 4.272 5.672C4.45867 5.46933 4.58933 5.24 4.664 4.984C4.744 4.728 4.784 4.47733 4.784 4.232C4.784 3.98667 4.744 3.736 4.664 3.48C4.58933 3.21867 4.45867 2.98667 4.272 2.784C4.09067 2.58133 3.84267 2.44 3.528 2.36C3.41067 2.328 3.28533 2.30933 3.152 2.304C3.024 2.29333 2.904 2.288 2.792 2.288H0.12V0.48ZM0.12 7.976L2.216 7.496L7.288 12H4.6L0.12 7.976ZM0.176 4.96V3.504H8.088V4.96H0.176ZM2.632 1.936V0.48H8.04V1.936H2.632Z" fill="#3C3C3C"/>
</svg>
