<svg width="34" height="48" viewBox="0 0 34 48" fill="none" xmlns="http://www.w3.org/2000/svg">
<path d="M18.4043 17.7267L18.4437 17.7339L18.4771 17.7118C21.3929 15.79 25.2146 16.2222 27.6696 18.7991C30.1204 21.3716 30.5365 25.3788 28.7131 28.4372L28.6929 28.4711L28.7013 28.5097C28.7071 28.5366 28.7103 28.5617 28.7103 28.5871C28.7103 28.6839 28.6735 28.7756 28.6093 28.8438C28.6093 28.8439 28.6092 28.844 28.6091 28.844L26.7263 30.821C26.7261 30.8211 26.726 30.8212 26.7259 30.8214C26.6605 30.8882 26.5746 30.9248 26.4874 30.9248C26.4702 30.9248 26.4541 30.9229 26.4335 30.9191L26.3926 30.9116L26.3584 30.9353C25.1419 31.7808 23.7433 32.2994 22.4594 32.3936L22.3951 32.3983L22.3729 32.4589C22.3409 32.5459 22.2831 32.6147 22.2079 32.6534L22.2074 32.6536L19.8012 33.9086L19.8012 33.9086L19.7996 33.9095C19.7536 33.9346 19.704 33.9458 19.6527 33.9458C19.5676 33.9458 19.4816 33.9083 19.4173 33.8412L19.3491 33.77L19.277 33.8371L4.92175 47.1746L4.92065 47.1757C4.52734 47.5525 4.03146 47.74 3.53627 47.74C3.00871 47.74 2.48039 47.5286 2.07611 47.1039L2.07605 47.1038L0.708564 45.6691L0.708504 45.6691C-0.0769839 44.8464 -0.105701 43.5261 0.643815 42.6649L0.644804 42.6638L13.3503 27.6043L13.408 27.5359L13.3465 27.471C13.2454 27.3644 13.2132 27.1979 13.281 27.0554L13.281 27.0553L14.4763 24.5292L14.4763 24.5291C14.5146 24.448 14.5815 24.3873 14.6606 24.3552L14.7187 24.3316L14.7228 24.2691C14.8119 22.9161 15.3096 21.4428 16.1174 20.1652L16.137 20.134L16.1318 20.0976C16.1156 19.9839 16.1441 19.8704 16.2211 19.7888C16.2212 19.7887 16.2212 19.7887 16.2213 19.7886L18.1048 17.8109C18.1782 17.7343 18.2913 17.7063 18.4043 17.7267ZM27.1948 19.3107L27.1948 19.3106C25.032 17.0428 21.6996 16.5962 19.0835 18.1597L18.976 18.2239L19.0624 18.3145L28.1282 27.8283L28.223 27.9278L28.2885 27.807C29.775 25.0654 29.3536 21.5773 27.1948 19.3107ZM21.899 31.6609L21.9279 31.6912L21.9698 31.6919C23.1844 31.7114 24.557 31.272 25.7642 30.4901L25.8654 30.4245L25.7822 30.3372L16.6853 20.7895L16.5939 20.6936L16.5267 20.8078C15.7809 22.0759 15.3652 23.5166 15.3853 24.787L15.3859 24.8261L15.4129 24.8544L18.6546 28.2569L18.6546 28.2569L21.899 31.6609ZM1.18188 45.1575L1.1819 45.1576L2.54927 46.5921C3.07556 47.1462 3.92054 47.1654 4.4714 46.6387C4.47158 46.6385 4.47176 46.6383 4.47194 46.6382L4.9464 46.1973L5.02059 46.1284L4.95071 46.0551L1.70767 42.6525L1.63075 42.5718L1.55885 42.6571L1.14364 43.1493C1.14344 43.1495 1.14325 43.1497 1.14306 43.1499C0.638602 43.7291 0.657905 44.6075 1.18188 45.1575ZM5.46222 45.5818L5.53034 45.6533L5.60268 45.586L18.7879 33.334L18.8621 33.2651L18.7923 33.1918L13.963 28.1234L13.8861 28.0426L13.8142 28.1279L2.1403 41.9662L2.08248 42.0348L2.14434 42.0997L5.46222 45.5818ZM19.6433 33.0857L19.6919 33.166L19.7751 33.1226L21.3614 32.2948L21.4792 32.2333L21.3876 32.1372L18.1784 28.7685L14.9692 25.3999L14.8687 25.2944L14.8064 25.4261L14.0175 27.0935L13.9804 27.1719L14.0529 27.2197C14.0726 27.2327 14.0909 27.2482 14.109 27.2672C14.1091 27.2672 14.1091 27.2672 14.1091 27.2673L19.5972 33.0263L19.5974 33.0265C19.6156 33.0455 19.6306 33.0647 19.6433 33.0857ZM26.4136 29.9876L26.486 30.0636L26.5584 29.9876L27.8229 28.6605L27.8886 28.5915L27.8229 28.5225L18.4141 18.6493L18.3417 18.5733L18.2693 18.6493L17.0048 19.9765L16.9391 20.0454L17.0048 20.1144L26.4136 29.9876Z" fill="#CFB17B" stroke="#D4B57A" stroke-width="0.2"/>
<path d="M13.8105 32.8436L13.8106 32.8435C13.9419 32.7053 14.1538 32.7053 14.2852 32.8435C14.4193 32.9846 14.4193 33.2156 14.2852 33.3567C14.2852 33.3568 14.2852 33.3568 14.2852 33.3568L11.8708 35.89C11.8707 35.89 11.8707 35.89 11.8707 35.8901C11.8034 35.9603 11.7166 35.9947 11.6325 35.9947C11.5473 35.9947 11.4618 35.9604 11.3944 35.8901C11.2605 35.749 11.2605 35.5181 11.3944 35.3771C11.3945 35.377 11.3945 35.377 11.3945 35.377L13.8105 32.8436Z" fill="#CFB17B" stroke="#D4B57A" stroke-width="0.2"/>
<path d="M25.8822 20.6862C24.3449 19.0728 22.729 19.1174 22.0433 19.1368L22.0433 19.1367L25.8099 20.7553M25.8822 20.6862C25.8822 20.6862 25.8823 20.6863 25.8823 20.6864L25.8099 20.7553M25.8822 20.6862C25.8822 20.6862 25.8822 20.6862 25.8822 20.6861L25.8099 20.7553M25.8822 20.6862C25.949 20.7559 26.0342 20.7894 26.1204 20.7894C26.2056 20.7894 26.2913 20.7551 26.3588 20.686M25.8099 20.7553C25.896 20.8452 26.0075 20.8894 26.1204 20.8894C26.2333 20.8894 26.3448 20.8437 26.4309 20.7553M26.3588 20.686C26.3587 20.6861 26.3585 20.6863 26.3584 20.6864L26.4309 20.7553M26.3588 20.686C26.359 20.6858 26.3591 20.6857 26.3592 20.6856L26.4309 20.7553M26.3588 20.686L26.4309 20.7553M26.3584 20.1732C26.3584 20.1732 26.3584 20.1732 26.3585 20.1733L26.4309 20.1043L26.3584 20.1732Z" fill="#CFB17B" stroke="#D4B57A" stroke-width="0.2"/>
<path d="M13.9373 17.4296C13.9373 18.3731 13.2057 19.1325 12.3184 19.1325C11.4298 19.1325 10.6995 18.3717 10.6995 17.4296C10.6995 16.4861 11.4311 15.7267 12.3184 15.7267C13.2071 15.7267 13.9373 16.486 13.9373 17.4296ZM13.2595 17.4296C13.2595 16.8916 12.8426 16.4458 12.3184 16.4458C11.7945 16.4458 11.3759 16.8913 11.3759 17.4296C11.3759 17.9678 11.7945 18.4134 12.3184 18.4134C12.8411 18.4134 13.2595 17.9677 13.2595 17.4296Z" fill="#CFB17B" stroke="#D4B57A" stroke-width="0.2"/>
<path d="M16.7951 1.80263V1.80292C16.7951 2.34117 17.2136 2.78669 17.7376 2.78669C18.2615 2.78669 18.6801 2.34118 18.6801 1.80292C18.6801 1.26466 18.2615 0.819152 17.7376 0.819152C17.2134 0.819152 16.7967 1.26488 16.7951 1.80263ZM19.3565 1.80292C19.3565 2.7465 18.6263 3.50582 17.7376 3.50582C16.8504 3.50582 16.1201 2.74659 16.1187 1.80285C16.1188 0.859357 16.8503 0.100031 17.7376 0.100031C18.6263 0.100031 19.3565 0.859345 19.3565 1.80292Z" fill="#CFB17B" stroke="#D4B57A" stroke-width="0.2"/>
<path d="M19.29 12.9607C18.4013 12.9607 17.6711 12.2014 17.6711 11.2578C17.6711 10.3142 18.4013 9.5549 19.29 9.5549C20.1786 9.5549 20.9089 10.3142 20.9089 11.2578C20.9089 12.2014 20.1786 12.9607 19.29 12.9607ZM19.29 12.2416C19.8139 12.2416 20.2325 11.796 20.2325 11.2578C20.2325 10.7195 19.8139 10.274 19.29 10.274C18.766 10.274 18.3475 10.7195 18.3475 11.2578C18.3475 11.796 18.766 12.2416 19.29 12.2416Z" fill="#CFB17B" stroke="#D4B57A" stroke-width="0.2"/>
<path d="M32.6811 13.2275V13.2272C32.6811 12.689 32.2625 12.2435 31.7386 12.2435C31.2146 12.2435 30.7961 12.689 30.7961 13.2272C30.7961 13.7655 31.2146 14.211 31.7386 14.211C32.2628 14.211 32.6796 13.7653 32.6811 13.2275ZM30.1197 13.2272C30.1197 12.2837 30.8499 11.5243 31.7386 11.5243C32.6258 11.5243 33.3562 12.2836 33.3575 13.2274C33.3574 14.1709 32.6272 14.9301 31.7386 14.9301C30.8499 14.9301 30.1197 14.1708 30.1197 13.2272Z" fill="#CFB17B" stroke="#D4B57A" stroke-width="0.2"/>
<path d="M24.8237 6.12762C24.8237 6.66559 25.2406 7.11125 25.7648 7.11125C26.2887 7.11125 26.7073 6.66574 26.7073 6.12748C26.7073 5.58922 26.2887 5.14371 25.7648 5.14371C25.2409 5.14371 24.8222 5.58916 24.8237 6.12762ZM24.8237 6.12762C24.8237 6.12767 24.8237 6.12772 24.8237 6.12777L24.9237 6.12748H24.8237C24.8237 6.12753 24.8237 6.12757 24.8237 6.12762ZM27.3837 6.12748C27.3837 7.07106 26.6534 7.83037 25.7648 7.83037C24.8761 7.83037 24.1459 7.07106 24.1459 6.12748C24.1459 5.18395 24.8774 4.42458 25.7648 4.42458C26.6534 4.42458 27.3837 5.1839 27.3837 6.12748Z" fill="#CFB17B" stroke="#D4B57A" stroke-width="0.2"/>
<path d="M8.09901 11.2575V11.2578C8.09901 11.796 8.51754 12.2416 9.04149 12.2416C9.56543 12.2416 9.98403 11.796 9.98403 11.2578C9.98403 10.7195 9.56543 10.274 9.04149 10.274C8.51729 10.274 8.10057 10.7197 8.09901 11.2575ZM10.6604 11.2578C10.6604 12.2013 9.9288 12.9607 9.04149 12.9607C8.15418 12.9607 7.42263 12.2013 7.42263 11.2578C7.42263 10.3142 8.15282 9.5549 9.04149 9.5549C9.93016 9.5549 10.6604 10.3142 10.6604 11.2578Z" fill="#CFB17B" stroke="#D4B57A" stroke-width="0.2"/>
</svg>
