<svg width="33" height="26" viewBox="0 0 33 26" fill="none" xmlns="http://www.w3.org/2000/svg">
<g clip-path="url(#clip0_173_328)">
<path d="M30.8245 4.47175C29.9702 3.38575 28.8939 2.55528 27.6955 1.92711C26.4972 1.18182 25.1324 0.617528 23.7011 0.298118C20.0839 -0.606878 16.3557 0.660116 12.9826 1.88452C8.79956 3.26863 5.01592 5.8665 2.73021 9.55037C2.51939 9.7846 2.242 10.0721 2.242 10.3382C0.311346 13.5962 -0.154673 17.6421 1.53187 21.113C2.83007 23.7641 5.5929 24.6265 8.45559 24.6585C9.43201 24.733 10.4306 24.6798 11.396 24.5307C12.3613 24.5094 13.6928 23.9451 14.8134 23.7535C15.3793 23.7428 15.923 23.9025 16.5555 24.2539C17.2434 24.4562 17.9313 24.6585 18.6193 24.8608C19.6068 25.2334 20.6165 25.5315 21.6817 25.638C22.2254 25.7551 22.769 25.8509 23.3127 25.9361C24.1338 26.0319 25.6983 26.1704 25.7871 25.0737C25.2767 23.5725 23.4459 22.923 22.7358 21.4857C23.7011 20.1335 25.1768 19.1966 26.4195 18.0786C28.5832 16.1089 30.991 14.0966 32.1338 11.3923C33.0104 9.07125 32.2004 6.45209 30.8245 4.47175ZM17.3654 23.4873C16.8439 23.2744 16.3335 23.0614 15.812 22.8591C15.7677 22.8698 15.7122 22.8698 15.6678 22.8804C15.0686 22.7314 14.4362 22.7314 13.8148 22.955C12.4833 23.3276 11.1297 23.6364 9.7316 23.6364C8.59983 23.7109 7.37931 23.7002 6.23645 23.466C3.69553 22.6355 2.04228 20.2826 1.57626 17.7592C1.35434 15.9066 1.66502 13.9795 2.34186 12.2441C3.45143 9.73137 5.53742 7.72973 7.71218 6.02621C10.708 3.86487 14.2919 2.44881 17.9757 1.62899C19.2961 1.44799 20.6276 1.39476 21.9702 1.49058C22.0922 1.50123 22.2143 1.51188 22.3363 1.52252C22.8689 1.56511 23.3904 1.63964 23.923 1.72482C24.4667 1.80999 24.9993 1.92711 25.5319 2.07617C26.131 2.26781 26.7191 2.52334 27.2961 2.81081C27.3516 2.84275 27.407 2.87469 27.4625 2.90664C27.7288 2.99181 28.0839 3.33252 28.4057 3.50287C29.726 4.49304 30.7358 5.93039 31.1907 7.46356C31.5901 8.97543 31.4015 10.6364 30.3363 12.3399C28.4722 15.353 25.4875 17.5037 22.7469 19.7396C19.8176 21.7731 22.4473 23.104 24.267 24.552C24.3668 24.6585 24.4667 24.7543 24.5555 24.8608C24.5111 24.8608 24.4667 24.8714 24.4223 24.8714C24.0229 24.9247 23.6234 24.9566 23.2351 24.9566C21.2378 24.6691 19.2961 24.041 17.3654 23.4873Z" fill="#CFB27A"/>
</g>
<defs>
<clipPath id="clip0_173_328">
<rect width="32" height="26" fill="white" transform="translate(0.5)"/>
</clipPath>
</defs>
</svg>
