<svg width="33" height="41" viewBox="0 0 33 41" fill="none" xmlns="http://www.w3.org/2000/svg">
<g clip-path="url(#clip0_173_334)">
<path d="M30.03 13.7104C21.186 13.7104 30.888 13.7104 20.526 13.7104L26.994 8.3312C27.456 8.0032 27.654 6.3632 26.532 4.7232C25.278 2.8864 22.638 1.312 20.658 2.2304C19.206 -0.5248 13.464 -0.459201 12.144 2.3616C9.24 0.9184 4.356 5.1824 5.61 8.3312C5.61 8.3968 5.676 8.4624 5.742 8.528L12.21 13.776H2.97C1.452 13.776 0.197998 15.0224 0.197998 16.5312C0.197998 19.5488 0.197998 27.0272 0.197998 30.0448C0.197998 31.488 1.452 32.6688 2.97 32.6688C3.63 32.6688 2.574 32.9312 18.876 27.6176L28.908 32.0128C30.756 32.8 32.868 31.5536 32.868 29.5856V16.4656C32.868 14.9568 31.614 13.7104 30.03 13.7104ZM31.878 16.4656V18.8272C30.822 19.1552 29.766 19.4176 28.776 19.6144C29.7 18.1712 30.426 16.4 30.558 14.76C31.284 14.9568 31.878 15.6784 31.878 16.4656ZM31.878 24.8624C29.238 25.7152 25.74 26.4368 22.836 25.3872C24.948 24.0096 26.664 22.4352 27.984 20.7296C29.238 20.5984 30.492 20.2704 31.878 19.8768V24.8624ZM1.122 26.3056V22.1072C6.864 21.3856 12.936 18.1056 17.622 14.6944C20.856 14.6944 22.836 14.6944 25.608 14.6944C19.008 20.1392 9.768 25.7808 1.122 26.3056ZM26.334 7.6752L19.008 13.7104H18.48C18.744 12.5952 20.658 4.3952 20.922 3.2144C22.902 1.9024 27.06 5.3136 26.334 7.6752ZM19.932 2.8864C19.932 2.952 19.932 2.952 19.932 2.8864L17.424 13.7104C16.764 13.7104 16.302 13.7104 15.51 13.7104L13.068 2.8864C13.86 0.5904 19.14 0.5904 19.932 2.8864ZM6.6 7.8064C5.808 5.4448 9.966 2.0336 11.946 3.28C12.342 4.1984 12.012 2.8864 14.52 13.7104H13.926L6.6 7.8064ZM2.97 14.6944C4.818 14.6944 5.412 14.6944 15.972 14.6944C11.748 17.6464 6.27 20.4672 1.122 21.1232V16.4656C1.122 15.4816 1.98 14.6944 2.97 14.6944ZM2.97 31.6192C1.98 31.6192 1.188 30.8976 1.188 29.9792V27.2896C10.362 26.7648 20.262 20.5984 27.258 14.6944H29.634C29.238 19.8768 23.76 24.1408 18.744 26.6336C2.442 31.8816 3.432 31.6192 2.97 31.6192ZM29.304 31.16L19.998 27.0928C20.262 26.9616 21.186 26.4368 21.78 26.0432C23.892 27.0272 26.928 27.4208 31.812 25.912V29.6512C31.878 30.832 30.492 31.6848 29.304 31.16Z" fill="#CEB380"/>
<path d="M2.725 41.99C2.71167 41.9 2.68167 41.8183 2.635 41.745C2.58833 41.6683 2.53 41.6017 2.46 41.545C2.39 41.4883 2.31 41.445 2.22 41.415C2.13333 41.3817 2.04167 41.365 1.945 41.365C1.76833 41.365 1.61833 41.4 1.495 41.47C1.37167 41.5367 1.27167 41.6283 1.195 41.745C1.11833 41.8583 1.06167 41.9883 1.025 42.135C0.991667 42.2817 0.975 42.4333 0.975 42.59C0.975 42.74 0.991667 42.8867 1.025 43.03C1.06167 43.17 1.11833 43.2967 1.195 43.41C1.27167 43.5233 1.37167 43.615 1.495 43.685C1.61833 43.7517 1.76833 43.785 1.945 43.785C2.185 43.785 2.37167 43.7117 2.505 43.565C2.64167 43.4183 2.725 43.225 2.755 42.985H3.515C3.495 43.2083 3.44333 43.41 3.36 43.59C3.27667 43.77 3.16667 43.9233 3.03 44.05C2.89333 44.1767 2.73333 44.2733 2.55 44.34C2.36667 44.4067 2.165 44.44 1.945 44.44C1.67167 44.44 1.425 44.3933 1.205 44.3C0.988333 44.2033 0.805 44.0717 0.655 43.905C0.505 43.7383 0.39 43.5433 0.31 43.32C0.23 43.0933 0.19 42.85 0.19 42.59C0.19 42.3233 0.23 42.0767 0.31 41.85C0.39 41.62 0.505 41.42 0.655 41.25C0.805 41.08 0.988333 40.9467 1.205 40.85C1.425 40.7533 1.67167 40.705 1.945 40.705C2.14167 40.705 2.32667 40.7333 2.5 40.79C2.67667 40.8467 2.83333 40.93 2.97 41.04C3.11 41.1467 3.225 41.28 3.315 41.44C3.405 41.6 3.46167 41.7833 3.485 41.99H2.725ZM3.97605 41.775H4.65105V42.255H4.66105C4.69439 42.175 4.73939 42.1017 4.79605 42.035C4.85272 41.965 4.91772 41.9067 4.99105 41.86C5.06439 41.81 5.14272 41.7717 5.22605 41.745C5.30939 41.7183 5.39605 41.705 5.48605 41.705C5.53272 41.705 5.58439 41.7133 5.64105 41.73V42.39C5.60772 42.3833 5.56772 42.3783 5.52105 42.375C5.47439 42.3683 5.42939 42.365 5.38605 42.365C5.25605 42.365 5.14605 42.3867 5.05605 42.43C4.96605 42.4733 4.89272 42.5333 4.83605 42.61C4.78272 42.6833 4.74439 42.77 4.72105 42.87C4.69772 42.97 4.68605 43.0783 4.68605 43.195V44.36H3.97605V41.775ZM7.57152 42.79C7.53819 42.61 7.47819 42.4733 7.39152 42.38C7.30819 42.2867 7.17986 42.24 7.00652 42.24C6.89319 42.24 6.79819 42.26 6.72152 42.3C6.64819 42.3367 6.58819 42.3833 6.54152 42.44C6.49819 42.4967 6.46652 42.5567 6.44652 42.62C6.42986 42.6833 6.41986 42.74 6.41652 42.79H7.57152ZM6.41652 43.24C6.42652 43.47 6.48486 43.6367 6.59152 43.74C6.69819 43.8433 6.85152 43.895 7.05152 43.895C7.19486 43.895 7.31819 43.86 7.42152 43.79C7.52486 43.7167 7.58819 43.64 7.61152 43.56H8.23652C8.13652 43.87 7.98319 44.0917 7.77652 44.225C7.56986 44.3583 7.31986 44.425 7.02652 44.425C6.82319 44.425 6.63986 44.3933 6.47652 44.33C6.31319 44.2633 6.17486 44.17 6.06152 44.05C5.94819 43.93 5.85986 43.7867 5.79652 43.62C5.73652 43.4533 5.70652 43.27 5.70652 43.07C5.70652 42.8767 5.73819 42.6967 5.80152 42.53C5.86486 42.3633 5.95486 42.22 6.07152 42.1C6.18819 41.9767 6.32652 41.88 6.48652 41.81C6.64986 41.74 6.82986 41.705 7.02652 41.705C7.24652 41.705 7.43819 41.7483 7.60152 41.835C7.76486 41.9183 7.89819 42.0317 8.00152 42.175C8.10819 42.3183 8.18486 42.4817 8.23152 42.665C8.27819 42.8483 8.29486 43.04 8.28152 43.24H6.41652ZM8.67262 42.57C8.68262 42.4033 8.72428 42.265 8.79762 42.155C8.87095 42.045 8.96428 41.9567 9.07762 41.89C9.19095 41.8233 9.31762 41.7767 9.45762 41.75C9.60095 41.72 9.74428 41.705 9.88762 41.705C10.0176 41.705 10.1493 41.715 10.2826 41.735C10.416 41.7517 10.5376 41.7867 10.6476 41.84C10.7576 41.8933 10.8476 41.9683 10.9176 42.065C10.9876 42.1583 11.0226 42.2833 11.0226 42.44V43.785C11.0226 43.9017 11.0293 44.0133 11.0426 44.12C11.056 44.2267 11.0793 44.3067 11.1126 44.36H10.3926C10.3793 44.32 10.3676 44.28 10.3576 44.24C10.351 44.1967 10.346 44.1533 10.3426 44.11C10.2293 44.2267 10.096 44.3083 9.94262 44.355C9.78928 44.4017 9.63262 44.425 9.47262 44.425C9.34928 44.425 9.23428 44.41 9.12762 44.38C9.02095 44.35 8.92762 44.3033 8.84762 44.24C8.76762 44.1767 8.70428 44.0967 8.65762 44C8.61428 43.9033 8.59262 43.7883 8.59262 43.655C8.59262 43.5083 8.61762 43.3883 8.66762 43.295C8.72095 43.1983 8.78762 43.1217 8.86762 43.065C8.95095 43.0083 9.04428 42.9667 9.14762 42.94C9.25428 42.91 9.36095 42.8867 9.46762 42.87C9.57428 42.8533 9.67928 42.84 9.78262 42.83C9.88595 42.82 9.97762 42.805 10.0576 42.785C10.1376 42.765 10.201 42.7367 10.2476 42.7C10.2943 42.66 10.316 42.6033 10.3126 42.53C10.3126 42.4533 10.2993 42.3933 10.2726 42.35C10.2493 42.3033 10.216 42.2683 10.1726 42.245C10.1326 42.2183 10.0843 42.2017 10.0276 42.195C9.97428 42.185 9.91595 42.18 9.85262 42.18C9.71262 42.18 9.60262 42.21 9.52262 42.27C9.44262 42.33 9.39595 42.43 9.38262 42.57H8.67262ZM10.3126 43.095C10.2826 43.1217 10.2443 43.1433 10.1976 43.16C10.1543 43.1733 10.106 43.185 10.0526 43.195C10.0026 43.205 9.94928 43.2133 9.89262 43.22C9.83595 43.2267 9.77928 43.235 9.72262 43.245C9.66928 43.255 9.61595 43.2683 9.56262 43.285C9.51262 43.3017 9.46762 43.325 9.42762 43.355C9.39095 43.3817 9.36095 43.4167 9.33762 43.46C9.31428 43.5033 9.30262 43.5583 9.30262 43.625C9.30262 43.6883 9.31428 43.7417 9.33762 43.785C9.36095 43.8283 9.39262 43.8633 9.43262 43.89C9.47262 43.9133 9.51928 43.93 9.57262 43.94C9.62595 43.95 9.68095 43.955 9.73762 43.955C9.87762 43.955 9.98595 43.9317 10.0626 43.885C10.1393 43.8383 10.196 43.7833 10.2326 43.72C10.2693 43.6533 10.291 43.5867 10.2976 43.52C10.3076 43.4533 10.3126 43.4 10.3126 43.36V43.095ZM12.4737 41.775H12.9937V42.25H12.4737V43.53C12.4737 43.65 12.4937 43.73 12.5337 43.77C12.5737 43.81 12.6537 43.83 12.7737 43.83C12.8137 43.83 12.852 43.8283 12.8887 43.825C12.9254 43.8217 12.9604 43.8167 12.9937 43.81V44.36C12.9337 44.37 12.867 44.3767 12.7937 44.38C12.7204 44.3833 12.6487 44.385 12.5787 44.385C12.4687 44.385 12.3637 44.3767 12.2637 44.36C12.167 44.3467 12.0804 44.3183 12.0037 44.275C11.9304 44.2317 11.872 44.17 11.8287 44.09C11.7854 44.01 11.7637 43.905 11.7637 43.775V42.25H11.3337V41.775H11.7637V41H12.4737V41.775ZM15.0715 42.79C15.0382 42.61 14.9782 42.4733 14.8915 42.38C14.8082 42.2867 14.6799 42.24 14.5065 42.24C14.3932 42.24 14.2982 42.26 14.2215 42.3C14.1482 42.3367 14.0882 42.3833 14.0415 42.44C13.9982 42.4967 13.9665 42.5567 13.9465 42.62C13.9299 42.6833 13.9199 42.74 13.9165 42.79H15.0715ZM13.9165 43.24C13.9265 43.47 13.9849 43.6367 14.0915 43.74C14.1982 43.8433 14.3515 43.895 14.5515 43.895C14.6949 43.895 14.8182 43.86 14.9215 43.79C15.0249 43.7167 15.0882 43.64 15.1115 43.56H15.7365C15.6365 43.87 15.4832 44.0917 15.2765 44.225C15.0699 44.3583 14.8199 44.425 14.5265 44.425C14.3232 44.425 14.1399 44.3933 13.9765 44.33C13.8132 44.2633 13.6749 44.17 13.5615 44.05C13.4482 43.93 13.3599 43.7867 13.2965 43.62C13.2365 43.4533 13.2065 43.27 13.2065 43.07C13.2065 42.8767 13.2382 42.6967 13.3015 42.53C13.3649 42.3633 13.4549 42.22 13.5715 42.1C13.6882 41.9767 13.8265 41.88 13.9865 41.81C14.1499 41.74 14.3299 41.705 14.5265 41.705C14.7465 41.705 14.9382 41.7483 15.1015 41.835C15.2649 41.9183 15.3982 42.0317 15.5015 42.175C15.6082 42.3183 15.6849 42.4817 15.7315 42.665C15.7782 42.8483 15.7949 43.04 15.7815 43.24H13.9165ZM18.0376 43.06C18.0376 42.9533 18.0276 42.8517 18.0076 42.755C17.9876 42.655 17.9526 42.5683 17.9026 42.495C17.856 42.4183 17.7943 42.3567 17.7176 42.31C17.641 42.2633 17.5443 42.24 17.4276 42.24C17.311 42.24 17.2126 42.2633 17.1326 42.31C17.0526 42.3567 16.9876 42.4183 16.9376 42.495C16.891 42.5717 16.856 42.66 16.8326 42.76C16.8126 42.8567 16.8026 42.9583 16.8026 43.065C16.8026 43.165 16.8143 43.265 16.8376 43.365C16.861 43.465 16.8976 43.555 16.9476 43.635C17.001 43.7117 17.066 43.775 17.1426 43.825C17.2226 43.8717 17.3176 43.895 17.4276 43.895C17.5443 43.895 17.641 43.8717 17.7176 43.825C17.7976 43.7783 17.861 43.7167 17.9076 43.64C17.9543 43.56 17.9876 43.47 18.0076 43.37C18.0276 43.27 18.0376 43.1667 18.0376 43.06ZM18.0476 44.03H18.0376C17.9543 44.17 17.8443 44.2717 17.7076 44.335C17.5743 44.395 17.4226 44.425 17.2526 44.425C17.0593 44.425 16.8893 44.3883 16.7426 44.315C16.596 44.2383 16.4743 44.1367 16.3776 44.01C16.2843 43.88 16.2126 43.7317 16.1626 43.565C16.116 43.3983 16.0926 43.225 16.0926 43.045C16.0926 42.8717 16.116 42.705 16.1626 42.545C16.2126 42.3817 16.2843 42.2383 16.3776 42.115C16.4743 41.9917 16.5943 41.8933 16.7376 41.82C16.881 41.7433 17.0476 41.705 17.2376 41.705C17.391 41.705 17.536 41.7383 17.6726 41.805C17.8126 41.8683 17.9226 41.9633 18.0026 42.09H18.0126V40.79H18.7226V44.36H18.0476V44.03ZM22.5459 43.07C22.5459 42.96 22.5342 42.855 22.5109 42.755C22.4875 42.655 22.4509 42.5667 22.4009 42.49C22.3509 42.4133 22.2875 42.3533 22.2109 42.31C22.1375 42.2633 22.0475 42.24 21.9409 42.24C21.8375 42.24 21.7475 42.2633 21.6709 42.31C21.5942 42.3533 21.5309 42.4133 21.4809 42.49C21.4309 42.5667 21.3942 42.655 21.3709 42.755C21.3475 42.855 21.3359 42.96 21.3359 43.07C21.3359 43.1767 21.3475 43.28 21.3709 43.38C21.3942 43.48 21.4309 43.5683 21.4809 43.645C21.5309 43.7217 21.5942 43.7833 21.6709 43.83C21.7475 43.8733 21.8375 43.895 21.9409 43.895C22.0475 43.895 22.1375 43.8733 22.2109 43.83C22.2875 43.7833 22.3509 43.7217 22.4009 43.645C22.4509 43.5683 22.4875 43.48 22.5109 43.38C22.5342 43.28 22.5459 43.1767 22.5459 43.07ZM20.6509 40.79H21.3609V42.09H21.3709C21.4575 41.9567 21.5742 41.86 21.7209 41.8C21.8709 41.7367 22.0259 41.705 22.1859 41.705C22.3159 41.705 22.4442 41.7317 22.5709 41.785C22.6975 41.8383 22.8109 41.92 22.9109 42.03C23.0142 42.14 23.0975 42.2817 23.1609 42.455C23.2242 42.625 23.2559 42.8283 23.2559 43.065C23.2559 43.3017 23.2242 43.5067 23.1609 43.68C23.0975 43.85 23.0142 43.99 22.9109 44.1C22.8109 44.21 22.6975 44.2917 22.5709 44.345C22.4442 44.3983 22.3159 44.425 22.1859 44.425C21.9959 44.425 21.8259 44.395 21.6759 44.335C21.5259 44.275 21.4125 44.1733 21.3359 44.03H21.3259V44.36H20.6509V40.79ZM24.9825 44.68C24.9058 44.89 24.7992 45.04 24.6625 45.13C24.5258 45.22 24.3358 45.265 24.0925 45.265C24.0192 45.265 23.9458 45.2617 23.8725 45.255C23.8025 45.2517 23.7308 45.2467 23.6575 45.24V44.655C23.7242 44.6617 23.7925 44.6683 23.8625 44.675C23.9325 44.6817 24.0025 44.6833 24.0725 44.68C24.1658 44.67 24.2342 44.6333 24.2775 44.57C24.3242 44.5067 24.3475 44.4367 24.3475 44.36C24.3475 44.3033 24.3375 44.25 24.3175 44.2L23.4125 41.775H24.1675L24.7525 43.545H24.7625L25.3275 41.775H26.0625L24.9825 44.68ZM2.005 50.36H1.12L-0.035 46.79H0.77L1.565 49.3H1.575L2.38 46.79H3.19L2.005 50.36ZM4.88598 48.79C4.85264 48.61 4.79264 48.4733 4.70598 48.38C4.62264 48.2867 4.49431 48.24 4.32098 48.24C4.20764 48.24 4.11264 48.26 4.03598 48.3C3.96264 48.3367 3.90264 48.3833 3.85598 48.44C3.81264 48.4967 3.78098 48.5567 3.76098 48.62C3.74431 48.6833 3.73431 48.74 3.73098 48.79H4.88598ZM3.73098 49.24C3.74098 49.47 3.79931 49.6367 3.90598 49.74C4.01264 49.8433 4.16598 49.895 4.36598 49.895C4.50931 49.895 4.63264 49.86 4.73598 49.79C4.83931 49.7167 4.90264 49.64 4.92598 49.56H5.55098C5.45098 49.87 5.29764 50.0917 5.09098 50.225C4.88431 50.3583 4.63431 50.425 4.34098 50.425C4.13764 50.425 3.95431 50.3933 3.79098 50.33C3.62764 50.2633 3.48931 50.17 3.37598 50.05C3.26264 49.93 3.17431 49.7867 3.11098 49.62C3.05098 49.4533 3.02098 49.27 3.02098 49.07C3.02098 48.8767 3.05264 48.6967 3.11598 48.53C3.17931 48.3633 3.26931 48.22 3.38598 48.1C3.50264 47.9767 3.64098 47.88 3.80098 47.81C3.96431 47.74 4.14431 47.705 4.34098 47.705C4.56098 47.705 4.75264 47.7483 4.91598 47.835C5.07931 47.9183 5.21264 48.0317 5.31598 48.175C5.42264 48.3183 5.49931 48.4817 5.54598 48.665C5.59264 48.8483 5.60931 49.04 5.59598 49.24H3.73098ZM7.77707 48.685C7.7304 48.3883 7.5554 48.24 7.25207 48.24C7.13874 48.24 7.04374 48.2667 6.96707 48.32C6.8904 48.37 6.82707 48.4367 6.77707 48.52C6.7304 48.6 6.69707 48.69 6.67707 48.79C6.65707 48.8867 6.64707 48.9833 6.64707 49.08C6.64707 49.1733 6.65707 49.2683 6.67707 49.365C6.69707 49.4617 6.72874 49.55 6.77207 49.63C6.81874 49.7067 6.8804 49.77 6.95707 49.82C7.03374 49.87 7.12707 49.895 7.23707 49.895C7.40707 49.895 7.53707 49.8483 7.62707 49.755C7.7204 49.6583 7.77874 49.53 7.80207 49.37H8.48707C8.4404 49.7133 8.30707 49.975 8.08707 50.155C7.86707 50.335 7.5854 50.425 7.24207 50.425C7.04874 50.425 6.8704 50.3933 6.70707 50.33C6.54707 50.2633 6.4104 50.1717 6.29707 50.055C6.18374 49.9383 6.0954 49.8 6.03207 49.64C5.96874 49.4767 5.93707 49.2983 5.93707 49.105C5.93707 48.905 5.9654 48.72 6.02207 48.55C6.08207 48.3767 6.16874 48.2283 6.28207 48.105C6.3954 47.9783 6.53374 47.88 6.69707 47.81C6.8604 47.74 7.04707 47.705 7.25707 47.705C7.4104 47.705 7.55707 47.725 7.69707 47.765C7.8404 47.805 7.96707 47.8667 8.07707 47.95C8.1904 48.03 8.28207 48.1317 8.35207 48.255C8.42207 48.375 8.46207 48.5183 8.47207 48.685H7.77707ZM9.78816 47.775H10.3082V48.25H9.78816V49.53C9.78816 49.65 9.80816 49.73 9.84816 49.77C9.88816 49.81 9.96816 49.83 10.0882 49.83C10.1282 49.83 10.1665 49.8283 10.2032 49.825C10.2398 49.8217 10.2748 49.8167 10.3082 49.81V50.36C10.2482 50.37 10.1815 50.3767 10.1082 50.38C10.0348 50.3833 9.96316 50.385 9.89316 50.385C9.78316 50.385 9.67816 50.3767 9.57816 50.36C9.4815 50.3467 9.39483 50.3183 9.31816 50.275C9.24483 50.2317 9.1865 50.17 9.14316 50.09C9.09983 50.01 9.07816 49.905 9.07816 49.775V48.25H8.64816V47.775H9.07816V47H9.78816V47.775ZM11.276 49.07C11.276 49.1733 11.286 49.275 11.306 49.375C11.326 49.4717 11.3593 49.56 11.406 49.64C11.456 49.7167 11.521 49.7783 11.601 49.825C11.681 49.8717 11.781 49.895 11.901 49.895C12.021 49.895 12.121 49.8717 12.201 49.825C12.2843 49.7783 12.3493 49.7167 12.396 49.64C12.446 49.56 12.481 49.4717 12.501 49.375C12.521 49.275 12.531 49.1733 12.531 49.07C12.531 48.9667 12.521 48.865 12.501 48.765C12.481 48.665 12.446 48.5767 12.396 48.5C12.3493 48.4233 12.2843 48.3617 12.201 48.315C12.121 48.265 12.021 48.24 11.901 48.24C11.781 48.24 11.681 48.265 11.601 48.315C11.521 48.3617 11.456 48.4233 11.406 48.5C11.3593 48.5767 11.326 48.665 11.306 48.765C11.286 48.865 11.276 48.9667 11.276 49.07ZM10.566 49.07C10.566 48.8633 10.5976 48.6767 10.661 48.51C10.7243 48.34 10.8143 48.1967 10.931 48.08C11.0476 47.96 11.1876 47.8683 11.351 47.805C11.5143 47.7383 11.6976 47.705 11.901 47.705C12.1043 47.705 12.2876 47.7383 12.451 47.805C12.6176 47.8683 12.7593 47.96 12.876 48.08C12.9926 48.1967 13.0826 48.34 13.146 48.51C13.2093 48.6767 13.241 48.8633 13.241 49.07C13.241 49.2767 13.2093 49.4633 13.146 49.63C13.0826 49.7967 12.9926 49.94 12.876 50.06C12.7593 50.1767 12.6176 50.2667 12.451 50.33C12.2876 50.3933 12.1043 50.425 11.901 50.425C11.6976 50.425 11.5143 50.3933 11.351 50.33C11.1876 50.2667 11.0476 50.1767 10.931 50.06C10.8143 49.94 10.7243 49.7967 10.661 49.63C10.5976 49.4633 10.566 49.2767 10.566 49.07ZM13.7026 47.775H14.3776V48.255H14.3876C14.421 48.175 14.466 48.1017 14.5226 48.035C14.5793 47.965 14.6443 47.9067 14.7176 47.86C14.791 47.81 14.8693 47.7717 14.9526 47.745C15.036 47.7183 15.1226 47.705 15.2126 47.705C15.2593 47.705 15.311 47.7133 15.3676 47.73V48.39C15.3343 48.3833 15.2943 48.3783 15.2476 48.375C15.201 48.3683 15.156 48.365 15.1126 48.365C14.9826 48.365 14.8726 48.3867 14.7826 48.43C14.6926 48.4733 14.6193 48.5333 14.5626 48.61C14.5093 48.6833 14.471 48.77 14.4476 48.87C14.4243 48.97 14.4126 49.0783 14.4126 49.195V50.36H13.7026V47.775ZM16.196 49.52C16.196 49.5967 16.211 49.6633 16.241 49.72C16.2743 49.7733 16.316 49.8183 16.366 49.855C16.416 49.8883 16.4726 49.9133 16.536 49.93C16.6026 49.9467 16.671 49.955 16.741 49.955C16.791 49.955 16.8426 49.95 16.896 49.94C16.9526 49.9267 17.0026 49.9083 17.046 49.885C17.0926 49.8583 17.131 49.825 17.161 49.785C17.191 49.7417 17.206 49.6883 17.206 49.625C17.206 49.5183 17.1343 49.4383 16.991 49.385C16.851 49.3317 16.6543 49.2783 16.401 49.225C16.2976 49.2017 16.196 49.175 16.096 49.145C15.9993 49.1117 15.9126 49.07 15.836 49.02C15.7593 48.9667 15.6976 48.9017 15.651 48.825C15.6043 48.745 15.581 48.6483 15.581 48.535C15.581 48.3683 15.6126 48.2317 15.676 48.125C15.7426 48.0183 15.8293 47.935 15.936 47.875C16.0426 47.8117 16.1626 47.7683 16.296 47.745C16.4293 47.7183 16.566 47.705 16.706 47.705C16.846 47.705 16.981 47.7183 17.111 47.745C17.2443 47.7717 17.3626 47.8167 17.466 47.88C17.5693 47.9433 17.6543 48.0283 17.721 48.135C17.791 48.2383 17.8326 48.37 17.846 48.53H17.171C17.161 48.3933 17.1093 48.3017 17.016 48.255C16.9226 48.205 16.8126 48.18 16.686 48.18C16.646 48.18 16.6026 48.1833 16.556 48.19C16.5093 48.1933 16.466 48.2033 16.426 48.22C16.3893 48.2367 16.3576 48.2617 16.331 48.295C16.3043 48.325 16.291 48.3667 16.291 48.42C16.291 48.4833 16.3143 48.535 16.361 48.575C16.4076 48.615 16.4676 48.6483 16.541 48.675C16.6176 48.6983 16.7043 48.72 16.801 48.74C16.8976 48.76 16.996 48.7817 17.096 48.805C17.1993 48.8283 17.2993 48.8567 17.396 48.89C17.496 48.9233 17.5843 48.9683 17.661 49.025C17.7376 49.0783 17.7993 49.1467 17.846 49.23C17.8926 49.31 17.916 49.41 17.916 49.53C17.916 49.7 17.881 49.8433 17.811 49.96C17.7443 50.0733 17.656 50.165 17.546 50.235C17.436 50.305 17.3093 50.3533 17.166 50.38C17.026 50.41 16.8826 50.425 16.736 50.425C16.586 50.425 16.4393 50.41 16.296 50.38C16.1526 50.35 16.0243 50.3 15.911 50.23C15.801 50.16 15.7093 50.0683 15.636 49.955C15.566 49.8383 15.5276 49.6933 15.521 49.52H16.196ZM19.7981 46.79H20.9031L21.7381 49.245H21.7481L22.5381 46.79H23.6431V50.36H22.9081V47.83H22.8981L22.0231 50.36H21.4181L20.5431 47.855H20.5331V50.36H19.7981V46.79ZM24.2293 48.57C24.2393 48.4033 24.2809 48.265 24.3543 48.155C24.4276 48.045 24.5209 47.9567 24.6343 47.89C24.7476 47.8233 24.8743 47.7767 25.0143 47.75C25.1576 47.72 25.3009 47.705 25.4443 47.705C25.5743 47.705 25.7059 47.715 25.8393 47.735C25.9726 47.7517 26.0943 47.7867 26.2043 47.84C26.3143 47.8933 26.4043 47.9683 26.4743 48.065C26.5443 48.1583 26.5793 48.2833 26.5793 48.44V49.785C26.5793 49.9017 26.5859 50.0133 26.5993 50.12C26.6126 50.2267 26.6359 50.3067 26.6693 50.36H25.9493C25.9359 50.32 25.9243 50.28 25.9143 50.24C25.9076 50.1967 25.9026 50.1533 25.8993 50.11C25.7859 50.2267 25.6526 50.3083 25.4993 50.355C25.3459 50.4017 25.1893 50.425 25.0293 50.425C24.9059 50.425 24.7909 50.41 24.6843 50.38C24.5776 50.35 24.4843 50.3033 24.4043 50.24C24.3243 50.1767 24.2609 50.0967 24.2143 50C24.1709 49.9033 24.1493 49.7883 24.1493 49.655C24.1493 49.5083 24.1743 49.3883 24.2243 49.295C24.2776 49.1983 24.3443 49.1217 24.4243 49.065C24.5076 49.0083 24.6009 48.9667 24.7043 48.94C24.8109 48.91 24.9176 48.8867 25.0243 48.87C25.1309 48.8533 25.2359 48.84 25.3393 48.83C25.4426 48.82 25.5343 48.805 25.6143 48.785C25.6943 48.765 25.7576 48.7367 25.8043 48.7C25.8509 48.66 25.8726 48.6033 25.8693 48.53C25.8693 48.4533 25.8559 48.3933 25.8293 48.35C25.8059 48.3033 25.7726 48.2683 25.7293 48.245C25.6893 48.2183 25.6409 48.2017 25.5843 48.195C25.5309 48.185 25.4726 48.18 25.4093 48.18C25.2693 48.18 25.1593 48.21 25.0793 48.27C24.9993 48.33 24.9526 48.43 24.9393 48.57H24.2293ZM25.8693 49.095C25.8393 49.1217 25.8009 49.1433 25.7543 49.16C25.7109 49.1733 25.6626 49.185 25.6093 49.195C25.5593 49.205 25.5059 49.2133 25.4493 49.22C25.3926 49.2267 25.3359 49.235 25.2793 49.245C25.2259 49.255 25.1726 49.2683 25.1193 49.285C25.0693 49.3017 25.0243 49.325 24.9843 49.355C24.9476 49.3817 24.9176 49.4167 24.8943 49.46C24.8709 49.5033 24.8593 49.5583 24.8593 49.625C24.8593 49.6883 24.8709 49.7417 24.8943 49.785C24.9176 49.8283 24.9493 49.8633 24.9893 49.89C25.0293 49.9133 25.0759 49.93 25.1293 49.94C25.1826 49.95 25.2376 49.955 25.2943 49.955C25.4343 49.955 25.5426 49.9317 25.6193 49.885C25.6959 49.8383 25.7526 49.7833 25.7893 49.72C25.8259 49.6533 25.8476 49.5867 25.8543 49.52C25.8643 49.4533 25.8693 49.4 25.8693 49.36V49.095ZM27.1304 47.775H27.8054V48.255H27.8154C27.8487 48.175 27.8937 48.1017 27.9504 48.035C28.007 47.965 28.072 47.9067 28.1454 47.86C28.2187 47.81 28.297 47.7717 28.3804 47.745C28.4637 47.7183 28.5504 47.705 28.6404 47.705C28.687 47.705 28.7387 47.7133 28.7954 47.73V48.39C28.762 48.3833 28.722 48.3783 28.6754 48.375C28.6287 48.3683 28.5837 48.365 28.5404 48.365C28.4104 48.365 28.3004 48.3867 28.2104 48.43C28.1204 48.4733 28.047 48.5333 27.9904 48.61C27.937 48.6833 27.8987 48.77 27.8754 48.87C27.852 48.97 27.8404 49.0783 27.8404 49.195V50.36H27.1304V47.775ZM29.1387 46.79H29.8487V48.705L30.7437 47.775H31.5837L30.6087 48.725L31.6937 50.36H30.8337L30.1237 49.205L29.8487 49.47V50.36H29.1387V46.79ZM33.6848 48.79C33.6515 48.61 33.5915 48.4733 33.5048 48.38C33.4215 48.2867 33.2931 48.24 33.1198 48.24C33.0065 48.24 32.9115 48.26 32.8348 48.3C32.7615 48.3367 32.7015 48.3833 32.6548 48.44C32.6115 48.4967 32.5798 48.5567 32.5598 48.62C32.5431 48.6833 32.5331 48.74 32.5298 48.79H33.6848ZM32.5298 49.24C32.5398 49.47 32.5981 49.6367 32.7048 49.74C32.8115 49.8433 32.9648 49.895 33.1648 49.895C33.3081 49.895 33.4315 49.86 33.5348 49.79C33.6381 49.7167 33.7015 49.64 33.7248 49.56H34.3498C34.2498 49.87 34.0965 50.0917 33.8898 50.225C33.6831 50.3583 33.4331 50.425 33.1398 50.425C32.9365 50.425 32.7531 50.3933 32.5898 50.33C32.4265 50.2633 32.2881 50.17 32.1748 50.05C32.0615 49.93 31.9731 49.7867 31.9098 49.62C31.8498 49.4533 31.8198 49.27 31.8198 49.07C31.8198 48.8767 31.8515 48.6967 31.9148 48.53C31.9781 48.3633 32.0681 48.22 32.1848 48.1C32.3015 47.9767 32.4398 47.88 32.5998 47.81C32.7631 47.74 32.9431 47.705 33.1398 47.705C33.3598 47.705 33.5515 47.7483 33.7148 47.835C33.8781 47.9183 34.0115 48.0317 34.1148 48.175C34.2215 48.3183 34.2981 48.4817 34.3448 48.665C34.3915 48.8483 34.4081 49.04 34.3948 49.24H32.5298ZM35.7159 47.775H36.2359V48.25H35.7159V49.53C35.7159 49.65 35.7359 49.73 35.7759 49.77C35.8159 49.81 35.8959 49.83 36.0159 49.83C36.0559 49.83 36.0942 49.8283 36.1309 49.825C36.1676 49.8217 36.2026 49.8167 36.2359 49.81V50.36C36.1759 50.37 36.1092 50.3767 36.0359 50.38C35.9626 50.3833 35.8909 50.385 35.8209 50.385C35.7109 50.385 35.6059 50.3767 35.5059 50.36C35.4092 50.3467 35.3226 50.3183 35.2459 50.275C35.1726 50.2317 35.1142 50.17 35.0709 50.09C35.0276 50.01 35.0059 49.905 35.0059 49.775V48.25H34.5759V47.775H35.0059V47H35.7159V47.775Z" fill="#CEB380"/>
</g>
<defs>
<clipPath id="clip0_173_334">
<rect width="33" height="41" fill="white"/>
</clipPath>
</defs>
</svg>
