<svg width="393" height="166" viewBox="0 0 393 166" fill="none" xmlns="http://www.w3.org/2000/svg">
<path d="M0 -260.119L0 83.6903H43.0708C38.5764 100.907 71.1604 103.112 88.0141 102.062C87.0778 107.836 96.441 130.406 143.257 135.655C180.71 139.855 196.315 156.301 199.436 164C203.182 156.301 220.784 139.855 261.233 135.655C301.683 131.456 311.171 111.51 310.858 102.062C356.738 107.836 356.738 86.3148 355.802 85.7899C355.053 85.37 382.955 84.2152 397 83.6903L397 -259.594L348.56 -264.516C351.556 -283.413 321.204 -284.804 305.911 -282.705C309.032 -292.503 311.42 -311.454 264.979 -317.333C218.537 -323.212 202.576 -338.651 200.08 -346C198.519 -339.176 182.77 -324.472 134.83 -317.333C86.8906 -310.195 93.4475 -291.25 96.8806 -281.977C60.1769 -288.276 50.2343 -272.915 50.5464 -264.516L0 -260.119Z" stroke="#BFA054" stroke-opacity="0.2" stroke-width="0.899801"/>
</svg>
