<svg width="35" height="35" viewBox="0 0 35 35" fill="none" xmlns="http://www.w3.org/2000/svg">
<g clip-path="url(#clip0_1_267)" filter="url(#filter0_d_1_267)">
<path d="M15.7651 0.465131C15.4758 0.668462 15.2141 0.902165 14.95 1.1368C14.7832 1.28318 14.6102 1.42186 14.4357 1.55885C14.2832 1.6875 14.2832 1.6875 14.1465 1.83517C13.8168 2.18249 13.5368 2.31925 13.0553 2.33409C12.8443 2.33647 12.6338 2.33177 12.4229 2.32649C12.3099 2.32592 12.197 2.32565 12.084 2.32565C11.7886 2.32506 11.4932 2.32124 11.1978 2.31648C10.7238 2.30924 10.2498 2.30622 9.77572 2.30458C9.61063 2.30344 9.44564 2.30046 9.28058 2.29728C9.1794 2.29637 9.07821 2.29553 8.97702 2.29474C8.9086 2.29269 8.9086 2.29269 8.83879 2.2906C8.61536 2.29043 8.47383 2.30407 8.2966 2.44715C8.09506 2.65833 8.10592 2.80468 8.10729 3.08385C8.10729 3.1245 8.10728 3.16515 8.10727 3.20703C8.10731 3.34171 8.10772 3.47639 8.10813 3.61107C8.10823 3.70432 8.1083 3.79757 8.10836 3.89082C8.10856 4.13652 8.10908 4.38221 8.10966 4.6279C8.1102 4.87851 8.11044 5.12912 8.1107 5.37973C8.11127 5.87164 8.11217 6.36355 8.11328 6.85547C8.08181 6.87014 8.05034 6.88482 8.01792 6.89995C7.84334 6.99207 7.7036 7.12459 7.55627 7.25427C7.48978 7.31207 7.42325 7.36982 7.35666 7.42751C7.32389 7.45593 7.29112 7.48436 7.25735 7.51364C7.13143 7.62177 7.003 7.7266 6.87402 7.83105C6.65107 8.01204 6.43236 8.19732 6.21484 8.38476C5.85076 8.69834 5.48157 9.00512 5.10454 9.30308C5.05219 9.34482 4.99985 9.38656 4.94592 9.42956C4.89854 9.46688 4.85116 9.5042 4.80234 9.54265C4.65761 9.67615 4.58913 9.78153 4.56673 9.97886C4.56662 10.0437 4.56662 10.0437 4.56651 10.1098C4.56617 10.1598 4.56583 10.2099 4.56548 10.2614C4.56572 10.3437 4.56572 10.3437 4.56597 10.4276C4.56573 10.4859 4.5655 10.5443 4.56525 10.6044C4.56458 10.8008 4.56467 10.9971 4.56476 11.1934C4.56444 11.3339 4.56409 11.4744 4.56368 11.6149C4.56281 11.9575 4.56252 12.3001 4.56246 12.6427C4.56241 12.9215 4.56219 13.2002 4.56186 13.479C4.56093 14.2702 4.56044 15.0613 4.56052 15.8525C4.56052 15.8951 4.56053 15.9378 4.56053 15.9817C4.56054 16.0244 4.56054 16.0672 4.56054 16.1112C4.56059 16.802 4.55958 17.4928 4.55809 18.1836C4.55657 18.8937 4.55585 19.6038 4.55594 20.3139C4.55598 20.7122 4.55569 21.1105 4.55455 21.5089C4.55359 21.8484 4.55337 22.1879 4.55408 22.5274C4.55442 22.7003 4.55432 22.8732 4.55351 23.0461C4.54862 24.1676 4.60773 25.2487 5.42383 26.1122C6.18316 26.8092 6.94303 27.0163 7.94623 27.0141C8.03181 27.0143 8.11739 27.0145 8.20297 27.0148C8.43759 27.0155 8.6722 27.0155 8.90682 27.0153C9.16008 27.0153 9.41333 27.0159 9.66659 27.0164C10.1626 27.0173 10.6586 27.0176 11.1546 27.0176C11.5578 27.0177 11.9611 27.0179 12.3643 27.0182C13.5081 27.0191 14.6519 27.0196 15.7957 27.0196C15.8574 27.0195 15.919 27.0195 15.9825 27.0195C16.0443 27.0195 16.106 27.0195 16.1696 27.0195C17.1696 27.0195 18.1696 27.0205 19.1696 27.022C20.1969 27.0235 21.2242 27.0242 22.2515 27.0241C22.8281 27.0241 23.4046 27.0244 23.9812 27.0255C24.4721 27.0265 24.9631 27.0267 25.454 27.026C25.7043 27.0257 25.9546 27.0256 26.205 27.0266C26.4345 27.0274 26.664 27.0272 26.8935 27.0263C26.9761 27.0262 27.0588 27.0263 27.1415 27.0269C28.0124 27.0327 28.8242 26.8182 29.4756 26.2108C30.1415 25.4999 30.446 24.6538 30.4404 23.688C30.4406 23.6287 30.4409 23.5694 30.4412 23.5083C30.442 23.3113 30.4416 23.1143 30.4412 22.9173C30.4415 22.7754 30.4419 22.6335 30.4423 22.4915C30.4432 22.1472 30.4433 21.8029 30.443 21.4585C30.4428 21.1787 30.4429 20.8988 30.4431 20.619C30.4432 20.5791 30.4432 20.5391 30.4433 20.498C30.4433 20.4169 30.4434 20.3358 30.4435 20.2547C30.4442 19.4955 30.4439 18.7364 30.4433 17.9772C30.4428 17.2828 30.4435 16.5884 30.4448 15.8941C30.446 15.1803 30.4466 14.4665 30.4462 13.7527C30.446 13.3522 30.4461 12.9518 30.4471 12.5514C30.4478 12.2108 30.4479 11.8702 30.447 11.5296C30.4465 11.3559 30.4465 11.1822 30.4472 11.0085C30.4479 10.8202 30.4473 10.632 30.4464 10.4437C30.4469 10.3888 30.4474 10.3339 30.4479 10.2774C30.4447 9.96297 30.4168 9.78524 30.209 9.54492C30.0856 9.43059 30.0856 9.43059 29.9486 9.32409C29.8976 9.28371 29.8466 9.24334 29.7941 9.20173C29.7672 9.18051 29.7403 9.15928 29.7126 9.13741C29.5667 9.02042 29.425 8.89845 29.2828 8.77697C29.0429 8.57284 28.7995 8.37424 28.5526 8.17856C28.3917 8.04875 28.234 7.91552 28.0765 7.78161C27.2563 7.08427 27.2563 7.08427 26.9922 6.9082C26.9769 6.77262 26.9718 6.64963 26.9736 6.51398C26.9735 6.47332 26.9733 6.43267 26.9732 6.39078C26.9731 6.30233 26.9733 6.21388 26.9738 6.12542C26.9745 5.98532 26.9741 5.84525 26.9735 5.70514C26.9719 5.30675 26.9721 4.90837 26.9732 4.50997C26.9738 4.26639 26.9731 4.02283 26.9716 3.77926C26.9713 3.6865 26.9715 3.59373 26.9723 3.50098C26.9733 3.37094 26.9727 3.241 26.9717 3.11096C26.9728 3.05375 26.9728 3.05375 26.9738 2.99537C26.969 2.69667 26.8799 2.57529 26.6758 2.37304C26.4959 2.2831 26.2901 2.31516 26.0923 2.31701C25.9895 2.31751 25.8867 2.318 25.784 2.31847C25.7293 2.3188 25.6746 2.31913 25.6182 2.31947C25.3287 2.3209 25.0392 2.32038 24.7497 2.3201C24.3813 2.31978 24.0128 2.32005 23.6443 2.32301C23.3467 2.32535 23.0492 2.32537 22.7515 2.32385C22.6383 2.32369 22.5251 2.32436 22.412 2.32591C21.6944 2.35779 21.6944 2.35779 21.0809 2.03954C21.0111 1.95832 20.9424 1.87615 20.875 1.79297C20.792 1.72288 20.7076 1.65448 20.6212 1.58862C20.4441 1.4494 20.2716 1.30645 20.1014 1.15902C18.8289 0.0616299 17.31 -0.484625 15.7651 0.465131ZM18.8711 1.8457C18.9687 1.92277 19.0665 1.99968 19.1644 2.07641C19.2435 2.13877 19.3219 2.20208 19.3984 2.26758C19.3984 2.28498 19.3984 2.30238 19.3984 2.32031C18.1455 2.32031 16.8925 2.32031 15.6016 2.32031C16.1308 1.79112 16.6936 1.26896 17.4769 1.24914C18.0531 1.25615 18.443 1.48066 18.8711 1.8457ZM25.6738 3.58593C25.6912 5.02598 25.7086 6.46602 25.7266 7.9497C25.7342 8.40371 25.7419 8.85772 25.7498 9.32548C25.7527 9.73391 25.7527 9.73391 25.7544 10.1423C25.7551 10.3238 25.7583 10.505 25.7629 10.6863C25.8466 11.7273 25.8466 11.7273 25.4896 12.6491C25.3179 12.7962 25.1376 12.8968 24.9291 12.9824C24.7927 13.0416 24.683 13.1264 24.5674 13.219C24.4935 13.2731 24.4195 13.3273 24.3456 13.3813C23.9798 13.6497 23.6181 13.9229 23.2579 14.1987C22.9312 14.449 22.6027 14.6947 22.266 14.9312C21.9859 15.1294 21.7141 15.338 21.4419 15.5467C21.061 15.8388 20.6765 16.1241 20.2859 16.403C19.9197 16.6657 19.562 16.9392 19.2055 17.2149C18.5409 17.7264 18.0074 18.0962 17.1309 17.9824C16.7263 17.8725 16.411 17.6983 16.0828 17.4419C16.0193 17.3938 16.0193 17.3938 15.9546 17.3448C15.8188 17.2416 15.6838 17.1374 15.5488 17.0332C15.4099 16.9269 15.2708 16.8208 15.1318 16.7148C15.0381 16.6434 14.9446 16.5718 14.851 16.5002C14.5219 16.2488 14.1881 16.0049 13.8512 15.7641C13.5425 15.5425 13.24 15.3133 12.9385 15.082C12.5617 14.793 12.1809 14.5109 11.7946 14.2348C11.4431 13.9825 11.0992 13.7208 10.757 13.4562C10.694 13.4077 10.694 13.4077 10.6297 13.3583C10.5662 13.3061 10.5662 13.3061 10.5014 13.2529C10.3722 13.154 10.244 13.0922 10.0943 13.0292C9.7955 12.8871 9.55752 12.7295 9.3789 12.4453C9.21003 11.8478 9.26526 11.195 9.28277 10.5806C9.28821 10.3587 9.28843 10.1368 9.2891 9.91471C9.29407 9.26734 9.30732 8.62005 9.31958 7.97278C9.33916 6.52512 9.35873 5.07746 9.3789 3.58593C14.7562 3.58593 20.1336 3.58593 25.6738 3.58593ZM8.11328 8.54297C8.11328 9.50009 8.11328 10.4572 8.11328 11.4434C7.85872 11.2979 7.65312 11.17 7.42773 10.9918C7.16203 10.7837 6.89281 10.5811 6.62024 10.3821C6.5852 10.3565 6.55015 10.3309 6.51405 10.3045C6.43194 10.2446 6.34977 10.1848 6.26758 10.125C6.34706 9.92651 6.46001 9.83049 6.62683 9.69983C6.67863 9.65863 6.73043 9.61744 6.7838 9.57499C6.81134 9.55312 6.83889 9.53125 6.86728 9.50872C7.01603 9.3887 7.16059 9.26379 7.30578 9.13952C7.6795 8.76319 7.6795 8.76319 8.11328 8.54297ZM27.9494 9.38203C28.1748 9.57399 28.406 9.75747 28.6412 9.93734C28.6713 9.96446 28.7014 9.99158 28.7324 10.0195C28.7324 10.0543 28.7324 10.0891 28.7324 10.125C28.6493 10.2013 28.6493 10.2013 28.5392 10.2783C28.477 10.3237 28.477 10.3237 28.4135 10.3701C28.3462 10.4184 28.3462 10.4184 28.2776 10.4678C28.2324 10.5006 28.1872 10.5335 28.1406 10.5673C28.0042 10.6663 27.8673 10.7648 27.7305 10.8633C27.6541 10.9186 27.5777 10.9739 27.5014 11.0293C27.435 11.0773 27.3685 11.1252 27.302 11.1731C27.2712 11.1954 27.2403 11.2176 27.2086 11.2406C27.0855 11.3455 27.0855 11.3455 26.9395 11.3906C26.9395 10.4683 26.9395 9.54597 26.9395 8.5957C27.226 8.5957 27.7175 9.18397 27.9494 9.38203ZM29.1543 11.3906C29.1567 12.9796 29.1586 14.5687 29.1597 16.1577C29.1598 16.3455 29.16 16.5332 29.1601 16.721C29.1601 16.7584 29.1601 16.7958 29.1602 16.8343C29.1606 17.4389 29.1615 18.0434 29.1624 18.648C29.1634 19.2687 29.164 19.8895 29.1642 20.5103C29.1644 20.8587 29.1647 21.2072 29.1654 21.5557C29.1662 21.8839 29.1664 22.2122 29.1662 22.5404C29.1663 22.6606 29.1665 22.7809 29.1669 22.9011C29.1674 23.0658 29.1673 23.2305 29.167 23.3952C29.1673 23.4423 29.1676 23.4895 29.1679 23.538C29.1654 24.0793 29.0866 24.5402 28.7852 24.9961C28.7547 25.0429 28.7242 25.0896 28.6929 25.1378C28.2909 25.5509 27.823 25.739 27.252 25.7544C27.1023 25.7559 26.9527 25.7555 26.8031 25.7548C26.7195 25.755 26.636 25.7553 26.5525 25.7557C26.3238 25.7564 26.0951 25.7562 25.8664 25.7558C25.6195 25.7556 25.3725 25.7562 25.1255 25.7568C24.642 25.7577 24.1585 25.7577 23.675 25.7575C23.282 25.7572 22.8889 25.7573 22.4959 25.7576C22.4399 25.7576 22.3839 25.7577 22.3263 25.7577C22.2126 25.7578 22.0989 25.7579 21.9851 25.758C20.9191 25.7587 19.8531 25.7584 18.7871 25.7578C17.8122 25.7573 16.8374 25.7579 15.8625 25.7592C14.8611 25.7605 13.8596 25.761 12.8582 25.7607C12.2961 25.7605 11.7341 25.7606 11.172 25.7615C10.6936 25.7623 10.2151 25.7623 9.73664 25.7614C9.49263 25.761 9.24862 25.7608 9.00461 25.7616C8.781 25.7624 8.55742 25.7621 8.33381 25.7611C8.25315 25.7609 8.17249 25.7611 8.09183 25.7616C7.45325 25.7657 6.92846 25.6788 6.42619 25.2593C5.99959 24.8361 5.84725 24.3446 5.83921 23.7519C5.83899 23.6583 5.83906 23.5648 5.83936 23.4713C5.83931 23.4195 5.83927 23.3677 5.83922 23.3144C5.83914 23.1413 5.83943 22.9683 5.83971 22.7953C5.83973 22.671 5.83972 22.5468 5.83969 22.4226C5.83968 22.0856 5.83998 21.7487 5.84035 21.4117C5.84065 21.0951 5.84071 20.7786 5.84076 20.462C5.84088 19.8352 5.84122 19.2083 5.84172 18.5815C5.84221 17.9727 5.84258 17.3639 5.8428 16.7551C5.84282 16.7176 5.84283 16.68 5.84285 16.6414C5.84292 16.453 5.84298 16.2646 5.84305 16.0762C5.84359 14.5143 5.84453 12.9525 5.8457 11.3906C5.92012 11.4399 5.99449 11.4893 6.06884 11.5387C6.11027 11.5661 6.15169 11.5936 6.19436 11.6219C6.39417 11.7569 6.58803 11.8996 6.78174 12.0432C6.82453 12.0748 6.86732 12.1064 6.91141 12.139C7.28245 12.4139 7.64958 12.6939 8.01631 12.9746C8.35904 13.2365 8.70525 13.4932 9.05327 13.748C9.37246 13.9822 9.68753 14.2216 10.0018 14.4624C10.3286 14.7127 10.6572 14.9583 10.9939 15.195C11.3218 15.4271 11.6393 15.6728 11.9582 15.9171C12.3052 16.1826 12.6557 16.4429 13.0083 16.701C13.3275 16.9353 13.6426 17.1747 13.9569 17.4155C14.3203 17.6937 14.6857 17.9673 15.0606 18.2298C15.1814 18.3154 15.2997 18.4019 15.4174 18.4914C16.1692 19.0581 17.0033 19.3479 17.9503 19.2235C18.8511 19.0685 19.4794 18.578 20.1895 18.0352C20.2361 17.9995 20.2828 17.9639 20.3309 17.9273C20.5214 17.782 20.7119 17.6367 20.9021 17.491C21.1537 17.2988 21.4069 17.1099 21.666 16.9277C22.0234 16.6765 22.3693 16.411 22.716 16.1454C23.0228 15.9106 23.3318 15.6794 23.6436 15.4512C24.0039 15.1873 24.3602 14.9186 24.7147 14.647C25.0136 14.418 25.3131 14.1911 25.6211 13.9746C25.9291 13.7581 26.2286 13.5312 26.5275 13.3022C27.0049 12.9367 27.4868 12.578 27.9719 12.2227C28.1092 12.1218 28.2462 12.0204 28.3831 11.9188C28.4294 11.8845 28.4757 11.8501 28.5234 11.8148C28.6129 11.7485 28.7023 11.6821 28.7917 11.6155C28.8315 11.586 28.8714 11.5566 28.9125 11.5262C28.9478 11.4999 28.9831 11.4737 29.0195 11.4467C29.0923 11.3857 29.0923 11.3857 29.1543 11.3906Z" fill="#9A2143"/>
<path d="M21.1379 11.5414C21.0716 11.5411 21.0052 11.5408 20.9369 11.5405C20.8633 11.5404 20.7896 11.5404 20.716 11.5403C20.6386 11.5401 20.5611 11.5398 20.4837 11.5395C20.2732 11.5388 20.0627 11.5385 19.8522 11.5383C19.7206 11.5381 19.5891 11.5379 19.4576 11.5377C19.046 11.5369 18.6345 11.5364 18.223 11.5362C17.748 11.536 17.273 11.5351 16.7979 11.5335C16.4307 11.5324 16.0635 11.5319 15.6964 11.5318C15.4771 11.5317 15.2578 11.5314 15.0385 11.5305C14.8321 11.5296 14.6258 11.5295 14.4195 11.53C14.3438 11.53 14.2682 11.5298 14.1926 11.5293C14.0891 11.5286 13.9857 11.529 13.8822 11.5294C13.8244 11.5294 13.7665 11.5293 13.7069 11.5292C13.4773 11.557 13.2996 11.6384 13.1329 11.7993C13.006 12.0399 12.9993 12.2263 13.0769 12.4849C13.1862 12.6743 13.2452 12.7223 13.4395 12.8144C13.598 12.8344 13.598 12.8344 13.7777 12.8345C13.8802 12.8352 13.8802 12.8352 13.9847 12.8359C14.06 12.8356 14.1354 12.8353 14.2107 12.8349C14.2903 12.8351 14.3699 12.8354 14.4496 12.8358C14.6655 12.8365 14.8814 12.8362 15.0974 12.8357C15.3235 12.8353 15.5495 12.8357 15.7756 12.8359C16.1553 12.8362 16.5349 12.8358 16.9146 12.8351C17.3534 12.8342 17.7922 12.8345 18.231 12.8354C18.6079 12.8361 18.9847 12.8362 19.3616 12.8358C19.5867 12.8355 19.8117 12.8355 20.0367 12.836C20.2483 12.8365 20.4599 12.8362 20.6715 12.8352C20.7491 12.835 20.8267 12.8351 20.9043 12.8354C21.0103 12.8359 21.1163 12.8352 21.2223 12.8345C21.3113 12.8344 21.3113 12.8344 21.402 12.8344C21.5821 12.8117 21.6796 12.7644 21.8242 12.6562C21.95 12.4675 21.9711 12.3548 21.9824 12.1289C21.9061 11.888 21.8372 11.7275 21.6133 11.6016C21.4422 11.5445 21.3179 11.5419 21.1379 11.5414Z" fill="#9A2143"/>
<path d="M21.1994 8.48007C21.1622 8.47964 21.1251 8.4792 21.0868 8.47876C20.9637 8.47745 20.8406 8.47658 20.7174 8.47582C20.6754 8.47554 20.6333 8.47526 20.59 8.47497C20.3675 8.47356 20.1449 8.47254 19.9223 8.47178C19.6925 8.4709 19.4627 8.46854 19.2329 8.46585C19.0562 8.46408 18.8794 8.46347 18.7026 8.46317C18.6179 8.46281 18.5332 8.46201 18.4485 8.46075C18.3298 8.45908 18.2113 8.45908 18.0926 8.45947C18.0251 8.45904 17.9576 8.45862 17.8881 8.45818C17.6644 8.49867 17.589 8.58037 17.4473 8.75391C17.3189 8.97566 17.3331 9.1408 17.3945 9.38672C17.5262 9.59832 17.6344 9.68148 17.8691 9.75586C18.0349 9.76961 18.0349 9.76961 18.2232 9.77035C18.2577 9.77062 18.2922 9.77089 18.3278 9.77116C18.4413 9.77189 18.5547 9.77185 18.6682 9.77172C18.7475 9.77193 18.8267 9.77216 18.906 9.77241C19.0719 9.7728 19.2378 9.77279 19.4037 9.77251C19.6159 9.7722 19.828 9.7731 20.0401 9.77432C20.2037 9.7751 20.3674 9.77514 20.531 9.77498C20.6092 9.77501 20.6874 9.77528 20.7656 9.77581C20.8751 9.77647 20.9846 9.77611 21.0942 9.7755C21.1875 9.77555 21.1875 9.77555 21.2827 9.7756C21.5192 9.74852 21.6981 9.67105 21.8671 9.50208C21.9789 9.29604 21.9964 9.13383 21.9462 8.90552C21.7786 8.53846 21.5792 8.48389 21.1994 8.48007Z" fill="#9A2143"/>
</g>
<defs>
<filter id="filter0_d_1_267" x="0" y="0" width="35" height="35" filterUnits="userSpaceOnUse" color-interpolation-filters="sRGB">
<feFlood flood-opacity="0" result="BackgroundImageFix"/>
<feColorMatrix in="SourceAlpha" type="matrix" values="0 0 0 0 0 0 0 0 0 0 0 0 0 0 0 0 0 0 127 0" result="hardAlpha"/>
<feOffset dy="4"/>
<feGaussianBlur stdDeviation="2"/>
<feComposite in2="hardAlpha" operator="out"/>
<feColorMatrix type="matrix" values="0 0 0 0 0 0 0 0 0 0 0 0 0 0 0 0 0 0 0.25 0"/>
<feBlend mode="normal" in2="BackgroundImageFix" result="effect1_dropShadow_1_267"/>
<feBlend mode="normal" in="SourceGraphic" in2="effect1_dropShadow_1_267" result="shape"/>
</filter>
<clipPath id="clip0_1_267">
<rect width="27" height="27" fill="white" transform="matrix(-1 0 0 1 31 0)"/>
</clipPath>
</defs>
</svg>
