<svg width="37" height="37" viewBox="0 0 37 37" fill="none" xmlns="http://www.w3.org/2000/svg">
<path d="M29.2916 13.4896H16.9583C15.0426 13.4896 13.4896 15.0426 13.4896 16.9583V29.2917C13.4896 31.2074 15.0426 32.7604 16.9583 32.7604H29.2916C31.2074 32.7604 32.7604 31.2074 32.7604 29.2917V16.9583C32.7604 15.0426 31.2074 13.4896 29.2916 13.4896Z" stroke="white" stroke-width="1.5"/>
<path fill-rule="evenodd" clip-rule="evenodd" d="M12.3333 6.9375H15.4166C17.6622 6.9375 19.1139 6.94242 20.1833 7.08621C21.1865 7.22106 21.5008 7.43877 21.6769 7.61482C21.8528 7.79086 22.0706 8.10524 22.2054 9.10826C22.3133 9.91043 22.343 10.9275 22.3511 12.3333H24.664C24.6454 8.98016 24.4966 7.16422 23.312 5.97963C21.9573 4.625 19.7771 4.625 15.4166 4.625H12.3333C7.97282 4.625 5.79258 4.625 4.43794 5.97963C3.08331 7.33426 3.08331 9.5145 3.08331 13.875V16.9583C3.08331 21.3188 3.08331 23.499 4.43794 24.8537C5.79258 26.2083 7.97282 26.2083 12.3333 26.2083V23.8958C10.0877 23.8958 8.63612 23.8909 7.56657 23.7471C6.56355 23.6123 6.24917 23.3945 6.07313 23.2186C5.89709 23.0425 5.67937 22.7282 5.54452 21.725C5.40073 20.6556 5.39581 19.2039 5.39581 16.9583V13.875C5.39581 11.6294 5.40073 10.1778 5.54452 9.10826C5.67937 8.10524 5.89709 7.79086 6.07313 7.61482C6.24917 7.43877 6.56355 7.22106 7.56657 7.08621C8.63612 6.94242 10.0877 6.9375 12.3333 6.9375Z" fill="white"/>
</svg>
