<svg width="393" height="494" viewBox="0 0 393 494" fill="none" xmlns="http://www.w3.org/2000/svg">
<path d="M-115 -174.116L-115 365.867H-47.4104C-54.4632 392.907 -3.33019 396.369 23.1179 394.721C21.6486 403.789 36.342 439.238 109.809 447.482C168.583 454.078 193.072 479.909 197.969 492C203.847 479.909 231.47 454.078 294.946 447.482C358.421 440.887 373.311 409.56 372.821 394.721C444.818 403.789 444.818 369.989 443.349 369.164C442.174 368.505 485.96 366.691 508 365.867L508 -173.292L431.984 -181.023C436.686 -210.701 389.056 -212.887 365.057 -209.589C369.955 -224.978 373.702 -254.743 300.823 -263.976C227.944 -273.209 202.897 -297.458 198.979 -309C196.53 -298.283 171.815 -275.188 96.5849 -263.976C21.3547 -252.764 31.6443 -223.011 37.0318 -208.447C-20.5663 -218.339 -36.1688 -194.213 -35.679 -181.023L-115 -174.116Z" stroke="#BFA054" stroke-opacity="0.2" stroke-width="0.899801"/>
</svg>
